<?xml version="1.0" encoding="UTF-8"?>
<svg id="Layer_1" data-name="Layer 1" xmlns="http://www.w3.org/2000/svg" xmlns:xlink="http://www.w3.org/1999/xlink" viewBox="0 0 250 71">
  <defs>
    <style>
      .cls-1 {
        fill: none;
      }

      .cls-2 {
        clip-path: url(#clippath-1);
      }

      .cls-3 {
        fill: #003d38;
      }

      .cls-4 {
        fill: #bfd961;
      }

      .cls-5 {
        clip-path: url(#clippath);
      }
    </style>
    <clipPath id="clippath">
      <rect class="cls-1" x="2" y=".58" width="246" height="69.83"/>
    </clipPath>
    <clipPath id="clippath-1">
      <rect class="cls-1" x="2" y=".58" width="246" height="69.83"/>
    </clipPath>
  </defs>
  <g id="CQUniversityAus_Hero_Green" data-name="CQUniversityAus Hero&amp;amp;Green">
    <g class="cls-5">
      <g class="cls-2">
        <path class="cls-4" d="M6.91,37.76C3.89,29.09,2.01,18.7,2,6.02c0-.15.11-.27.26-.29L51.89.58c.24-.02.4.24.27.44-2.83,4.3-6.09,8.4-9.77,12.28-11.59,12.22-25.1,20.02-35.09,24.62-.15.07-.33,0-.39-.17"/>
        <path class="cls-4" d="M27.32,46.24c5.45,1.94,10.69,4.47,15.67,7.56.13.08.18.26.1.4-3.52,5.79-7.98,11.32-13.61,16.14-.11.1-.28.09-.38,0-7.4-6.89-15.09-15.48-20.37-27.91-.09-.2.08-.43.3-.4,6.31.72,12.44,2.13,18.3,4.22"/>
        <path class="cls-4" d="M45.17,50.55c-.08.15-.26.2-.4.11-5.16-3.19-10.58-5.81-16.23-7.82-4.61-1.64-9.37-2.88-14.25-3.71-.27-.05-.33-.41-.08-.54,9.47-4.9,20.83-12.25,30.83-22.79,4.07-4.29,7.65-8.84,10.72-13.63.15-.24.52-.14.53.15.09,6.82-.54,28.49-11.1,48.23"/>
        <path class="cls-3" d="M75.42,19.47c-1.56,0-2.85.31-3.88.94-1.02.62-1.8,1.55-2.34,2.79-.53,1.24-.8,2.76-.8,4.56s.27,3.27.82,4.48c.55,1.2,1.34,2.1,2.39,2.71,1.05.6,2.37.9,3.98.9,1.38,0,2.91-.2,4.58-.6l.4.33v2.61c-1.85.53-3.73.8-5.65.8-2.25,0-4.19-.45-5.81-1.34-1.63-.89-2.87-2.17-3.74-3.84-.87-1.67-1.3-3.67-1.3-6.01s.45-4.4,1.35-6.11c.9-1.71,2.18-3.03,3.84-3.96,1.66-.92,3.62-1.39,5.9-1.39,1.67,0,3.31.23,4.91.7v2.67l-.43.37c-1.49-.4-2.9-.6-4.21-.6"/>
        <path class="cls-3" d="M84.63,36c-1.85-1.98-2.77-4.77-2.77-8.35s.91-6.4,2.74-8.37c1.83-1.97,4.41-2.96,7.75-2.96s5.85.99,7.67,2.96c1.81,1.97,2.72,4.76,2.72,8.37s-.91,6.37-2.72,8.35c-1.82,1.98-4.36,2.97-7.63,2.97s-5.9-.99-7.75-2.97M96.83,33.68c1.07-1.44,1.6-3.45,1.6-6.03s-.53-4.62-1.6-6.05c-1.07-1.42-2.56-2.14-4.48-2.14s-3.51.71-4.58,2.12c-1.07,1.41-1.6,3.44-1.6,6.06s.55,4.59,1.64,6.03c1.09,1.44,2.61,2.15,4.54,2.15s3.41-.72,4.48-2.15"/>
        <path class="cls-3" d="M121.31,35.22c-.65,1.26-1.6,2.2-2.87,2.82-1.27.62-2.84.94-4.71.94-2.74,0-4.82-.71-6.23-2.12-1.41-1.41-2.12-3.5-2.12-6.26v-13.86h4.11v14.23c0,1.67.36,2.91,1.07,3.71.71.8,1.8,1.2,3.27,1.2s2.61-.41,3.27-1.22c.67-.81,1-2.04,1-3.69v-14.23h4.18v13.86c0,1.83-.32,3.37-.97,4.63"/>
        <path class="cls-3" d="M129.27,38.65h-4.01v-10.98c0-1.17-.04-2.23-.12-3.18-.08-.95-.21-1.84-.39-2.64l3.13-.64,1.38,3.74v13.71ZM130.73,21.81c1.11-.49,2.26-.74,3.45-.74,2.02,0,3.54.53,4.55,1.58,1.01,1.06,1.52,2.65,1.52,4.78v11.21h-4.01v-10.91c0-1.12-.25-1.95-.76-2.49-.51-.54-1.32-.81-2.44-.81-.67,0-1.39.1-2.16.29-.76.19-1.4.47-1.92.83l-1.25-1.41c.9-1.05,1.9-1.83,3.01-2.32"/>
        <path class="cls-3" d="M143.01,18.21c-.49-.47-.74-1.07-.74-1.78s.25-1.34.74-1.8c.49-.46,1.12-.69,1.89-.69s1.43.23,1.92.69c.49.46.74,1.06.74,1.8s-.25,1.31-.74,1.78c-.49.47-1.13.71-1.92.71s-1.39-.24-1.89-.71M142.87,21.51h4.01v17.14h-4.01v-17.14Z"/>
        <polygon class="cls-3" points="165.77 21.51 165.77 22.62 159.71 38.65 155.4 38.65 149.34 22.62 149.34 21.51 153.45 21.51 158.16 36.5 157.02 36.5 161.83 21.51 165.77 21.51"/>
        <path class="cls-3" d="M169.02,36.77c-1.52-1.53-2.27-3.77-2.27-6.73,0-1.82.31-3.4.94-4.73.63-1.34,1.55-2.37,2.78-3.11,1.22-.74,2.7-1.11,4.43-1.11,2.29,0,4.04.62,5.25,1.87,1.21,1.25,1.82,3.03,1.82,5.34v3.17h-12.16v-2.49h9.29l-.91.64v-1.25c0-1.41-.29-2.48-.86-3.18-.57-.71-1.43-1.06-2.58-1.06-1.23,0-2.21.51-2.91,1.53-.71,1.02-1.06,2.36-1.06,4.02v.98c.07,1.82.56,3.16,1.47,4.02.91.86,2.23,1.3,3.96,1.3s3.27-.2,4.75-.61l.51.4v2.63c-.79.22-1.69.39-2.71.51-1.02.11-2.1.17-3.25.17-2.81,0-4.97-.76-6.48-2.29"/>
        <path class="cls-3" d="M184.5,24.49c-.08-.95-.21-1.84-.39-2.64l3.13-.64,1.11,3.17.27.64v13.64h-4.01v-10.98c0-1.17-.04-2.23-.12-3.18M189.74,22.13c1.12-.71,2.32-1.06,3.6-1.06.54,0,1.09.08,1.65.24v2.83l-.47.47c-.54-.11-1.12-.17-1.75-.17-.92,0-1.79.15-2.61.45-.82.3-1.43.74-1.84,1.3l-1.58-.81c.88-1.46,1.87-2.54,3-3.25"/>
        <path class="cls-3" d="M205.52,24.34c-.67-.13-1.31-.2-1.92-.2-.92,0-1.62.16-2.09.49-.47.33-.71.81-.71,1.46,0,.4.13.75.39,1.03.26.28.58.52.98.71.39.19.91.38,1.57.56,1.01.34,1.84.67,2.49,1.01.65.34,1.22.85,1.7,1.53.48.69.72,1.61.72,2.78,0,1.73-.63,3.05-1.9,3.97-1.27.92-3.05,1.38-5.34,1.38-1.66,0-3.3-.22-4.92-.67v-2.9l.37-.3c.79.29,1.53.49,2.24.61.71.11,1.48.17,2.31.17,2.04,0,3.06-.66,3.06-1.99,0-.43-.13-.78-.39-1.06-.26-.28-.59-.52-.99-.71-.4-.19-.94-.39-1.62-.59-.99-.34-1.81-.67-2.46-1.01-.65-.34-1.21-.84-1.67-1.52-.46-.67-.69-1.56-.69-2.66,0-1.68.6-3,1.8-3.94,1.2-.94,2.89-1.41,5.07-1.41.74,0,1.49.06,2.24.17.75.11,1.5.28,2.24.51v2.9l-.37.3c-.74-.27-1.45-.47-2.12-.61"/>
        <path class="cls-3" d="M211.21,18.21c-.49-.47-.74-1.07-.74-1.78s.25-1.34.74-1.8c.49-.46,1.12-.69,1.89-.69s1.43.23,1.92.69c.49.46.74,1.06.74,1.8s-.25,1.31-.74,1.78c-.49.47-1.13.71-1.92.71s-1.39-.24-1.89-.71M211.07,21.51h4.01v17.14h-4.01v-17.14Z"/>
        <path class="cls-3" d="M217.47,22.02l2.73-.5h9.19v3.1h-11.92v-2.59ZM224.71,35.49c.34.31.85.47,1.55.47.79,0,1.73-.09,2.83-.27l.34.3v2.53c-1.37.36-2.65.54-3.84.54-1.75,0-3.09-.43-4.01-1.28-.92-.85-1.38-2.16-1.38-3.91v-16.67h4.01v16.67c0,.76.17,1.3.5,1.62"/>
        <polygon class="cls-3" points="248 21.51 248 22.66 239.14 46.19 235.27 46.19 235.27 45.12 238.91 37.34 239.28 38.65 237.59 38.65 231.53 22.66 231.53 21.51 235.64 21.51 240.36 36.83 239.24 36.83 244.06 21.51 248 21.51"/>
        <path class="cls-3" d="M71.13,44.68l-2.92,8.54-.15.41-1.5,4.4h-1.57v-.15l5.06-14.1h1.77l5.06,14.1v.15h-1.68l-1.46-4.29-.17-.54-2.86-8.33.44-.2ZM67.36,52.88h7.06v1.29h-7.06v-1.29Z"/>
        <path class="cls-3" d="M88.23,55.9c-.39.79-.96,1.38-1.72,1.78-.76.39-1.71.59-2.84.59-1.71,0-2.99-.44-3.83-1.31-.84-.87-1.25-2.2-1.25-3.99v-9.18h1.61v9.2c0,1.38.28,2.4.85,3.05.57.65,1.45.98,2.64.98s2.09-.33,2.66-.98c.57-.65.85-1.67.85-3.05v-9.2h1.61v9.18c0,1.16-.19,2.14-.58,2.93"/>
        <path class="cls-3" d="M97.96,44.95c-.57-.09-1.1-.13-1.61-.13-1.05,0-1.85.21-2.41.64-.56.43-.84,1.06-.84,1.89,0,.58.15,1.05.44,1.42.29.36.65.64,1.07.83.42.19,1,.41,1.74.65.86.26,1.55.52,2.08.78.53.26.98.65,1.35,1.18.37.52.56,1.23.56,2.11,0,1.29-.46,2.27-1.37,2.94-.92.67-2.24,1-3.99,1-.65,0-1.29-.04-1.92-.11-.62-.07-1.21-.18-1.74-.33v-1.18l.22-.13c.51.16,1.06.28,1.67.37.6.09,1.22.13,1.86.13,1.23,0,2.15-.21,2.74-.63.59-.42.88-1.08.88-1.98,0-.58-.15-1.06-.44-1.43-.29-.37-.65-.65-1.07-.84-.42-.19-1.01-.41-1.77-.68-.84-.28-1.53-.54-2.06-.81-.53-.26-.98-.65-1.34-1.17-.36-.52-.54-1.2-.54-2.06,0-1.23.44-2.19,1.31-2.87.87-.68,2.09-1.01,3.66-1.01.54,0,1.09.04,1.67.12.57.08,1.11.19,1.62.34v1.16l-.2.13c-.48-.15-1-.26-1.57-.35"/>
        <path class="cls-3" d="M102.14,43.79h10.48v1.29h-10.48v-1.29ZM108.18,58.04h-1.59v-13.36h1.59v13.36Z"/>
        <path class="cls-3" d="M116.2,51.92v-1.22h2.68c1.09,0,1.9-.28,2.44-.84.54-.56.81-1.27.81-2.13s-.25-1.53-.76-1.98c-.51-.45-1.37-.68-2.59-.68h-2.29l.28-.41v13.38h-1.61v-14.25h3.55c1.85,0,3.15.33,3.92.99.77.66,1.16,1.64,1.16,2.93,0,1.08-.33,1.98-.98,2.71-.65.73-1.55,1.17-2.68,1.3l-.59.2h-3.33ZM120.21,50.85l4.75,7.06v.13h-1.79l-4.23-6.45,1.26-.74Z"/>
        <path class="cls-3" d="M133.16,44.68l-2.92,8.54-.15.41-1.5,4.4h-1.57v-.15l5.06-14.1h1.77l5.06,14.1v.15h-1.68l-1.46-4.29-.17-.54-2.86-8.33.44-.2ZM129.39,52.88h7.06v1.29h-7.06v-1.29Z"/>
        <polygon class="cls-3" points="141.96 56.76 149.39 56.76 149.39 58.04 141.13 58.04 141.13 43.79 142.75 43.79 142.75 57.5 141.96 56.76"/>
        <rect class="cls-3" x="152.36" y="43.79" width="1.61" height="14.25"/>
        <path class="cls-3" d="M162.78,44.68l-2.92,8.54-.15.41-1.5,4.4h-1.57v-.15l5.06-14.1h1.77l5.06,14.1v.15h-1.68l-1.46-4.29-.17-.54-2.86-8.33.44-.2ZM159.01,52.88h7.06v1.29h-7.06v-1.29Z"/>
        <polyline class="cls-3" points="93.78 37.92 102.9 39.36 102.92 35.82 98.83 35.28"/>
      </g>
    </g>
  </g>
</svg>