<?xml version="1.0" encoding="utf-8"?>
<!-- Generator: Adobe Illustrator 27.7.0, SVG Export Plug-In . SVG Version: 6.00 Build 0)  -->
<svg width="208px" height="62.5px" version="1.1" id="Layer_1" xmlns="http://www.w3.org/2000/svg" xmlns:xlink="http://www.w3.org/1999/xlink" x="0px" y="0px"
	 viewBox="0 0 208 62.5" style="enable-background:new 0 0 208 62.5;" xml:space="preserve">
<style type="text/css">
	.st0{fill:#23334B;}
	.st1{fill:#702A3D;}
</style>
<g>
	<path class="st0" d="M64.1,41.8l3-4.9l-0.2-0.1c-4.3-1.5-7-1.4-7-1.4c-0.9-0.1-2.1,0.3-2.8,0.7c0.1-0.9,0.1-1.4,0.1-1.4l0-7.4h0
		l0-11.9h0l0-15L10,0.7l0,34.2c0,0,0,0.5,0.1,1.4c-0.7-0.5-1.9-0.8-2.8-0.7c0,0-2.7-0.1-7,1.4L0.1,37l3,4.9L0,48l0.3-0.1
		c3.7-1.3,6.2-1.4,6.8-1.4l0,4.3c0,0,0,0.1,0,0.1c9.8,11.3,24.5,11.7,26.2,11.6c0.1,0,0.2,0,0.3,0c0,0,0.1,0,0.3,0
		c1.6,0,16.4-0.3,26.1-11.7c0,0,0-0.1,0-0.1l0-4.3c0.4,0,3,0,6.9,1.4l0.3,0.1L64.1,41.8z M10.7,34.9l0-5l45.8,0l0,5.1
		c0,0,0,0.9-0.1,2.2c0,0.1-0.1,0.3,0,0.3c-0.3,1.8-0.9,4.3-2.4,6.6c-1,1.5-2.7,3.7-5.3,6c-7.4,3.7-13.9,3.9-14.9,3.9l-0.1,0l-0.1,0
		c-1,0-7.5-0.2-14.8-3.8c-2.6-2.3-4.4-4.5-5.3-6c-1.5-2.4-2.2-4.9-2.5-6.7c0,0,0-0.2,0-0.2C10.7,35.8,10.7,34.9,10.7,34.9z
		 M11.6,42.2c0.3,0.7,0.7,1.3,1.1,2c1,1.5,2.4,3.2,4.1,4.8c-1.7-1-3.4-2.2-5.2-3.6V42.2z M54.5,44.2c0.4-0.6,0.8-1.3,1.1-2v3.2
		c-1.7,1.4-3.4,2.6-5,3.6C52.2,47.3,53.5,45.7,54.5,44.2z M56.5,28.7l-45.8,0l0-1.3l45.8,0L56.5,28.7z M56.5,1.3l0,14.3l-7.2,0
		l0,3.1l-5.4,0l0-3.1l-7.5,0l0,3.1l-5.3,0.1l0-3.1l-7.9,0l0,3.1l-5,0l0-3.1l-7.6,0l0-14.3L56.5,1.3z M1.2,46.9l2.5-5.1l-2.6-4.5
		c4.2-1.4,6-1.2,6.1-1.2c1.3,0,2.6,0.3,2.9,0.9c0,0.1,0,0.3,0.1,0.4c0,0.2-0.2,0.4-0.9,0.5c-0.9,0.1-1.6,0.5-1.9,1.1
		c-0.5,0.8-0.2,2.2-0.2,2.2l0,4.5C6.7,45.8,4.8,45.7,1.2,46.9z M33.8,61.9c-0.1,0-0.2,0-0.3,0c0,0-0.1,0-0.2,0
		c-1.6,0-15.8,0.1-25.5-11.1l0-8.2c10.6,12.1,24.1,12,25.7,12l0.1,0l0.1,0c1.6,0,15,0,25.6-12.1l0,8.2
		C49.7,61.9,35.5,61.9,33.8,61.9z M60,45.8l0-4.5c0,0,0,0,0,0c0.1-0.2,0.3-1.3-0.2-2.2c-0.4-0.6-1-1-1.9-1.1
		c-0.6-0.1-0.8-0.3-0.9-0.5c0-0.2,0.1-0.4,0.1-0.5c0.3-0.6,1.5-1,2.8-0.9c0,0,2.3-0.2,6.5,1.3l-2.9,4.5l2.7,5.3
		C62.3,45.8,60.3,45.8,60,45.8z"/>
	<path class="st0" d="M23.8,48.7L23.8,48.7c-0.5,0.5-1.4,0.3-2.2,0.4c-0.1,0.1-0.6,0.2-0.3,0.5c0.4,0.2,0.9,0.2,1.3,0.1
		c1.7-0.7,4-0.7,5.9-0.3c0.3,0.1,0.5,0.2,0.8,0.3c0.4,0.1,0.9,0.2,1.3,0.2c1.1,0,2.1-0.2,3.2-0.2c0.1,0,0.2,0,0.4,0
		c0.7,0.2,1.3,0.3,2,0.3c1.5,0,3.1-0.4,4.6-0.6c0.5,0.1,1.1-0.3,1.3,0.2c0.7,0.2,1.5,0,2.1-0.1c1-0.3,1.9,0.3,2.8-0.1
		c0.2-0.2,0.2-0.4-0.1-0.5c-0.6-0.1-1.4-0.1-2.1,0c-0.5,0-1.2,0.1-1.5-0.1l0.1-0.1c0.8-0.5,2,0.3,2.6-0.5c-0.5-0.5-1.4-0.1-2.1-0.1
		l-0.7,0.1c0.2-0.1,0.3-0.2,0.4-0.3c0.6-0.7,1-1.5,1.6-2.2c1.2-0.4,2.1-1.5,3-2.3L47.8,43c-2.5,1.3-4.8-0.6-6.8-1.6
		c-2.2-1.6-5.3-0.5-8-0.8c-1.3,0.1-2.3,1-3.1,2c-0.5,0.6-1.1,1.5-1.9,1.8c-0.3-0.4-0.4-0.9-0.3-1.4c0.4-1.5,1-2.9,1.4-4.4
		c0.3-1.6,0.9-3.4,0.2-4.9c-0.7-1.4-2.2-1.9-3.7-1.8c-1.7,0.3-2.4,2.4-4.2,2.4c-0.2,0.1-0.1,0.2-0.1,0.4c0.2,0.3,0.5,0.3,0.8,0.3
		c1.2-0.2,2.5-0.3,3.7-0.2c0.4,0,0.9-0.3,1.3,0c1.3,1.2,0.4,3.1-0.1,4.4c-1.1,1.7-2,3.5-2.6,5.4c-0.1,1.1,0.6,1.9,1,2.8
		c0,0,0.1,0.1,0.2,0.2c-0.4,0-3.3,0.4-4.7,0.4c-0.3,0-0.8-0.3-1,0.1c0,0.1-0.1,0.2,0,0.3C21.1,49.2,22.6,48.7,23.8,48.7z M30.7,43.3
		c-0.2,0.1-0.3,0.2-0.5,0.2c0.6-1.1,1.8-1.8,2.8-2.3c1.2-0.2,2.7,0,4-0.2c2.7,0,4.6,1.6,6.9,2.8l0.9,0.3c0,0.3-0.3,0.3-0.5,0.5
		c-0.2,0.1-0.4,0.1-0.6,0.1c0-0.1,0-0.2-0.1-0.2c-0.5-0.1-0.9-0.6-1.4-0.6c0.1,0.4,0.5,0.6,0.8,0.9c-0.1,0-0.1,0-0.2,0.1
		c0,0.5,1.3,0.3,0.4,0.8c-0.8,0.5-1.6,0.4-2.3,0.1c0.4,0.1,0.7,0,1-0.1c0.1-0.5,0.7,0,0.7-0.5c-0.8-0.5-1.5-1.2-2.5-1.3
		c0.2-0.1,0.4-0.2,0.7-0.2c0.2,0.1,0.4,0.2,0.6,0.2c0.1,0,0.2-0.1,0.1-0.2c-0.6-0.6-1.4-1.1-2.3-1.2c-0.7-0.4-1.5-0.7-2.5-0.6
		c-0.1,0-0.2,0.1-0.1,0.2c0.5,0.2,1.3,0.2,1.5,0.8c-0.5,0.6-1.2-0.2-1.8,0.3c-0.1,0.6,0.6,0.3,1,0.5c0.4,0.2,1.1,0.3,1.2,0.8
		c-0.4,0.4-0.9,0.3-1.4,0.4v0.1c0.1,0.1,0.2,0.2,0.4,0.2c-0.1,0-0.1,0.1-0.2,0.2c0,0.1,0.1,0.2,0.2,0.2c0.7,0.1,1.6-0.1,2.1,0.3
		c0.8,0.3,1.6,0.6,2.4,0.8c0,0.1,0.1,0.1,0.1,0.2c-0.5,0.2-1.1,0.3-1.5,0.6c-0.5-0.4-1.1-0.5-1.7-0.7c-0.4,0-0.8-0.2-1.1,0
		c0.1,0.3,0.5,0.1,0.8,0.2c0.3,0.1,0.7,0.2,0.9,0.5c-0.6,0.6-1.5,0.2-2.4,0.2c0,0-0.1,0.1-0.1,0.1c0.1,0.1,0.2,0.1,0.3,0.1
		c0.4,0,0.9,0.1,1.4,0.1c-0.3,0-0.6,0-0.9,0c-0.7,0.1-1.3,0-2,0c0.2,0,0.5,0,0.7-0.2c0-0.1,0-0.2-0.1-0.2c-0.1-0.1-0.2-0.1-0.4-0.1
		l-1.4,0.1l-0.1,0.1l0,0c0.3,0.1,0.7,0.3,1.1,0.3c-1.5-0.1-3-0.2-4.5-0.3c-0.6-0.2-1.3-0.3-1.6-0.9c-0.2-1.4,0.6-2.5,1.5-3.5
		C31.3,43,31,43.2,30.7,43.3z M39.3,44.3c0.3-0.2,0.5,0.1,0.8,0c0.3-0.4,0.8,0,1.1,0c0.2,0.2,0.5,0.3,0.4,0.6
		c-0.3,0.6-1,0.1-1.3,0.2c-0.1,0.2,0,0.3,0.2,0.4c-0.5-0.2-1.1-0.4-1.6-0.5C39,44.7,39.3,44.6,39.3,44.3z M38.7,43.2
		c0.1-0.2,0.2-0.4,0.3-0.6c0.2,0,0.5,0.2,0.7,0.1c0.3-0.1,0.7,0.1,0.9,0.4c-0.2,0.5-0.8,0-1.1,0.4C39.2,43.5,39,43.3,38.7,43.2z
		 M25.6,44.7c-0.2-0.1-0.2-0.3-0.2-0.5c0.9-3.3,4.7-6.6,2-10.2C27.2,34,27.1,34,27,34c-0.4,0.7-1.3,0.6-2,0.5
		c-0.3-0.1-0.7-0.2-0.7-0.5c0.5-0.5,1.4,0.3,1.8-0.3c-0.1-0.6-0.8-0.3-1.2-0.6c0.1-0.3,0.4-0.4,0.7-0.5c1.3-0.2,2.5,0.3,3.1,1.4
		l0.3,1c0.1,2.3-0.9,4.1-1.4,6.1c-0.5,1.3-1.1,2.8-0.5,4.2c0.2,0.2,0.4,0.4,0.7,0.5c0.4,0.1,0.6-0.4,0.8-0.2
		c0.1,1.1,1.1,2.1,2.1,2.4c3.1,0.9,6.8,0.7,10,0c0.9-0.4,2-0.5,2.5-1.5c0-0.6,0.7-0.6,1-1.2c0.1-0.6,0.9-0.7,1.3-1.2
		c0.1,0,0.2,0,0.2,0.1c-0.1,0.7-1.1,0.6-1.3,1.3c-0.7,1.2-1.7,2.5-3.2,2.7c-0.6,0.3-1.3,0.3-2,0.4c-2.6,1-5.5-0.5-8.2,0.4
		c-1,0-1.9-0.2-2.6-0.9c-0.1-0.2,0.2-0.3,0.2-0.4c-0.8-0.4-1.9-0.1-2.4-1.1c-0.3-0.4-0.4-1-0.2-1.5c0.1-0.2,0.2-0.3,0.2-0.6
		c-0.1-0.2-0.3-0.1-0.4-0.1L25.6,44.7z"/>
	<path class="st0" d="M9.6,48.9c0.1,0.1,0.2,0,0.2-0.3c0-0.4-0.2-0.8-0.3-0.9C9.3,47.8,9.4,48.6,9.6,48.9z"/>
	<path class="st0" d="M10.7,47c-0.1-0.1-0.2-0.2-0.2-0.3c0,0,0,0.1,0,0.1c0.1,0.2,0.2,0.2,0.2,0.4c0.1,0.4,0.1,3.7,0.1,3.8
		c0,0.5,0,0.6-0.2,0.5c0,0,0,0.1,0,0.1c0.1,0.1,0.2,0.2,0.3,0.3C10.9,52,11,52,11,52.1c0.1,0.1,0.3,0.3,0.4,0.4c0-0.1,0-0.1,0-0.1
		c-0.1-0.2-0.2-0.3-0.3-0.5c-0.1-0.9,0-1.5-0.1-2.1c1.1,0.9,1,1,1,1.5c0,0,0.1,0,0.1,0.1c0-0.4,0-0.8,0-1.2c0,0-0.1,0-0.1-0.1
		c0,0,0,0.1,0,0.1c-0.1,0.5-0.7-0.3-1.1-0.7c0-0.2,0-0.4,0-0.6c0,0,0-0.9,0-1.3c0.5,0.3,1.1,0.8,1.2,1.8c0,0,0.1,0.1,0.1,0.1v0
		c0,0,0-0.5,0-0.9C11.6,48.1,11.1,47.5,10.7,47z"/>
	<path class="st0" d="M13.2,51.1c-0.4,0-0.6,0.2-0.6,0.9c0.1,1.6,1,2.8,1.7,2.3C15,53.5,14.3,51.5,13.2,51.1z M13.8,54.2
		c-0.5-0.2-0.9-1.3-0.9-2.2c0-0.8,0.3-1,0.7-0.5C14.3,52.5,14.5,54.2,13.8,54.2z"/>
	<path class="st0" d="M16,53.1c-0.1,0-0.2,0-0.3,0.1c0-0.2,0-0.4,0-0.7c-0.2,0-0.5,0.1-0.7,0.1c0,0,0,0.1,0,0.1
		c0.2,0.1,0.3,0.2,0.3,0.2c0.1,0.3,0.1,1.9,0.1,1.9c0,0.4-0.1,0.3-0.3,0.3c0,0,0,0.1,0,0.1c0.4,0.3,0.9,0.5,1.3,0.7
		c0-0.1,0-0.1,0-0.2c-0.1-0.1-0.2-0.1-0.3-0.2c0,0,0,0-0.1,0c-0.1,0-0.1-0.1-0.2-0.2c-0.1-0.4,0-1.7,0-1.7c0-0.1,0.1-0.2,0.1-0.4
		c0.1-0.1,0.5-0.2,0.6,0.4c0,0,0,0,0,0c0.1,0,0.3,0.1,0.3-0.2c-0.1-0.2-0.2-0.3-0.3-0.5C16.3,53,16.2,53,16,53.1z"/>
	<path class="st0" d="M17.8,55.7c0-0.4,0-0.8,0-1.2c0-0.4,0-0.4,0.1-0.4c0.2,0.1,0.3,0.2,0.5,0.2c0.2,0.1,0.3,0.1,0.3,0.1
		c0,0,0,0,0.1,0c0-0.1,0-0.2,0-0.2c-0.6-0.2-0.9-0.4-1-0.5c0-0.2,0-0.4,0-0.7c-0.3,0.3-0.4,0.4-0.8,0.5c0,0,0,0.1,0,0.1
		c0.1,0.1,0.2,0.1,0.3,0.2c0,0.5,0,1,0,1.5c0,0.1,0,0.3,0,0.4c0.1,1.6,1.3,1.1,1.5,1c0,0,0-0.1,0-0.1C18.1,56.8,17.8,56.7,17.8,55.7
		z"/>
	<path class="st0" d="M20,53.3c0.2-0.2,0-0.5-0.2-0.6c-0.1,0-0.2,0-0.2,0.2C19.6,53.2,19.8,53.4,20,53.3z"/>
	<path class="st0" d="M19.9,57.3c-0.1-0.6,0-2.1,0.1-2.7c0,0,0,0-0.1,0c-0.1,0.1-0.4,0.2-0.8,0.2c0,0,0,0,0,0c0,0.1,0,0.1,0.1,0.2
		c0.1,0.1,0.1,0.2,0.2,0.3c0,0.3,0,1.7,0,2.1c0,0.1,0,0.1-0.3,0c0,0,0,0.1,0,0.1c0.5,0.2,0.9,0.3,1.4,0.5c0,0,0-0.1,0-0.1
		C20.2,57.6,20,57.5,19.9,57.3z"/>
	<path class="st0" d="M21.5,57.2c0-0.4,0-0.8,0-1.3c0-0.4,0-0.4,0.1-0.4c0.1,0,0.2,0.1,0.3,0.1c0.3,0.1,0.5,0.2,0.8,0.2
		c0-0.1,0-0.2,0-0.2c-0.5-0.1-0.9-0.3-1.1-0.4c0-0.2,0-0.4,0-0.7c-0.3,0.3-0.4,0.4-0.9,0.6c0,0,0,0.1,0,0.1c0.1,0.1,0.2,0.1,0.4,0.2
		c0,0.5,0,1,0,1.6c0,0.1,0,0.3,0,0.4c0.1,1.6,1.4,1.1,1.7,0.9c0,0,0-0.1,0-0.1C22,58.3,21.5,58.4,21.5,57.2z"/>
	<path class="st0" d="M25.4,57.1c-0.1,0-0.1,0-0.2-0.1c-0.7-1.5-1.7-1.2-2.2-0.2c-0.3,1.2,0.3,3,2.1,2.4c0.1,0,0.1-0.1,0.2-0.1
		c0,0,0-0.1-0.1-0.1c-1.1,0.5-1.7-0.2-1.8-1.6c0.6,0,1.3,0,2,0C25.4,57.2,25.4,57.2,25.4,57.1z M24.4,57.1c-0.2,0-0.3,0-0.5,0
		c-0.2,0-0.3,0-0.5,0c0.1-1.1,0.5-1.1,1-0.6c0.2,0.2,0.3,0.5,0.3,0.6C24.7,57.1,24.5,57.1,24.4,57.1z"/>
	<path class="st0" d="M27.8,56.7c-0.2,0.1-0.4,0.2-0.5,0.2c-0.2,0.1-0.3,0.1-0.5,0.2c0-0.2,0-0.5,0-0.7c-0.4,0.1-0.7,0.3-1,0.4
		c0,0,0,0.1,0,0.1c0.3,0,0.4,0.1,0.4,0.1c0.2,0.3,0.1,2,0.1,2.1c-0.1,0.4-0.2,0.4-0.5,0.4c0,0,0,0.1,0,0.1c0.7,0.1,1.3,0.2,1.9,0.3
		c0-0.1,0-0.1,0-0.2c-0.2,0-0.3,0-0.5-0.1c0,0-0.1,0-0.1,0c-0.2,0-0.2,0-0.3-0.3c-0.1-0.7,0-1.7,0-1.7c0-0.1,0.1-0.3,0.1-0.4
		c0.2-0.1,0.7-0.4,0.8,0.2c0,0,0,0,0,0c0.2,0,0.4,0,0.4-0.3c0,0,0-0.1-0.1-0.2C28,56.8,27.9,56.8,27.8,56.7z"/>
	<path class="st0" d="M33.2,58c-0.1,0-0.1,0-0.2-0.1c-0.8-1.4-1.8-0.7-2.2,0.2c-0.3,1.3,0.3,2.7,1.8,2c0.2-0.1,0.3-0.2,0.5-0.3
		c0,0-0.1-0.1-0.1-0.1c-1,0.7-1.7,0.2-1.8-1.2c0.6-0.1,1.3-0.2,1.9-0.4C33.2,58.1,33.2,58.1,33.2,58z M32.6,58.1
		c0,0-0.3,0.1-0.3,0.1c-0.2,0-0.3,0.1-0.5,0.1c-0.2,0-0.3,0.1-0.5,0.1c0.1-1.3,0.7-1.1,1.1-0.7C32.5,57.8,32.6,58,32.6,58.1z"/>
	<path class="st0" d="M34.4,59.2c0-0.4,0-0.8,0-1.3c0-0.3,0-0.4,0.1-0.4c0.1,0,0.1,0,0.2,0c0.5,0,0.6,0,0.9,0c0-0.1,0-0.2,0-0.2
		c-0.5,0-0.9,0-1.1,0c0-0.2,0-0.5,0-0.7c-0.4,0.5-0.4,0.6-1,0.9c0,0,0,0.1,0,0.1c0.1,0,0.3,0,0.4,0c0,0.5,0,1,0,1.6
		c0,0.1,0,0.3,0,0.4c0.2,1.7,1.6,0.4,1.7,0.3c0,0,0-0.1,0-0.1C35,60.1,34.4,60.4,34.4,59.2z"/>
	<path class="st0" d="M39.9,56.7c-1.7-0.4-1.3-1.1-1-1.6c0.5-0.5,1.9-1,2.2,0.3c0,0,0.1,0,0.1,0c0-0.2,0-0.3,0-0.5
		c0-0.2,0.1-0.4,0-0.6c-0.2,0-0.3,0.1-0.5,0.2c-0.7,0-1.2,0.1-1.7,0.4c-0.6,0.4-1.9,1.8,0.6,2.5c0.7,0.2,1,0.2,1.2,0.7
		c0.3,1.3-0.8,2.1-2.3,1.5c-0.2-0.3-0.4-0.6-0.5-0.9c0,0-0.1,0-0.1,0c0.1,0.6,0.2,0.8,0.2,1.5c0.1,0,0.1,0,0.2,0
		c0-0.2,0.1-0.2,0.2-0.2c1.8,0.2,2.5-0.6,2.7-1.2C41.5,58.4,42.1,57.3,39.9,56.7z"/>
	<path class="st0" d="M44.6,55.4c-0.3,0.2-0.6,0.4-1,0.5c0,0,0,0.1,0,0.1c0.5-0.1,0.5-0.1,0.5,0.7c0,0.3,0,0.6,0,0.9
		c0,0.1,0,0.4,0,0.4c-1.7,1.5-1.6,0.4-1.5-1.4c0-0.2,0-0.5,0-0.7c0-0.1-0.1-0.1-0.1,0c-0.3,0.2-0.6,0.5-0.8,0.7c0,0.1,0,0.1,0,0.2
		c0.5-0.3,0.4-0.3,0.5,0.3c0,0.3,0,0.6,0,1c0.1,2.1,1.1,0.9,2,0.2c0,0.3,0.1,0.5,0.1,0.6c0.2-0.1,0.6-0.4,0.8-0.6c0-0.1,0-0.1,0-0.2
		c-0.1,0.1-0.2,0.2-0.4,0.2C44.5,58,44.5,57,44.6,55.4z"/>
	<path class="st0" d="M47.3,56.6c0-0.1,0-0.2,0-0.2c0-0.1,0-0.2,0-0.3c-0.1-0.4-0.1-0.9-0.2-1.3c-0.4-0.2-0.4-0.2-0.8,0.1
		c-0.9,0.7-0.8,0.9-0.8,1.1c0,0,0,0,0,0.1c0.1-0.1,0.3-0.3,0.4-0.4c-0.1-0.4,0.2-0.6,0.6-0.6c0.3,0.1,0.3,0.2,0.3,0.7
		c0,0.2,0,0.3,0,0.5c-0.4,0.2-0.8,0.4-1.2,0.8c-0.4,0.4-0.4,1.2,0,1.2c0.4-0.1,0.9-0.6,1.1-0.9c0.1,0.5,0.4,0.3,0.5,0.2
		c0.2-0.2,0.3-0.3,0.5-0.5c0-0.1,0-0.1,0-0.2C47.5,57.2,47.2,57.6,47.3,56.6z M46.8,57.2c-0.3,0.3-0.6,0.6-0.7,0.6
		c-0.2,0-0.3-0.3-0.3-0.4c0-0.1,0-0.6,1-1C46.8,56.4,46.8,57,46.8,57.2z"/>
	<path class="st0" d="M49.4,53.6c0,0,0,0.1,0,0.1c0.3-0.1,0.4-0.1,0.3,0.3c0,0-0.1,0.7-0.6,2c-0.2-0.4-0.5-1.4-0.5-1.7
		c0-0.2,0-0.2,0.4-0.4c0,0,0-0.1,0-0.1c-0.2,0.1-0.6,0.3-1.2,0.6c0,0,0,0.1,0,0.1c0.1,0.1,0.2,0.1,0.3,0.2c0,0,0.5,1.1,0.8,2.4
		c0,0,0.1,0,0.1,0c0.1-0.2,0.1-0.4,0.2-0.6c0.2-0.7,0.4-1.3,0.6-1.9c0.2-0.8,0.3-1,0.5-1.2c0,0,0-0.1,0-0.1
		c-0.3,0.2-0.5,0.3-0.7,0.4C49.5,53.5,49.4,53.5,49.4,53.6z"/>
	<path class="st0" d="M51.5,55.2c-0.2,0.1-0.2,0.1-0.2,0c0-0.1,0-0.1,0-0.2c0-0.4,0-0.8,0-1c0-0.6,0.1-1.1,0.1-1.6
		c0,0-0.1,0.1-0.1,0.1c-0.2,0.4-0.4,0.6-0.7,0.8c0,0,0,0.1-0.1,0.1c0.1,0,0.2-0.1,0.3-0.1c0.1,0.2,0,2.1,0,2.1c0,0.1,0,0.2-0.3,0.4
		c0,0,0,0.1,0,0.1c0.4-0.3,0.8-0.5,1.2-0.8c0,0,0-0.1,0-0.1C51.6,55.2,51.5,55.2,51.5,55.2z"/>
	<path class="st0" d="M51.3,51c0.1-0.3,0-0.4-0.2-0.4C51,50.7,50.9,51,51,51.2C51,51.3,51.2,51.2,51.3,51z"/>
	<path class="st0" d="M53.1,54c-0.7,0.7-0.6-0.1-0.6-0.4c0-0.4,0-0.8,0-1.2c0-0.3,0-0.4,0.1-0.5c0.1,0,0.1-0.1,0.2-0.1
		c0.3-0.2,0.4-0.2,0.6-0.4c0-0.1,0-0.2,0-0.2c-0.5,0.4-0.8,0.5-0.8,0.5c0-0.2,0-0.5,0-0.7c-0.3,0.6-0.3,0.8-0.7,1.4c0,0,0,0.1,0,0.1
		c0.1-0.1,0.2-0.1,0.3-0.2c0,0.5,0,1,0,1.5c0,0.1,0,0.3,0,0.4c0,0.1,0,0.2,0,0.4c0.3,0.7,1-0.5,1.2-0.9c0,0,0,0,0-0.1
		C53.4,53.7,53.3,53.9,53.1,54z"/>
	<path class="st0" d="M55.2,50.5c-0.1,0-0.1,0.1-0.1,0c-0.3-0.6-0.7-0.4-1.2,0.7c-0.5,1.4-0.4,2.6,0.4,2.3c0.4-0.3,0.7-0.9,0.9-1.2
		c0,0,0,0,0-0.1c-0.8,1.5-1.1,0.6-1.1,0.5C54,52.5,54,52.4,54,52c0.4-0.5,0.9-1,1.3-1.4C55.3,50.5,55.3,50.5,55.2,50.5z M54.7,51.1
		c-0.1,0.1-0.2,0.2-0.3,0.4c-0.1,0.1-0.2,0.2-0.3,0.4c0.1-1.5,0.6-1.4,0.7-1.3c0.1,0.1,0.2,0.2,0.1,0.3
		C54.8,50.9,54.7,51.1,54.7,51.1z"/>
	<path class="st0" d="M56.3,48.9c-0.1,0.2-0.2,0.4-0.3,0.5c0-0.2,0-0.4,0-0.7c-0.2,0.4-0.4,0.8-0.6,1.1c0,0.1,0,0.1,0,0.1
		c0.1-0.1,0.2-0.2,0.2-0.2c0.1,0.1,0.1,1.8,0.1,1.9c0,0.4-0.1,0.5-0.3,0.7c0,0,0,0.1,0,0.1c0.4-0.3,0.7-0.7,1-1c0-0.1,0-0.1,0-0.2
		c-0.1,0.1-0.2,0.2-0.3,0.3c0,0,0,0-0.1,0.1C56.1,51.7,56,52,56,50c0-0.2,0-0.3,0.1-0.5c0-0.1,0.2-0.4,0.2-0.5
		c0.2-0.2,0.2,0,0.2,0.1c0.2-0.3,0.2-0.5,0.2-0.6c-0.1-0.1-0.1-0.2-0.2-0.2C56.5,48.5,56.4,48.7,56.3,48.9z"/>
	<path class="st0" d="M58.1,47.7C58.1,47.7,58.1,47.7,58.1,47.7c-0.2,0.2-0.4,1-0.2,1.2c0.2,0.1,0.3-0.4,0.4-0.9
		C58.3,47.8,58.2,47.6,58.1,47.7z"/>
	<path class="st0" d="M14.9,8c0.1-0.8,1-1.3,1.8-1.5c0.1-0.3,0-0.9,0.3-1.1C18,5,17.3,4.7,17.9,4.4c0.8,0.4,2,0,2.3,0.8
		c0.1-0.5,0.3-0.7,1-1c-0.8-1.1-3.4-0.4-4.3-0.9c-0.5-0.3-0.6,0.9-1.1,1.1c-0.1,0.3,0.3,0.6,0,0.7C14.7,5,13.6,8,14.9,8z"/>
	<path class="st0" d="M20.5,6.7c0.2,0.8,1.4,1,1.6,2c-0.1-1.9,2.3-2.9,1.1-4.6C21.8,4.6,20,5,20.5,6.7z"/>
	<path class="st0" d="M19.5,6.5c0.7-0.3,0.2-1.2-0.2-1.3c-0.2-0.1-0.5-0.1-0.6,0.1C19.2,5.5,19.6,5.8,19.5,6.5z"/>
	<path class="st0" d="M17.9,5.7c0,0.2-0.4,0.2-0.2,0.4c0.3,0.3,0.9,0.3,1.4,0.4c0.1-0.6-0.3-0.8-0.6-1c0,0.3,0.2,0.3,0.1,0.7
		C18.3,6,18.2,5.7,17.9,5.7z"/>
	<path class="st0" d="M17.3,6.5c0,0.2-0.1,0.4,0,0.6c0.4,0.8,2.2,0.8,1.9,3.1c0.4,0.3,0.5,0.2,1,0.7c0.1-0.8,0.9-0.9,0.9-1.6
		C21.1,7.2,18.5,7.2,17.3,6.5z"/>
	<path class="st0" d="M18.3,9.8c0-1.9-2.3-3.2-3.2-0.9c-0.1,0.4-0.7,0.1-0.7,0.4c0,0.5,0.5,0.7,1,0.9C16.3,9.7,17.6,9.5,18.3,9.8z"
		/>
	<path class="st0" d="M20.8,13.2c2.9,0,2.3-3.5,4.5-4.3C22.2,8.4,21.1,10.9,20.8,13.2z"/>
	<path class="st0" d="M23.2,8.5c1.1-0.3,1.8-2.9,1-3.6C24.6,6.4,22.9,6.7,23.2,8.5z"/>
	<path class="st0" d="M17.6,11.3c0.9-0.2,1.4,0,1.9,0.4c-0.5-1.7-4.1-1.9-5.6-0.2C15.8,10.8,16.8,11.5,17.6,11.3z"/>
	<path class="st0" d="M17.6,11.9c-1.1,0.1-1.5-0.5-2.2-0.2c1.1,0.1,1.7,1.3,2.7,1.5c0.5,0.1,1.3,0.1,1.9,0
		C19.7,12.3,18.5,11.9,17.6,11.9z"/>
	<path class="st0" d="M28.9,8c0.1-0.8,1-1.3,1.8-1.5c0.1-0.3,0-0.9,0.3-1.1c0.9-0.4,0.3-0.8,0.9-1.1c0.8,0.4,2,0,2.3,0.8
		c0.1-0.5,0.3-0.7,1-1c-0.8-1.1-3.4-0.4-4.3-0.9c-0.5-0.3-0.6,0.9-1.1,1.1c-0.1,0.3,0.3,0.6,0,0.7C28.6,5,27.5,7.9,28.9,8z"/>
	<path class="st0" d="M34.4,6.7c0.2,0.8,1.4,1,1.6,2c-0.1-1.9,2.3-2.9,1.1-4.6C35.8,4.6,33.9,5,34.4,6.7z"/>
	<path class="st0" d="M33.5,6.5c0.7-0.3,0.2-1.2-0.2-1.3c-0.2-0.1-0.5-0.1-0.6,0.1C33.2,5.5,33.5,5.8,33.5,6.5z"/>
	<path class="st0" d="M31.8,5.7c0,0.2-0.4,0.2-0.2,0.4c0.3,0.3,0.9,0.3,1.4,0.4c0.1-0.6-0.3-0.8-0.6-1c0,0.3,0.2,0.3,0.1,0.6
		C32.3,6,32.2,5.7,31.8,5.7z"/>
	<path class="st0" d="M31.2,6.5c0,0.2-0.1,0.4,0,0.6c0.4,0.8,2.2,0.8,1.9,3.1c0.4,0.3,0.5,0.2,1,0.7c0.1-0.8,0.9-0.9,0.9-1.6
		C35.1,7.2,32.5,7.2,31.2,6.5z"/>
	<path class="st0" d="M29.1,8.9c-0.1,0.4-0.7,0.1-0.7,0.4c0,0.5,0.5,0.7,1,0.9c0.8-0.4,2-0.6,2.8-0.3C32.3,7.9,30,6.5,29.1,8.9z"/>
	<path class="st0" d="M34.7,13.2c2.9,0,2.3-3.5,4.5-4.3C36.1,8.4,35,10.8,34.7,13.2z"/>
	<path class="st0" d="M37.2,8.5c1.1-0.3,1.8-2.9,1-3.6C38.5,6.4,36.8,6.7,37.2,8.5z"/>
	<path class="st0" d="M31.6,11.3c0.9-0.2,1.4,0,1.9,0.4c-0.5-1.7-4.1-1.9-5.6-0.2C29.8,10.8,30.7,11.5,31.6,11.3z"/>
	<path class="st0" d="M31.5,11.9c-1.1,0.1-1.5-0.5-2.2-0.2c1.1,0.1,1.7,1.3,2.7,1.5c0.5,0.1,1.3,0.1,1.9,0
		C33.6,12.3,32.4,11.9,31.5,11.9z"/>
	<path class="st0" d="M42.8,8c0.1-0.8,1-1.3,1.8-1.5c0.1-0.3,0-0.9,0.3-1.1c0.9-0.4,0.3-0.8,0.9-1.1c0.8,0.4,2,0,2.3,0.8
		c0.1-0.5,0.3-0.7,1-1c-0.8-1.1-3.4-0.4-4.3-0.9c-0.5-0.3-0.6,0.9-1.1,1.1c-0.1,0.3,0.3,0.6,0,0.7C42.5,5,41.4,7.9,42.8,8z"/>
	<path class="st0" d="M48.4,6.7c0.2,0.8,1.4,1,1.6,2c-0.1-1.9,2.3-2.9,1.1-4.6C49.7,4.6,47.9,5,48.4,6.7z"/>
	<path class="st0" d="M47.4,6.5c0.7-0.3,0.2-1.2-0.2-1.3C47,5.1,46.7,5,46.6,5.3C47.1,5.4,47.5,5.7,47.4,6.5z"/>
	<path class="st0" d="M45.7,5.7c0,0.2-0.4,0.2-0.2,0.4c0.3,0.3,0.9,0.3,1.4,0.4c0.1-0.6-0.3-0.8-0.6-1c0,0.3,0.2,0.3,0.1,0.7
		C46.2,6,46.1,5.7,45.7,5.7z"/>
	<path class="st0" d="M45.2,6.5c0,0.2-0.1,0.4,0,0.6c0.4,0.8,2.2,0.8,1.9,3.1c0.4,0.3,0.5,0.2,1,0.7C48.3,10.1,49,10,49,9.3
		C49,7.1,46.4,7.2,45.2,6.5z"/>
	<path class="st0" d="M43.1,8.8c-0.1,0.4-0.7,0.1-0.7,0.4c0,0.5,0.5,0.7,1,0.9c0.8-0.4,2-0.6,2.8-0.3C46.2,7.9,43.9,6.5,43.1,8.8z"
		/>
	<path class="st0" d="M48.7,13.2c2.9,0,2.3-3.5,4.5-4.3C50.1,8.4,49,10.8,48.7,13.2z"/>
	<path class="st0" d="M51.1,8.5c1.1-0.3,1.8-2.9,1-3.6C52.4,6.4,50.7,6.6,51.1,8.5z"/>
	<path class="st0" d="M45.5,11.3c0.9-0.2,1.4,0,1.9,0.4c-0.5-1.7-4.1-1.9-5.6-0.2C43.7,10.8,44.7,11.5,45.5,11.3z"/>
	<path class="st0" d="M45.5,11.9c-1.1,0.1-1.5-0.5-2.2-0.2c1.1,0.1,1.7,1.3,2.7,1.5c0.5,0.1,1.3,0.1,1.9,0
		C47.6,12.2,46.3,11.9,45.5,11.9z"/>
</g>
<g>
	<g>
		<path class="st1" d="M80.1,8.1c0.8,0,1.7-0.1,2-0.1c0.4,0,0.7-0.3,1.1-0.7c0.2-0.3,0.4-0.7,0.5-1.1c0-0.1,0.1-0.2,0.2-0.2l0.5,0
			c0.1,0,0.1,0.1,0.1,0.1c0,0.4,0,2.1,0,2.4c0,0.7,0.1,1.7,0.1,2.2c0,0.1,0,0.1-0.1,0.2l-0.5,0.1c-0.1,0-0.1,0-0.2-0.2
			c0-0.2-0.3-0.8-0.4-1c-0.2-0.4-0.6-0.7-1-0.8c-0.7-0.1-1.4-0.1-2.2-0.1l0,0.8c0,0.6,0,4.1,0,4.4c0,0.6,0.2,0.7,0.5,0.7l1.2,0
			c0.1,0,0.2,0,0.2,0.1v0.6c0,0.1,0,0.2-0.2,0.2c-0.2,0-1-0.1-3.2-0.1c-2,0-2.8,0.1-3.1,0.1c-0.1,0-0.1,0-0.1-0.2v-0.6
			c0-0.1,0.1-0.1,0.1-0.1l0.7,0c0.4,0,0.6-0.1,0.6-0.4c0-0.4,0.1-3,0.1-6.6l0-1.4c0-0.9,0-3.8,0-4c0-0.4-0.3-0.6-0.8-0.6l-0.8,0
			c-0.1,0-0.2,0-0.2-0.1l0-0.6c0-0.1,0.1-0.1,0.1-0.1c0.2,0,1,0.1,3.5,0.1c0.3,0,5.7-0.1,6.7-0.1c0.5,0,0.9-0.1,1.1-0.1
			c0.1,0,0.2,0.1,0.2,0.4l0.8,3.4c0,0.1,0,0.1-0.1,0.2l-0.4,0.2c-0.1,0-0.1,0-0.3-0.2c-0.3-0.4-0.8-1-1.6-1.9
			c-0.4-0.4-0.9-0.8-1.4-0.9c-0.5-0.1-2.7-0.2-3.6-0.2c0,0.3,0,4.4,0,5.6V8.1z"/>
		<path class="st1" d="M91.8,9.7c-0.2,0.4-1.2,3.3-1.2,3.9c0,0.5,0.2,1,0.8,0.9l0.7,0c0.2,0,0.2,0.1,0.2,0.2l0,0.5
			c0,0.2,0,0.2-0.2,0.2c-0.3,0-1.1-0.1-2.8-0.1c-1.5,0-2,0.1-2.3,0.1c-0.1,0-0.1-0.1-0.1-0.3l0-0.4c0-0.1,0-0.2,0.1-0.2h0.5
			c0.5,0,1-0.3,1.4-0.9c0.3-0.4,1.8-4,2.4-5.9c0.2-0.4,1.8-4.9,2-5.4c0.1-0.2,0.2-0.5,0-0.7c-0.1-0.1-0.1-0.2-0.1-0.3
			c0-0.1,0-0.1,0.2-0.2c0.7-0.1,2-0.7,2.3-1C96,0.1,96.1,0,96.2,0c0.1,0,0.2,0.1,0.2,0.4c0.4,1.3,2,5.9,2.4,7.3
			c0.5,1.6,1.8,5.5,2.1,6c0.4,0.7,0.9,0.9,1.2,0.9l0.7,0c0.1,0,0.1,0.1,0.1,0.2v0.4c0,0.1,0,0.3-0.2,0.3c-0.4,0-0.8-0.1-3.5-0.1
			c-1.7,0-2.4,0.1-2.9,0.1c-0.2,0-0.2-0.1-0.2-0.3v-0.4c0-0.1,0-0.2,0.1-0.2h0.6c0.6,0,0.7-0.2,0.6-0.7c-0.2-0.7-1-3.4-1.2-4.1
			L91.8,9.7z M96.1,8.8c-0.2-0.6-1.4-5-1.6-5.5c-0.1-0.3-0.1-0.5-0.2-0.5c-0.1,0-0.2,0.1-0.2,0.3c-0.1,0.3-1.9,5.1-2,5.7L96.1,8.8z"
			/>
		<path class="st1" d="M107.5,6.7c0-0.5-0.1-4.2-0.1-4.5c0-0.5-0.2-0.7-0.7-0.7l-1,0c-0.1,0-0.2,0-0.2-0.1V0.8
			c0-0.1,0.1-0.1,0.1-0.1c0.2,0,1.3,0.1,3.3,0.1c2.1,0,2.8-0.1,3.1-0.1c0.1,0,0.1,0.1,0.1,0.2l0,0.5c0,0.1-0.1,0.1-0.2,0.1h-0.6
			c-0.5,0-0.8,0.2-0.8,0.5c0,0.2-0.1,4.8-0.1,5l0,1.6c0,0.2,0.1,5,0.1,5.2c0,0.6,0.3,0.7,0.7,0.7h0.8c0.1,0,0.2,0,0.2,0.1l0,0.6
			c0,0.1-0.1,0.1-0.2,0.1c-0.2,0-1.1-0.1-3-0.1c-2.2,0-3.1,0.1-3.3,0.1c-0.1,0-0.2,0-0.2-0.2v-0.6c0-0.1,0.1-0.1,0.2-0.1l0.6,0
			c0.4,0,0.8-0.1,0.9-0.6c0-0.3,0.1-4.8,0.1-5.9L107.5,6.7z"/>
		<path class="st1" d="M117.2,5.9c0-1.5,0-2.9,0-3.4c0-0.7-0.3-1-0.6-1l-0.8,0c-0.1,0-0.1-0.1-0.1-0.1V0.8c0-0.1,0-0.1,0.1-0.1
			c0.2,0,0.8,0.1,3.1,0.1c1.2,0,3-0.1,3.8-0.1c1.6,0,2.8,0.6,3.7,1.4c0.7,0.7,1.2,1.5,1.2,2.3c0,2.6-2,3.8-3.8,4v0.1
			c0.6,0.2,1,0.6,1.4,1.1c0.3,0.3,1.4,2.2,1.6,2.4c0.1,0.2,1.2,1.8,1.7,2.2c0.2,0.3,1,0.4,1.5,0.4c0.1,0,0.2,0.1,0.2,0.2v0.5
			c0,0.1,0,0.2-0.2,0.2c-0.2,0-0.7-0.1-2.3-0.1c-0.6,0-1.4,0-2,0.1c-0.6-0.5-1.9-2.9-2.3-3.6c-0.7-1.4-1.6-2.9-2.5-2.9h-0.7l0,1.1
			c0,1.2,0.1,3.5,0.1,3.8c0,0.4,0.2,0.8,0.5,0.8l0.8,0c0.1,0,0.2,0.1,0.2,0.2l0,0.5c0,0.1,0,0.2-0.3,0.2c0,0-0.5-0.1-2.7-0.1
			c-2.2,0-2.7,0.1-2.9,0.1c-0.2,0-0.2-0.1-0.2-0.2l0-0.5c0-0.1,0-0.2,0.1-0.2h0.6c0.5,0,0.8-0.1,0.8-0.7c0-2,0-4,0-6L117.2,5.9z
			 M120.1,8.1c0.4,0,0.6,0,0.8,0c2.7,0,3.4-2.6,3.4-3.6c0-1-0.3-1.9-0.8-2.3c-0.7-0.7-1.7-0.9-2.3-0.9c-0.4,0-0.6,0-0.8,0.2
			c-0.1,0.1-0.2,0.3-0.2,0.6L120.1,8.1z"/>
		<path class="st1" d="M137.5,8.8c0,0.4,0,4.8,0.1,5.6l1.2,0c1,0,1.9,0,3-0.1c1.1-0.1,2.5-2.6,2.8-3.4c0.1-0.1,0.1-0.2,0.2-0.1
			l0.4,0.2c0.1,0,0.1,0.1,0,0.2c-0.1,0.1-0.9,3.6-1,4.1c-0.5,0-6.5-0.1-8.4-0.1c-2,0-2.8,0.1-3.1,0.1c-0.1,0-0.2,0-0.2-0.2l0-0.5
			c0-0.1,0-0.1,0.1-0.1h0.6c0.8,0,0.9-0.3,0.9-0.5c0-0.4,0.1-5.5,0.1-6.8l0-1.2c0-1.3,0-3.5-0.1-3.8c0-0.5-0.1-0.7-0.6-0.7l-0.8,0
			c-0.1,0-0.1-0.1-0.1-0.2V0.8c0-0.1,0-0.1,0.1-0.1c0.2,0,1,0.1,2.9,0.1c2.4,0,3.3-0.1,3.5-0.1c0.2,0,0.2,0.1,0.2,0.2l0,0.5
			c0,0.1,0,0.2-0.2,0.2l-1,0c-0.6,0-0.7,0.2-0.7,0.8c0,0.3-0.1,3.4-0.1,4.8L137.5,8.8z"/>
		<path class="st1" d="M152.7,7.4c1,0,1.9-0.1,2.1-0.1c0.4-0.1,0.6-0.3,1-0.6c0.2-0.3,0.5-0.9,0.5-1.3c0-0.1,0.1-0.2,0.2-0.2
			l0.6,0.1c0.1,0,0.2,0,0.2,0.2C157,5.7,157,6.8,157,7.5c0,0.9,0.1,1.9,0.1,2.4c0,0.1-0.1,0.1-0.2,0.2l-0.5,0.1
			c-0.1,0-0.1,0-0.2-0.2c-0.1-0.3-0.3-0.8-0.4-1.1c-0.2-0.4-0.7-0.7-1.1-0.7c-0.6-0.1-1.2-0.1-2.1-0.1v1.2c0,1.1,0.1,3.1,0.1,3.5
			c0,1.1,0.2,1.4,0.5,1.6c0.3,0.1,0.7,0.2,1.7,0.2c0.4,0,1.2,0,1.7-0.1c0.4,0,1-0.2,1.6-0.7c0.5-0.4,1.7-1.7,2.1-2.2
			c0.1-0.1,0.1-0.1,0.2-0.1l0.4,0.2c0.1,0,0.1,0.1,0.1,0.2L160,15c-0.1,0.2-0.2,0.3-0.5,0.3c-0.1,0-0.6,0-1.9,0c-1.3,0-3.5,0-7.1,0
			c-0.8,0-1.3,0-1.8,0c-0.4,0-0.7,0-0.9,0c-0.1,0-0.2-0.1-0.2-0.2v-0.4c0-0.1,0.1-0.2,0.2-0.2l0.6,0c1,0,1-0.1,1-0.9l0-6.9
			c0-1.7,0-4.3-0.1-4.5c-0.1-0.7-0.3-0.8-0.8-0.8l-0.8,0c-0.1,0-0.1-0.1-0.1-0.2l0-0.5c0-0.1,0-0.1,0.1-0.1c0.5,0,1.2,0.1,3.1,0.1
			l7.3,0c0.3,0,0.7,0,0.8,0s0.1,0,0.2,0.1c0.1,0.3,0.8,3.1,0.9,3.3c0,0.1,0,0.1-0.1,0.2l-0.3,0.2c-0.1,0-0.2,0-0.2-0.1
			c-0.1-0.2-2-2-2.4-2.3c-0.4-0.3-1-0.5-1.6-0.6l-2.7-0.1L152.7,7.4z"/>
		<path class="st1" d="M165.4,6.6c0-0.5-0.1-4.2-0.1-4.5c0-0.5-0.2-0.7-0.7-0.7l-1,0c-0.1,0-0.2,0-0.2-0.1V0.7
			c0-0.1,0.1-0.1,0.1-0.1c0.2,0,1.3,0.1,3.3,0.1c2.1,0,2.8-0.1,3.1-0.1c0.1,0,0.1,0.1,0.1,0.2v0.5c0,0.1-0.1,0.1-0.2,0.1l-0.6,0
			c-0.5,0-0.8,0.2-0.8,0.5c0,0.2-0.1,4.8-0.1,5l0,1.6c0,0.2,0.1,5,0.1,5.2c0,0.6,0.3,0.7,0.7,0.7l0.8,0c0.1,0,0.2,0,0.2,0.1v0.6
			c0,0.1-0.1,0.1-0.2,0.1c-0.2,0-1.1-0.1-3-0.1c-2.2,0-3.1,0.1-3.3,0.1c-0.1,0-0.2,0-0.2-0.2v-0.6c0-0.1,0.1-0.1,0.2-0.1h0.6
			c0.4,0,0.8-0.1,0.9-0.6c0-0.3,0.1-4.8,0.1-5.9L165.4,6.6z"/>
		<path class="st1" d="M187.4,13.3c0,0.3,0.1,0.5,0.1,0.7c0,0.2-0.1,0.2-0.3,0.3c-1.7,0.8-3.4,1.3-6.1,1.3c-2.2,0-4.6-0.7-6-2.4
			c-1.3-1.4-1.9-3.2-1.9-5.7c0-1.9,0.9-3.9,2.4-5.2c1.5-1.3,3.4-2,5.8-2c2.1,0,3.6,0.6,4.3,1c0.2,0.1,0.4,0.1,0.5-0.1l0.2-0.3
			c0.1-0.1,0.1-0.2,0.3-0.2c0.2,0,0.3,0.1,0.3,0.4l0.3,4.3c0,0.2,0,0.4-0.1,0.4l-0.6,0.1c-0.1,0-0.2,0-0.2-0.2c-0.3-1-1-2.3-1.9-3.1
			c-0.8-0.8-1.9-1.3-3.3-1.3c-1.1,0-2.1,0.4-3.1,1.6c-1,1.1-1.7,2.9-1.6,4.7c0,2.4,0.7,4.6,1.8,5.7c1,1,1.8,1.4,3.2,1.4
			c1.1,0,1.7-0.1,2.3-0.4c0.4-0.2,0.5-0.9,0.5-1.9l0-1.5c0-0.7-0.2-1-0.7-1h-0.9c-0.1,0-0.1-0.1-0.1-0.2V9.1c0-0.1,0-0.1,0.1-0.1
			c0.2,0,1.2,0.1,3.1,0.1c1.9,0,2.7-0.1,2.8-0.1c0.2,0,0.2,0.1,0.2,0.2l0,0.5c0,0.1,0,0.2-0.1,0.2H188c-0.4,0-0.6,0.1-0.6,0.7
			L187.4,13.3z"/>
		<path class="st1" d="M193.1,7.1c0-1.3,0-4.1,0-4.4c0-1.1-0.1-1.3-0.7-1.3l-0.8,0c-0.2,0-0.2-0.1-0.2-0.2V0.8c0-0.1,0-0.2,0.2-0.2
			c0.4,0,1,0.1,3.1,0.1c2,0,2.8-0.1,3.1-0.1c0.2,0,0.2,0.1,0.2,0.2v0.4c0,0.1,0,0.2-0.2,0.2l-0.5,0c-0.7,0-0.8,0.4-0.9,1.1
			c0,0.3-0.1,3-0.1,4.2V7c0,0.1,0.1,0.2,0.3,0.2l6.2,0c0.3,0,0.4,0,0.4-0.3V6.7c0-1.2-0.1-4.1-0.1-4.3c0-0.7-0.1-1.1-0.5-1.1l-0.8,0
			c-0.2,0-0.2-0.1-0.2-0.2l0-0.5c0-0.1,0-0.2,0.2-0.2c0.4,0,1.3,0.1,3,0.1c1.7,0,2.6-0.1,2.9-0.1c0.2,0,0.3,0.1,0.3,0.2v0.4
			c0,0.1,0,0.2-0.3,0.2l-0.6,0c-0.6,0-0.7,0.4-0.7,1.1c0,0.3,0,3.8,0,4.5v0.7c0,0.7,0,4.6,0.1,5.7c0,0.7,0.2,1,0.8,1l0.7,0
			c0.2,0,0.2,0.1,0.2,0.2l0,0.5c0,0.1,0,0.2-0.2,0.2c-0.3,0-1-0.1-2.9-0.1c-2.1,0-2.8,0.1-3.2,0.1c-0.2,0-0.3-0.1-0.3-0.2l0-0.5
			c0-0.1,0-0.2,0.2-0.2l0.9,0c0.5,0,0.6-0.4,0.6-0.9c0-1,0.1-4.3,0.1-5V8.3c0-0.2-0.2-0.2-0.5-0.2l-6.2,0c-0.2,0-0.3,0.1-0.3,0.2
			v0.3c0,0.5,0.1,3.7,0.1,5.1c0,0.5,0.2,0.7,0.7,0.7h0.6c0.2,0,0.2,0,0.2,0.2l0,0.5c0,0.1,0,0.2-0.2,0.2c-0.4,0-1.1-0.1-2.8-0.1
			c-2.2,0-2.8,0.1-3.2,0.1c-0.2,0-0.2-0.1-0.2-0.2l0-0.4c0-0.1,0-0.2,0.2-0.2l1,0c0.5,0,0.6-0.5,0.6-1c0-1,0.1-5,0.1-5.5L193.1,7.1z
			"/>
	</g>
	<g>
		<path class="st1" d="M77.3,29.4c0-0.5-0.1-3.5-0.1-3.8c-0.1-0.5-0.3-0.6-0.7-0.6l-1,0c-0.1,0-0.2,0-0.2-0.1l0-0.6
			c0-0.1,0.1-0.1,0.1-0.1c0.3,0,1.2,0.1,3.2,0.1c0.5,0,2.6-0.1,3.1-0.1c2.8,0,5,0.2,7,1.9c1.4,1.1,2.3,2.9,2.3,5.2
			c0,2.4-0.7,4-2,5.4c-2,2.2-5.5,2.2-6.8,2.2c-0.3,0-2.8-0.1-3.9-0.1c-1.8,0-2.6,0.1-2.9,0.1c-0.1,0-0.1,0-0.1-0.2v-0.5
			c0-0.1,0.1-0.1,0.2-0.1l1.1,0c0.4,0,0.6-0.2,0.7-0.5c0.1-0.4,0.1-5.1,0.1-6.7L77.3,29.4z M80.5,31.4c0,0.3,0,3.8,0,5.1
			c0,0.4,0.1,0.7,0.4,1.1c0.2,0.4,1,0.5,1.7,0.5c1.2,0,2.8-0.6,3.9-2c0.8-1.1,1.5-2.8,1.5-4.7c0-1.7-0.7-3.4-1.7-4.5
			C85.1,25.7,83.2,25,82,25c-0.6,0-0.9,0-1.2,0.2c-0.3,0.1-0.4,0.5-0.4,0.9c0,0.9,0,3.6,0,3.9L80.5,31.4z"/>
		<path class="st1" d="M95.1,30.2c0-0.5-0.1-4.2-0.1-4.5c0-0.5-0.2-0.7-0.7-0.7l-1,0c-0.1,0-0.2,0-0.2-0.1l0-0.6
			c0-0.1,0.1-0.1,0.1-0.1c0.2,0,1.3,0.1,3.3,0.1c2.1,0,2.8-0.1,3.1-0.1c0.1,0,0.1,0.1,0.1,0.2v0.5c0,0.1-0.1,0.1-0.2,0.1l-0.6,0
			c-0.5,0-0.8,0.2-0.8,0.5c0,0.2-0.1,4.8-0.1,5l0,1.6c0,0.2,0.1,5,0.1,5.2c0,0.6,0.3,0.7,0.7,0.7l0.8,0c0.1,0,0.2,0,0.2,0.1v0.6
			c0,0.1-0.1,0.1-0.2,0.1c-0.2,0-1.1-0.1-3-0.1c-2.2,0-3.1,0.1-3.3,0.1c-0.1,0-0.2,0-0.2-0.2l0-0.6c0-0.1,0.1-0.1,0.2-0.1h0.6
			c0.4,0,0.8-0.1,0.9-0.6c0-0.3,0.1-4.8,0.1-5.9V30.2z"/>
		<path class="st1" d="M104.5,37.3c-1.5-1.4-2.3-3.7-2.3-5.5c0-2.1,0.7-4.1,2.1-5.6c1.2-1.3,2.9-2.2,5.5-2.2c1.9,0,3.4,0.5,4.2,0.9
			c0.3,0.1,0.4,0.1,0.4,0l0.2-0.5c0-0.1,0.1-0.1,0.4-0.1c0.3,0,0.4,0,0.4,0.3c0,0.4,0.4,3.9,0.5,4.5c0,0.1,0,0.2-0.1,0.3l-0.5,0.1
			c-0.1,0-0.2,0-0.2-0.2c-0.2-0.8-0.8-1.9-1.7-2.8c-0.9-0.9-2-1.5-3.6-1.5c-3,0-4.3,2.8-4.3,5.8c0,1.3,0.4,3.8,1.8,5.4
			c1.3,1.4,2.5,1.5,3.2,1.5c2.4,0,4.1-1.1,4.9-2.2c0.1-0.2,0.2-0.2,0.3-0.2l0.4,0.3c0.1,0,0.1,0.1,0,0.2c-1.2,1.7-3.2,3.4-6.1,3.4
			C107.3,39.2,105.8,38.5,104.5,37.3z"/>
		<path class="st1" d="M122.9,30.9l0.4,0c0.2,0,0.4-0.1,0.6-0.3c0.4-0.3,3.7-4.5,4-4.9c0.4-0.5,0-0.8-0.4-0.8l-0.4,0
			c-0.1,0-0.1,0-0.1-0.1l0-0.5c0-0.1,0-0.1,0.1-0.1c0.2,0,1.1,0.1,2.7,0.1c1,0,1.7-0.1,2-0.1c0.1,0,0.1,0,0.1,0.1l0,0.6
			c0,0.1-0.1,0.1-0.2,0.1l-0.3,0c-0.3,0-0.8,0.1-1.2,0.4c-1.1,0.7-3.8,3.8-4.5,4.7c1.3,1.7,4.7,6.4,5.6,7.5c0.4,0.5,0.9,0.5,1.1,0.5
			l0.2,0c0.1,0,0.1,0.1,0.1,0.1l0,0.6c0,0.1,0,0.1-0.2,0.1c-0.2,0-0.9-0.1-3-0.1c-1.7,0-2.5,0.1-2.8,0.1c-0.1,0-0.1,0-0.1-0.2v-0.5
			c0-0.1,0-0.1,0.1-0.1h0.3c0.4,0,0.4-0.4,0.3-0.5c-0.2-0.4-3.4-5.2-3.7-5.6c-0.1-0.1-0.3-0.3-0.6-0.3l-0.3,0l0,1.5
			c0,1,0,4.1,0.1,4.4c0,0.3,0.2,0.5,0.5,0.5l0.6,0c0.1,0,0.2,0,0.2,0.1l0,0.6c0,0.1,0,0.1-0.1,0.1c-0.2,0-0.9-0.1-2.8-0.1
			c-1.9,0-2.6,0.1-2.8,0.1c-0.1,0-0.1,0-0.1-0.1v-0.6c0-0.1,0.1-0.1,0.1-0.1l0.6,0c0.4,0,0.5-0.2,0.6-0.4c0-0.2,0.1-3.9,0.1-6.5
			l0-1.2c0-0.4-0.1-4.3-0.1-4.5c0-0.2-0.1-0.5-0.6-0.5l-0.5,0c-0.1,0-0.2,0-0.2-0.1l0-0.6c0-0.1,0-0.1,0.2-0.1
			c0.2,0,0.9,0.1,2.7,0.1c1.8,0,2.5-0.1,2.8-0.1c0.1,0,0.2,0,0.2,0.2v0.5c0,0.1,0,0.1-0.1,0.1l-0.5,0c-0.4,0-0.7,0.1-0.7,0.6
			c0,0.3-0.1,3.5-0.1,4.5L122.9,30.9z"/>
		<path class="st1" d="M136.7,30.2c0-0.5-0.1-4.2-0.1-4.5c0-0.5-0.2-0.7-0.7-0.7l-1,0c-0.1,0-0.2,0-0.2-0.1l0-0.6
			c0-0.1,0.1-0.1,0.1-0.1c0.2,0,1.3,0.1,3.3,0.1c2.1,0,2.8-0.1,3.1-0.1c0.1,0,0.1,0.1,0.1,0.2v0.5c0,0.1-0.1,0.1-0.2,0.1l-0.6,0
			c-0.5,0-0.8,0.2-0.8,0.5c0,0.2-0.1,4.8-0.1,5l0,1.6c0,0.2,0.1,5,0.1,5.2c0,0.6,0.3,0.7,0.7,0.7l0.8,0c0.1,0,0.2,0,0.2,0.1v0.6
			c0,0.1-0.1,0.1-0.2,0.1c-0.2,0-1.1-0.1-3-0.1c-2.2,0-3.1,0.1-3.3,0.1c-0.1,0-0.2,0-0.2-0.2l0-0.6c0-0.1,0.1-0.1,0.2-0.1h0.6
			c0.4,0,0.8-0.1,0.9-0.6c0-0.3,0.1-4.8,0.1-5.9V30.2z"/>
		<path class="st1" d="M157.2,32.8c0-1.8,0-2.9-0.1-3.9c0-0.8-0.1-2.8-0.2-3.1c-0.1-0.5-0.6-0.8-1.1-0.8h-0.7
			c-0.1,0-0.1-0.1-0.1-0.2v-0.5c0-0.1,0-0.1,0.2-0.1c0.2,0,0.9,0.1,2.4,0.1c1.2,0,1.7-0.1,2-0.1c0.2,0,0.2,0,0.2,0.2l0,0.5
			c0,0.1,0,0.2-0.1,0.2l-0.6,0c-0.4,0-0.6,0.4-0.6,1.1c-0.1,1.4-0.5,6.1-0.5,8.8l0,3.5c0,0.3,0,0.7-0.3,0.7c-0.3,0-0.6-0.1-0.8-0.3
			c-0.4-0.3-1.4-1.4-2.6-2.9c-1.5-1.8-3.1-3.7-3.5-4.2c-0.4-0.4-3.2-4-3.7-4.6H147l0,4.2c0,1.7,0.2,4.3,0.2,5c0,1.2,0.4,1.8,1.3,1.8
			l0.5,0c0.1,0,0.2,0.1,0.2,0.2l0,0.5c0,0.1,0,0.2-0.2,0.2c-0.2,0-1.4-0.1-2.4-0.1c-0.6,0-2.1,0.1-2.3,0.1c-0.1,0-0.1,0-0.1-0.2
			v-0.5c0-0.1,0-0.1,0.1-0.1h0.7c0.5,0,0.8-0.7,0.9-2c0-0.4,0.2-3.7,0.2-6.8l0-1.9c0-1.2-0.7-2.4-1.8-2.4l-0.5,0
			c-0.1,0-0.1-0.1-0.1-0.1v-0.6c0-0.1,0-0.1,0.1-0.1c0.1,0,0.3,0,0.7,0c0.4,0,1.1,0,2.2,0c0.7,0,1.3,0,1.6,0c0.3,0,0.4,0.1,0.6,0.3
			c0.1,0.1,4.2,5.1,4.8,5.9c0.3,0.4,3.3,4.1,3.5,4.4h0.1L157.2,32.8z"/>
		<path class="st1" d="M163.2,34.3c0.1,0,0.1,0,0.1,0.2c0,0.6,0.3,1.5,0.8,2.3c0.6,1,1.6,1.4,2.6,1.4c1,0,2.6-0.7,2.6-2.3
			c0-1.7-0.3-2.2-3-3.2c-0.6-0.2-1.9-0.9-3-1.8c-0.7-0.6-1-1.7-1-2.9c0-1.3,0.3-2.1,1.5-3c0.9-0.7,1.7-1,3-1c1.5,0,2.3,0.2,2.7,0.4
			c0.2,0.1,0.4,0,0.5-0.1l0.3-0.3c0.1-0.1,0.2-0.1,0.3-0.1c0.1,0,0.2,0.2,0.2,0.4l0.3,3.5c0,0.1,0,0.1-0.1,0.1l-0.5,0.1
			c-0.1,0-0.2,0-0.3-0.1c-0.2-0.6-0.6-1.4-1.3-2.1c-0.5-0.6-1.1-0.9-2.1-0.9c-1.5,0-2.2,1.3-2.2,1.9c0,0.8,0,1.4,0.5,1.9
			c0.5,0.6,1.7,1.1,2.7,1.3c1,0.3,1.8,0.8,2.6,1.6c0.8,0.7,1.1,1.6,1.1,3.1c0,2.5-1.8,4.6-4.5,4.6c-1.9,0-2.8-0.3-3.7-0.9
			c-0.2-0.2-0.4-0.2-0.5-0.2c-0.1,0-0.2,0.1-0.3,0.4c-0.1,0.2-0.2,0.2-0.4,0.2c-0.2,0-0.3-0.1-0.3-0.3l0.3-3.9
			c0-0.1,0.1-0.1,0.2-0.1L163.2,34.3z"/>
		<path class="st1" d="M177.5,37.8c-1.5-0.9-3-3.1-3-6.1c0-1.3,0.3-3.2,1.9-5.1c1.8-2.2,4.2-2.6,6-2.6c1.7,0,3.3,0.3,5,1.6
			c1.6,1.2,2.8,3.3,2.8,6.2c0,1.5-0.5,3.1-1.5,4.5c-1.3,1.7-3.1,2.9-6.4,2.9C181,39.1,179.2,38.8,177.5,37.8z M187.1,31.9
			c0-4.5-3-7-4.7-7c-0.4,0-1.4-0.1-2.7,1.1c-1.2,1.2-1.8,3.3-1.8,5c0,5.3,3,7.2,4.8,7.2C186.4,38.2,187.1,33.6,187.1,31.9z"/>
		<path class="st1" d="M205.4,32.8c0-1.8,0-2.9-0.1-3.9c0-0.8-0.1-2.8-0.2-3.1c-0.1-0.5-0.6-0.8-1.1-0.8l-0.7,0
			c-0.1,0-0.1-0.1-0.1-0.2v-0.5c0-0.1,0-0.1,0.2-0.1c0.2,0,0.9,0.1,2.4,0.1c1.2,0,1.7-0.1,2-0.1c0.2,0,0.2,0,0.2,0.2l0,0.5
			c0,0.1,0,0.2-0.1,0.2h-0.6c-0.4,0-0.6,0.4-0.6,1.1c-0.1,1.4-0.5,6.1-0.5,8.8l0,3.5c0,0.3,0,0.7-0.3,0.7c-0.3,0-0.6-0.1-0.8-0.3
			c-0.4-0.3-1.4-1.4-2.6-2.9c-1.5-1.8-3.1-3.7-3.5-4.2c-0.4-0.4-3.2-4-3.7-4.6h-0.2l0,4.2c0,1.7,0.2,4.3,0.2,5
			c0,1.2,0.4,1.8,1.3,1.8h0.5c0.1,0,0.2,0.1,0.2,0.2l0,0.5c0,0.1,0,0.2-0.2,0.2c-0.2,0-1.4-0.1-2.4-0.1c-0.6,0-2.1,0.1-2.3,0.1
			c-0.1,0-0.1,0-0.1-0.2v-0.5c0-0.1,0-0.1,0.1-0.1h0.7c0.5,0,0.8-0.7,0.9-2c0-0.4,0.2-3.7,0.2-6.8l0-1.9c0-1.2-0.7-2.4-1.8-2.4
			l-0.5,0c-0.1,0-0.1-0.1-0.1-0.1v-0.6c0-0.1,0-0.1,0.1-0.1c0.1,0,0.3,0,0.7,0c0.4,0,1.1,0,2.2,0c0.7,0,1.3,0,1.6,0
			c0.3,0,0.4,0.1,0.6,0.3c0.1,0.1,4.2,5.1,4.8,5.9c0.3,0.4,3.3,4.1,3.5,4.4h0.1L205.4,32.8z"/>
	</g>
	<g>
		<path class="st1" d="M77.2,49c0-0.5-0.1-0.7-0.4-0.7h-0.6c-0.1,0-0.1,0-0.1-0.1v-0.3c0-0.1,0-0.1,0.1-0.1c0.1,0,0.8,0,2.2,0
			c1.2,0,1.8,0,2,0c0.1,0,0.1,0,0.1,0.1v0.4c0,0.1,0,0.1-0.1,0.1l-0.5,0c-0.5,0-0.7,0.3-0.7,0.5c0,0.1,0,1.1,0,1.8l0,0.9
			c0,0.7,0.1,2.4,0.1,2.9c0,0.6,0.1,1.2,0.4,1.6c0.4,0.5,1.1,0.8,1.7,0.8c0.5,0,1.2-0.3,1.6-0.6c0.5-0.5,0.8-1.2,0.8-2.2l0-2.1
			c0-1.1-0.1-2.6-0.2-2.9c-0.1-0.4-0.3-0.6-0.5-0.6h-0.4c-0.1,0-0.1,0-0.1-0.1v-0.4c0-0.1,0-0.1,0.1-0.1c0.1,0,0.8,0,1.7,0
			c0.7,0,1.2,0,1.3,0c0.1,0,0.1,0.1,0.1,0.1v0.3c0,0.1,0,0.1-0.1,0.1l-0.4,0c-0.5,0-0.6,0.4-0.6,0.5c0,0.2,0,2.1,0,2.2
			c0,0.2,0,2.6-0.1,3.1c-0.1,1.1-0.4,2-1.1,2.6c-0.6,0.5-1.5,0.8-2.4,0.8c-0.6,0-1.5-0.1-2.1-0.3c-0.6-0.3-1.2-0.9-1.6-1.8
			c-0.2-0.6-0.3-1.5-0.3-3.3L77.2,49z"/>
		<path class="st1" d="M99.8,53.4c0-1.2,0-1.9,0-2.5c0-0.5-0.1-1.8-0.1-2.1c-0.1-0.3-0.4-0.5-0.7-0.5h-0.4c-0.1,0-0.1,0-0.1-0.1
			v-0.3c0-0.1,0-0.1,0.1-0.1c0.1,0,0.6,0,1.6,0c0.8,0,1.1,0,1.3,0c0.1,0,0.1,0,0.1,0.1v0.3c0,0.1,0,0.1-0.1,0.1h-0.4
			c-0.2,0-0.4,0.2-0.4,0.7c-0.1,0.9-0.3,4-0.3,5.7l0,2.3c0,0.2,0,0.4-0.2,0.4c-0.2,0-0.4-0.1-0.5-0.2c-0.2-0.2-0.9-0.9-1.7-1.9
			c-1-1.1-2.1-2.4-2.3-2.7c-0.2-0.3-2.1-2.6-2.4-3l-0.1,0l0,2.7c0,1.1,0.1,2.8,0.1,3.3c0,0.8,0.3,1.2,0.8,1.2l0.3,0
			c0.1,0,0.1,0,0.1,0.1v0.3c0,0.1,0,0.1-0.1,0.1c-0.1,0-0.9,0-1.6,0c-0.4,0-1.3,0-1.5,0c-0.1,0-0.1,0-0.1-0.1v-0.4
			c0,0,0-0.1,0.1-0.1h0.5c0.3,0,0.5-0.4,0.6-1.3c0-0.3,0.1-2.4,0.1-4.4l0-1.2c0-0.8-0.5-1.6-1.2-1.6l-0.3,0c-0.1,0-0.1-0.1-0.1-0.1
			v-0.4c0-0.1,0-0.1,0.1-0.1c0.1,0,0.2,0,0.4,0c0.3,0,0.7,0,1.4,0c0.5,0,0.9,0,1,0c0.2,0,0.3,0.1,0.4,0.2c0.1,0.1,2.7,3.3,3.1,3.8
			c0.2,0.2,2.2,2.7,2.3,2.9h0.1L99.8,53.4z"/>
		<path class="st1" d="M108.4,51.7c0-0.3,0-2.8-0.1-2.9c0-0.3-0.2-0.5-0.4-0.5h-0.6c-0.1,0-0.1,0-0.1-0.1v-0.4c0-0.1,0-0.1,0.1-0.1
			c0.2,0,0.9,0,2.2,0c1.4,0,1.8,0,2,0c0.1,0,0.1,0,0.1,0.1v0.3c0,0.1,0,0.1-0.1,0.1l-0.4,0c-0.3,0-0.5,0.1-0.5,0.4
			c0,0.1,0,3.1,0,3.3l0,1c0,0.1,0,3.3,0,3.4c0,0.4,0.2,0.5,0.5,0.5l0.6,0c0.1,0,0.1,0,0.1,0.1v0.4c0,0.1,0,0.1-0.1,0.1
			c-0.2,0-0.7,0-2,0c-1.4,0-2,0-2.1,0c-0.1,0-0.1,0-0.1-0.1v-0.4c0-0.1,0-0.1,0.1-0.1h0.4c0.3,0,0.6,0,0.6-0.4
			c0-0.2,0.1-3.1,0.1-3.8L108.4,51.7z"/>
		<path class="st1" d="M123.4,47.8C123.4,47.8,123.4,47.7,123.4,47.8c0.2-0.1,0.8-0.1,1.7-0.1c1.3,0,1.6,0,1.7,0
			c0.1,0,0.1,0,0.1,0.1v0.3c0,0.1,0,0.1-0.1,0.1h-0.3c-0.2,0-0.6,0.1-1,0.7c-0.5,0.9-1.1,2.5-1.6,3.6c-0.3,0.7-1.9,4.3-2.1,4.7
			c-0.1,0.2-0.2,0.2-0.3,0.2c-0.2,0-0.2-0.2-0.3-0.3c-0.5-1.1-1.7-4.3-2.1-5.3c-0.4-0.9-1.1-2.9-1.2-3.3c-0.1-0.3-0.3-0.4-0.6-0.4
			h-0.4c-0.1,0-0.1-0.1-0.1-0.1v-0.3c0-0.1,0-0.1,0.1-0.1c0.1,0,0.6,0,2.2,0c1.4,0,2,0,2.1,0c0.1,0,0.1,0,0.1,0.1v0.3
			c0,0.1,0,0.1-0.1,0.1l-0.6,0c-0.3,0-0.6,0.1-0.6,0.3c0,0.1,0,0.3,0,0.5c0.1,0.5,0.6,2.1,0.9,2.9c0.2,0.5,0.9,2.5,1,3h0.1
			c0.4-0.9,1.1-2.6,1.2-3.1c0.3-0.7,0.7-1.8,0.9-2.4c0.1-0.4,0.1-0.6,0.1-0.7c0-0.2-0.2-0.4-0.6-0.4h-0.4c-0.1,0-0.1,0-0.1-0.1V47.8
			z"/>
		<path class="st1" d="M135.2,52.2c0.6,0,1.2,0,1.4-0.1c0.2-0.1,0.4-0.2,0.6-0.4c0.1-0.2,0.3-0.6,0.3-0.8c0-0.1,0-0.1,0.1-0.1l0.4,0
			c0.1,0,0.1,0,0.1,0.1c0,0.2,0,0.9,0,1.4c0,0.6,0.1,1.3,0.1,1.5c0,0.1,0,0.1-0.1,0.1l-0.3,0.1c-0.1,0-0.1,0-0.1-0.1
			c-0.1-0.2-0.2-0.5-0.3-0.7c-0.1-0.3-0.5-0.4-0.7-0.5c-0.4-0.1-0.8-0.1-1.4-0.1l0,0.8c0,0.7,0.1,2,0.1,2.3c0,0.7,0.1,0.9,0.3,1
			c0.2,0.1,0.5,0.1,1.1,0.1c0.2,0,0.8,0,1.1,0c0.3,0,0.7-0.2,1-0.4c0.3-0.3,1.1-1.1,1.4-1.4c0.1-0.1,0.1-0.1,0.1,0l0.2,0.1
			c0.1,0,0.1,0.1,0.1,0.1l-0.6,2c0,0.1-0.1,0.2-0.3,0.2c-0.1,0-0.4,0-1.2,0c-0.9,0-2.3,0-4.6,0c-0.5,0-0.9,0-1.1,0
			c-0.3,0-0.5,0-0.6,0c-0.1,0-0.1,0-0.1-0.1v-0.3c0-0.1,0-0.1,0.1-0.1h0.4c0.6,0,0.7-0.1,0.7-0.6l0-4.5c0-1.1,0-2.8,0-2.9
			c-0.1-0.4-0.2-0.5-0.6-0.5l-0.5,0c-0.1,0-0.1,0-0.1-0.1v-0.3c0,0,0-0.1,0.1-0.1c0.3,0,0.8,0,2,0l4.7,0c0.2,0,0.5,0,0.5,0
			c0.1,0,0.1,0,0.1,0.1c0.1,0.2,0.5,2,0.6,2.2c0,0.1,0,0.1,0,0.1l-0.2,0.1c-0.1,0-0.1,0-0.2-0.1c-0.1-0.1-1.3-1.3-1.6-1.5
			c-0.3-0.2-0.7-0.4-1-0.4l-1.8-0.1L135.2,52.2z"/>
		<path class="st1" d="M147,51.2c0-1,0-1.9,0-2.2c0-0.4-0.2-0.7-0.4-0.7l-0.5,0c-0.1,0-0.1,0-0.1-0.1v-0.4c0-0.1,0-0.1,0.1-0.1
			c0.1,0,0.5,0,2,0c0.8,0,1.9,0,2.5,0c1.1,0,1.8,0.4,2.4,0.9c0.5,0.4,0.8,1,0.8,1.5c0,1.7-1.3,2.5-2.5,2.6v0.1
			c0.4,0.1,0.6,0.4,0.9,0.7c0.2,0.2,0.9,1.4,1,1.6c0.1,0.1,0.8,1.1,1.1,1.5c0.2,0.2,0.7,0.3,1,0.3c0.1,0,0.1,0.1,0.1,0.1v0.3
			c0,0.1,0,0.1-0.1,0.1c-0.1,0-0.5,0-1.5,0c-0.4,0-0.9,0-1.3,0c-0.4-0.3-1.2-1.9-1.5-2.3c-0.5-0.9-1-1.9-1.7-1.9h-0.5l0,0.7
			c0,0.8,0,2.3,0.1,2.5c0,0.3,0.1,0.5,0.3,0.5l0.6,0c0.1,0,0.1,0,0.1,0.1v0.3c0,0.1,0,0.1-0.2,0.1c0,0-0.4,0-1.8,0
			c-1.4,0-1.7,0-1.9,0c-0.1,0-0.1,0-0.1-0.1v-0.3c0-0.1,0-0.1,0.1-0.1l0.4,0c0.3,0,0.5-0.1,0.5-0.4c0-1.3,0-2.6,0-3.9L147,51.2z
			 M148.9,52.6c0.3,0,0.4,0,0.5,0c1.8,0,2.2-1.7,2.2-2.3c0-0.6-0.2-1.2-0.5-1.5c-0.5-0.4-1.1-0.6-1.5-0.6c-0.2,0-0.4,0-0.5,0.1
			c-0.1,0.1-0.1,0.2-0.1,0.4L148.9,52.6z"/>
		<path class="st1" d="M161.5,54.3c0.1,0,0.1,0,0.1,0.1c0,0.4,0.2,1,0.5,1.5c0.4,0.6,1.1,0.9,1.7,0.9c0.6,0,1.7-0.4,1.7-1.5
			c0-1.1-0.2-1.4-2-2.1c-0.4-0.1-1.3-0.6-2-1.2c-0.5-0.4-0.7-1.1-0.7-1.9c0-0.8,0.2-1.4,1-2c0.6-0.5,1.1-0.6,1.9-0.7
			c1,0,1.5,0.2,1.8,0.3c0.1,0.1,0.2,0,0.3-0.1l0.2-0.2c0.1-0.1,0.1-0.1,0.2-0.1c0.1,0,0.1,0.1,0.1,0.2l0.2,2.3c0,0.1,0,0.1-0.1,0.1
			l-0.3,0.1c-0.1,0-0.1,0-0.2-0.1c-0.1-0.4-0.4-0.9-0.8-1.4c-0.3-0.4-0.7-0.6-1.4-0.6c-1,0-1.4,0.9-1.4,1.2c0,0.5,0,0.9,0.4,1.2
			c0.4,0.4,1.1,0.7,1.8,0.9c0.6,0.2,1.2,0.5,1.7,1c0.5,0.5,0.7,1.1,0.7,2c0,1.6-1.2,3-3,3c-1.2,0-1.9-0.2-2.4-0.6
			c-0.2-0.1-0.2-0.1-0.3-0.1c-0.1,0-0.1,0.1-0.2,0.2c-0.1,0.1-0.1,0.2-0.2,0.2c-0.1,0-0.2-0.1-0.2-0.2l0.2-2.6
			c0-0.1,0.1-0.1,0.1-0.1L161.5,54.3z"/>
		<path class="st1" d="M174,51.6c0-0.3,0-2.8-0.1-2.9c0-0.3-0.2-0.5-0.4-0.5l-0.6,0c-0.1,0-0.1,0-0.1-0.1v-0.4c0-0.1,0-0.1,0.1-0.1
			c0.2,0,0.9,0,2.2,0c1.4,0,1.8,0,2,0c0.1,0,0.1,0,0.1,0.1v0.3c0,0.1,0,0.1-0.1,0.1h-0.4c-0.3,0-0.5,0.1-0.5,0.4c0,0.1,0,3.1,0,3.3
			l0,1c0,0.1,0,3.3,0,3.4c0,0.4,0.2,0.5,0.5,0.5h0.6c0.1,0,0.1,0,0.1,0.1v0.4c0,0.1,0,0.1-0.1,0.1c-0.2,0-0.7,0-2,0
			c-1.4,0-2,0-2.1,0c-0.1,0-0.1,0-0.1-0.1v-0.4c0-0.1,0-0.1,0.1-0.1l0.4,0c0.3,0,0.6,0,0.6-0.4c0-0.2,0.1-3.1,0.1-3.8V51.6z"/>
		<path class="st1" d="M186.3,48.3l-0.5,0c-0.4,0-1.2,0-1.8,0.2c-0.3,0.2-0.9,1-1.2,1.5c0,0.1-0.1,0.1-0.1,0.1l-0.3-0.1
			c-0.1,0-0.1-0.1-0.1-0.1c0.1-0.6,0.6-2.4,0.6-2.6c0-0.2,0.1-0.2,0.2-0.2c0.1,0,0.1,0.1,0.3,0.2c0.1,0.2,0.4,0.3,0.9,0.3
			c0.7,0,1.3,0.1,2.7,0.1h0.8c1.5,0,2.1-0.1,2.6-0.1c0.3,0,0.8-0.2,1-0.3c0.1-0.1,0.2-0.2,0.3-0.2c0.1,0,0.1,0.1,0.2,0.2
			c0,0.3,0.3,2,0.4,2.7c0,0.1,0,0.1-0.1,0.1l-0.3,0.1c-0.1,0-0.1,0-0.1-0.1c-0.3-0.5-0.8-1.2-1.2-1.5c-0.3-0.2-1.5-0.3-1.8-0.3h-0.4
			l0,3.7c0,0.2,0,4,0,4.2c0,0.3,0.1,0.5,0.5,0.5l0.6,0c0.1,0,0.1,0,0.1,0.1v0.3c0,0.1,0,0.1-0.1,0.1c-0.1,0-0.6,0-2.1,0
			c-1.4,0-2,0-2.2,0c-0.1,0-0.1-0.1-0.1-0.2v-0.3c0-0.1,0-0.1,0.1-0.1h0.7c0.3,0,0.4-0.2,0.5-0.4c0-0.3,0-4.4,0-4.7L186.3,48.3z"/>
		<path class="st1" d="M202.7,54.8c0,0.5,0,1.4,0.1,1.5c0,0.4,0.2,0.5,0.5,0.5h0.4c0.1,0,0.1,0,0.1,0.1v0.3c0,0.1,0,0.1-0.1,0.1
			c-0.2,0-0.7,0-2,0c-1.4,0-1.8,0-2,0c-0.1,0-0.1,0-0.1-0.1v-0.3c0-0.1,0-0.1,0.1-0.1l0.5,0c0.4,0,0.5-0.1,0.5-0.3
			c0-0.2,0-1.3,0-2.5v-0.6c-0.2-0.4-2.4-4.4-2.7-4.8c-0.2-0.2-0.5-0.3-0.7-0.3h-0.2c-0.1,0-0.1,0-0.1-0.1v-0.4c0-0.1,0-0.1,0.1-0.1
			c0.1,0,0.8,0,2,0c1.4,0,1.9,0,2,0c0.1,0,0.1,0,0.1,0.1v0.3c0,0.1,0,0.1-0.1,0.1l-0.3,0c-0.2,0-0.3,0.1-0.3,0.4
			c0,0.2,1.6,3.3,2,4.1c0.4-0.7,2-3.6,2-4c0-0.2-0.2-0.5-0.5-0.5h-0.4c-0.1,0-0.1,0-0.1-0.1v-0.4c0-0.1,0-0.1,0.1-0.1
			c0.1,0,0.7,0,1.7,0c0.9,0,1.2,0,1.4,0c0.1,0,0.1,0,0.1,0.1v0.3c0,0.1,0,0.1-0.1,0.1h-0.2c-0.2,0-0.6,0.1-0.8,0.3
			c-0.2,0.2-2.3,3.7-2.8,4.7L202.7,54.8z"/>
	</g>
</g>
</svg>
