<?xml version="1.0" encoding="UTF-8"?> <svg xmlns="http://www.w3.org/2000/svg" id="Layer_1" version="1.1" viewBox="0 0 432 130.5"><defs><style> .st0 { fill: #a4daf6; } .st1 { fill: #005687; } .st2 { fill: #0084ad; } .st3 { fill: #00b1e1; } </style></defs><path class="st1" d="M144.3,9.7v18.6c0,1.7.4,3.1,1.2,4,.8.9,2,1.4,3.7,1.4s2.9-.5,3.7-1.4,1.2-2.3,1.2-4V9.7h8.9v18.6c0,2.9-.6,5.4-1.9,7.5-1.2,2.1-2.9,3.6-5.1,4.7-2.1,1-4.5,1.6-7.1,1.6s-4.9-.5-7-1.6c-2.1-1-3.7-2.6-4.8-4.7s-1.8-4.6-1.8-7.6V9.7h9Z"></path><path class="st1" d="M190.7,19c1.7,2,2.6,4.6,2.6,7.9v14.9h-8.9v-13.7c0-1.5-.4-2.6-1.1-3.4-.8-.8-1.8-1.2-3-1.2s-2.4.4-3.1,1.2-1.1,2-1.1,3.4v13.7h-8.9v-25.5h8.9v3.6c.8-1.2,1.8-2.1,3.2-2.8,1.3-.7,2.9-1.1,4.6-1.1,2.9,0,5.3,1,7,2.9h-.2Z"></path><path class="st1" d="M197.1,12.6c-1-.9-1.4-1.9-1.4-3.2s.5-2.4,1.4-3.3c1-.9,2.2-1.3,3.8-1.3s2.8.4,3.7,1.3,1.4,2,1.4,3.3-.5,2.4-1.4,3.2c-1,.9-2.2,1.3-3.7,1.3s-2.8-.4-3.8-1.3ZM205.3,16.3v25.5h-8.9v-25.5h8.9Z"></path><path class="st1" d="M222.6,33.4l4.8-17.1h9.5l-8.8,25.5h-11.1l-8.8-25.5h9.5l4.9,17.1h0Z"></path><path class="st1" d="M263.2,30.8h-16.9c0,1.4.5,2.4,1.2,3.1.7.7,1.5,1,2.6,1s2.5-.7,3.2-2h9.5c-.4,1.8-1.2,3.3-2.3,4.7s-2.6,2.5-4.3,3.2c-1.7.8-3.6,1.2-5.7,1.2s-4.8-.5-6.7-1.6-3.5-2.6-4.6-4.6-1.7-4.3-1.7-7,.5-5,1.6-6.9c1.1-2,2.6-3.5,4.6-4.5,2-1.1,4.2-1.6,6.8-1.6s4.7.5,6.7,1.5c1.9,1,3.5,2.5,4.6,4.4s1.6,4.2,1.6,6.8,0,1.4-.1,2.1h0v.2ZM254.3,26.5c0-1.1-.4-1.9-1.1-2.6-.7-.6-1.6-.9-2.7-.9s-2,.3-2.7.9-1.2,1.5-1.4,2.6h7.9Z"></path><path class="st1" d="M278.6,17.3c1.4-.8,3-1.3,4.6-1.3v9.5h-2.5c-1.9,0-3.4.4-4.3,1.1-.9.8-1.4,2.1-1.4,4v11.1h-8.9v-25.5h8.9v4.5c1-1.5,2.2-2.6,3.6-3.5h0Z"></path><path class="st1" d="M290.2,40.9c-1.8-.8-3.2-1.8-4.3-3.2s-1.6-2.9-1.8-4.6h8.6c.1.8.5,1.5,1.1,1.9.6.5,1.4.7,2.4.7s1.3,0,1.7-.5c.4-.3.6-.7.6-1.2s-.4-1.1-1-1.4c-.7-.3-1.8-.6-3.5-1-1.8-.4-3.3-.8-4.6-1.2s-2.3-1.2-3.2-2.2c-.9-1-1.3-2.4-1.3-4.2s.4-2.9,1.2-4.1,2-2.2,3.6-2.9c1.6-.7,3.5-1.1,5.8-1.1,3.3,0,6,.8,7.9,2.5,1.9,1.6,3,3.8,3.3,6.5h-8.1c-.1-.8-.5-1.4-1.1-1.9-.6-.4-1.3-.7-2.3-.7s-1.3.1-1.7.4c-.4.3-.6.7-.6,1.1s.4,1.1,1,1.4c.7.3,1.8.6,3.4,1,1.8.4,3.4.8,4.6,1.3s2.3,1.3,3.2,2.3c.9,1.1,1.4,2.5,1.4,4.4s-.4,2.8-1.3,4-2.1,2.1-3.7,2.8-3.5,1-5.6,1-4.4-.4-6.2-1.2h.5Z"></path><path class="st1" d="M311.1,12.6c-1-.9-1.4-1.9-1.4-3.2s.5-2.4,1.4-3.3c1-.9,2.2-1.3,3.8-1.3s2.8.4,3.7,1.3,1.4,2,1.4,3.3-.5,2.4-1.4,3.2c-1,.9-2.2,1.3-3.7,1.3s-2.8-.4-3.8-1.3ZM319.3,16.3v25.5h-8.9v-25.5h8.9Z"></path><path class="st1" d="M338.6,34.2v7.6h-3.9c-6.5,0-9.8-3.2-9.8-9.7v-8.4h-3.1v-7.4h3.1v-6.2h9v6.2h4.6v7.4h-4.6v8.5c0,.7.2,1.2.5,1.5s.9.5,1.6.5h2.6,0Z"></path><path class="st1" d="M370.1,16.3l-14.8,33.8h-9.7l4.7-9.4-10.5-24.4h9.9l5.4,14.5,5.2-14.5s9.8,0,9.8,0Z"></path><path class="st1" d="M384.3,40.5c-2-1.1-3.6-2.6-4.8-4.6-1.2-2-1.7-4.3-1.7-7s.6-4.9,1.8-6.9c1.2-2,2.8-3.5,4.8-4.6s4.3-1.6,6.8-1.6,4.8.5,6.8,1.6,3.6,2.6,4.8,4.6,1.8,4.3,1.8,6.9-.6,4.9-1.8,6.9c-1.2,2-2.8,3.5-4.8,4.6s-4.3,1.6-6.9,1.6-4.8-.5-6.8-1.6h0ZM394.3,33c.8-.9,1.2-2.3,1.2-4s-.4-3-1.2-4-1.9-1.4-3.1-1.4-2.2.5-3,1.4-1.2,2.2-1.2,4,.4,3.1,1.2,4c.8.9,1.8,1.4,3,1.4s2.3-.5,3.1-1.4h0Z"></path><path class="st1" d="M421.1,23.7h-4v18.1h-9v-18.1h-2.8v-7.4h2.8v-.2c0-3.3,1-5.8,2.9-7.5s4.7-2.6,8.3-2.6,1.3,0,1.7,0v7.6h-1c-1,0-1.7.2-2.1.7-.5.4-.7,1.1-.8,2.1h4v7.4h0Z"></path><path class="st1" d="M165.2,83.6h-8.9l-11.9-17.9v17.9h-8.9v-32.1h8.9l11.9,18.1v-18.1h8.9v32.1Z"></path><path class="st1" d="M170.1,54.4c-1-.9-1.4-1.9-1.4-3.2s.5-2.4,1.4-3.3c1-.9,2.2-1.3,3.8-1.3s2.8.4,3.7,1.3,1.4,2,1.4,3.3-.5,2.4-1.4,3.2c-1,.9-2.2,1.3-3.7,1.3s-2.8-.4-3.8-1.3ZM178.3,58.1v25.5h-8.9v-25.5h8.9Z"></path><path class="st1" d="M182.5,63.9c1-2,2.3-3.5,3.9-4.6,1.7-1.1,3.5-1.6,5.5-1.6s3.3.4,4.6,1c1.3.7,2.3,1.6,3,2.8v-3.5h8.9v25.5h-8.9v-3.5c-.7,1.2-1.7,2.1-3,2.8-1.3.7-2.8,1-4.5,1s-3.9-.5-5.5-1.6c-1.7-1.1-3-2.6-3.9-4.6s-1.4-4.3-1.4-6.9.5-4.9,1.4-6.9h-.1ZM198.1,67c-.9-.9-2-1.4-3.3-1.4s-2.4.5-3.3,1.4c-.9.9-1.3,2.2-1.3,3.9s.4,2.9,1.3,3.9c.9,1,2,1.4,3.3,1.4s2.4-.5,3.3-1.4,1.3-2.2,1.3-3.9-.4-2.9-1.3-3.9Z"></path><path class="st1" d="M226.5,58.8c1.3.7,2.3,1.6,3,2.8v-3.5h8.9v25.2c0,2.4-.5,4.6-1.4,6.5s-2.3,3.5-4.3,4.6-4.4,1.7-7.3,1.7-7.1-.9-9.5-2.8c-2.4-1.8-3.7-4.4-4-7.6h8.8c.2.8.6,1.5,1.4,1.9s1.7.7,2.8.7c3,0,4.6-1.7,4.6-5.1v-3.3c-.7,1.2-1.7,2.1-3,2.8-1.3.7-2.8,1-4.5,1s-3.9-.5-5.5-1.6c-1.7-1.1-3-2.6-3.9-4.6s-1.4-4.3-1.4-6.9.5-4.9,1.4-6.9c1-2,2.3-3.5,3.9-4.6,1.7-1.1,3.5-1.6,5.5-1.6s3.2.4,4.5,1h0v.3ZM228.1,67c-.9-.9-2-1.4-3.3-1.4s-2.4.5-3.3,1.4c-.9.9-1.3,2.2-1.3,3.9s.4,2.9,1.3,3.9c.9,1,2,1.4,3.3,1.4s2.4-.5,3.3-1.4,1.3-2.2,1.3-3.9-.4-2.9-1.3-3.9Z"></path><path class="st1" d="M242.5,63.9c1-2,2.3-3.5,3.9-4.6,1.7-1.1,3.5-1.6,5.5-1.6s3.3.4,4.6,1c1.3.6,2.3,1.6,3,2.8v-3.5h8.9v25.5h-8.9v-3.5c-.7,1.2-1.7,2.1-3,2.8-1.3.7-2.8,1-4.5,1s-3.9-.5-5.5-1.6c-1.7-1.1-3-2.6-3.9-4.6s-1.4-4.3-1.4-6.9.5-4.9,1.4-6.9h-.1ZM258.1,67c-.9-.9-2-1.4-3.3-1.4s-2.4.5-3.3,1.4c-.9.9-1.3,2.2-1.3,3.9s.4,2.9,1.3,3.9,2,1.4,3.3,1.4,2.4-.5,3.3-1.4,1.3-2.2,1.3-3.9-.4-2.9-1.3-3.9Z"></path><path class="st1" d="M285.1,59.2c1.4-.8,3-1.3,4.6-1.3v9.5h-2.5c-1.9,0-3.4.4-4.3,1.1-.9.8-1.4,2.1-1.4,4v11.1h-8.9v-25.5h8.9v4.5c1-1.5,2.2-2.6,3.6-3.5h0Z"></path><path class="st1" d="M292.8,63.9c1-2,2.3-3.5,3.9-4.6,1.7-1.1,3.5-1.6,5.5-1.6s3.3.4,4.6,1,2.3,1.6,3,2.8v-3.5h8.9v25.5h-8.9v-3.5c-.7,1.2-1.7,2.1-3,2.8-1.3.7-2.8,1-4.5,1s-3.9-.5-5.5-1.6c-1.7-1.1-3-2.6-3.9-4.6s-1.4-4.3-1.4-6.9.5-4.9,1.4-6.9h-.1ZM308.4,67c-.9-.9-2-1.4-3.3-1.4s-2.4.5-3.3,1.4-1.3,2.2-1.3,3.9.4,2.9,1.3,3.9,2,1.4,3.3,1.4,2.4-.5,3.3-1.4,1.3-2.2,1.3-3.9-.4-2.9-1.3-3.9Z"></path><path class="st1" d="M352.4,51.6v7.1h-12.8v5.6h9.5v6.8h-9.5v12.6h-8.9v-32.1h21.7,0Z"></path><path class="st1" d="M354.3,63.9c1-2,2.3-3.5,3.9-4.6,1.7-1.1,3.5-1.6,5.5-1.6s3.3.4,4.6,1,2.3,1.6,3,2.8v-3.5h8.9v25.5h-8.9v-3.5c-.7,1.2-1.7,2.1-3,2.8-1.3.7-2.8,1-4.5,1s-3.9-.5-5.5-1.6c-1.7-1.1-3-2.6-3.9-4.6s-1.4-4.3-1.4-6.9.5-4.9,1.4-6.9h-.1ZM369.9,67c-.9-.9-2-1.4-3.3-1.4s-2.4.5-3.3,1.4-1.3,2.2-1.3,3.9.4,2.9,1.3,3.9,2,1.4,3.3,1.4,2.4-.5,3.3-1.4,1.3-2.2,1.3-3.9-.4-2.9-1.3-3.9Z"></path><path class="st1" d="M393.3,50v33.6h-8.9v-33.6h8.9Z"></path><path class="st1" d="M406.4,50v33.6h-8.9v-33.6h8.9Z"></path><path class="st1" d="M415.3,82.8c-1.8-.8-3.2-1.8-4.3-3.2-1-1.3-1.6-2.9-1.8-4.6h8.6c.1.8.5,1.5,1.1,1.9.6.5,1.4.7,2.4.7s1.3,0,1.7-.5c.4-.3.6-.7.6-1.2s-.4-1.1-1-1.4c-.7-.3-1.8-.6-3.5-1-1.8-.4-3.3-.8-4.6-1.2s-2.3-1.2-3.2-2.2c-.9-1-1.3-2.4-1.3-4.2s.4-2.9,1.2-4.1,2-2.2,3.6-2.9,3.5-1.1,5.8-1.1c3.3,0,6,.8,7.9,2.5,1.9,1.6,3,3.8,3.3,6.5h-8.1c-.1-.8-.5-1.4-1.1-1.9-.6-.4-1.3-.7-2.3-.7s-1.3,0-1.7.4c-.4.3-.6.7-.6,1.1s.4,1.1,1,1.4c.7.3,1.8.6,3.4,1,1.8.4,3.4.8,4.6,1.3s2.3,1.3,3.2,2.3c.9,1.1,1.4,2.5,1.4,4.4s-.4,2.8-1.3,4-2.1,2.1-3.7,2.8-3.5,1-5.6,1-4.4-.4-6.2-1.2h.5Z"></path><path class="st3" d="M136.4,100.9c1.3-2.5,3.2-4.4,5.6-5.8,2.4-1.4,5.2-2.1,8.4-2.1s7.4,1.1,10.1,3.2,4.5,5,5.3,8.7h-9.6c-.6-1.2-1.4-2.1-2.4-2.8-1-.6-2.2-1-3.5-1-2.1,0-3.7.7-4.9,2.2s-1.8,3.4-1.8,5.9.6,4.5,1.8,5.9,2.9,2.2,4.9,2.2,2.5-.3,3.5-1c1-.6,1.8-1.6,2.4-2.8h9.6c-.8,3.7-2.5,6.6-5.3,8.7-2.7,2.1-6.1,3.2-10.1,3.2s-5.9-.7-8.4-2.1c-2.4-1.4-4.3-3.3-5.6-5.8s-2-5.3-2-8.5.7-6,2-8.4h0v.3Z"></path><path class="st3" d="M169.1,105.8c1-2,2.3-3.5,3.9-4.6,1.7-1.1,3.5-1.6,5.5-1.6s3.3.4,4.6,1c1.3.7,2.3,1.6,3,2.8v-3.5h8.9v25.5h-8.9v-3.5c-.7,1.2-1.7,2.1-3,2.8-1.3.7-2.8,1-4.5,1s-3.9-.5-5.5-1.6c-1.7-1.1-3-2.6-3.9-4.6s-1.4-4.3-1.4-6.9.5-4.9,1.4-6.9h-.1ZM184.7,108.8c-.9-.9-2-1.4-3.3-1.4s-2.4.5-3.3,1.4c-.9.9-1.3,2.2-1.3,3.9s.4,2.9,1.3,3.9c.9,1,2,1.4,3.3,1.4s2.4-.5,3.3-1.4,1.3-2.2,1.3-3.9-.4-2.9-1.3-3.9h0Z"></path><path class="st3" d="M222.8,102.6c1.7,2,2.6,4.6,2.6,7.9v14.9h-8.9v-13.7c0-1.5-.4-2.6-1.1-3.4-.8-.8-1.8-1.2-3-1.2s-2.4.4-3.1,1.2-1.1,2-1.1,3.4v13.7h-8.9v-25.5h8.9v3.6c.8-1.2,1.8-2.1,3.2-2.8s2.9-1.1,4.6-1.1c2.9,0,5.3,1,7,2.9h-.2Z"></path><path class="st3" d="M229.4,105.8c1-2,2.3-3.5,3.9-4.6,1.7-1.1,3.5-1.6,5.5-1.6s3.3.4,4.6,1,2.3,1.6,3,2.8v-3.5h8.9v25.5h-8.9v-3.5c-.7,1.2-1.7,2.1-3,2.8-1.3.7-2.8,1-4.5,1s-3.9-.5-5.5-1.6c-1.7-1.1-3-2.6-3.9-4.6s-1.4-4.3-1.4-6.9.5-4.9,1.4-6.9h-.1ZM245,108.8c-.9-.9-2-1.4-3.3-1.4s-2.4.5-3.3,1.4c-.9.9-1.3,2.2-1.3,3.9s.4,2.9,1.3,3.9c.9,1,2,1.4,3.3,1.4s2.4-.5,3.3-1.4,1.3-2.2,1.3-3.9-.4-2.9-1.3-3.9h0Z"></path><path class="st3" d="M259.4,105.8c1-2,2.3-3.5,3.9-4.6,1.7-1.1,3.5-1.6,5.5-1.6s3.1.3,4.4,1,2.3,1.6,3,2.8v-11.6h9v33.6h-9v-3.5c-.7,1.2-1.7,2.1-3,2.8s-2.8,1-4.5,1-3.9-.5-5.5-1.6c-1.7-1.1-3-2.6-3.9-4.6s-1.4-4.3-1.4-6.9.5-4.9,1.4-6.9h.1ZM275,108.8c-.9-.9-2-1.4-3.3-1.4s-2.4.5-3.3,1.4-1.3,2.2-1.3,3.9.4,2.9,1.3,3.9,2,1.4,3.3,1.4,2.4-.5,3.3-1.4,1.3-2.2,1.3-3.9-.4-2.9-1.3-3.9h0Z"></path><path class="st3" d="M289.4,105.8c1-2,2.3-3.5,3.9-4.6,1.7-1.1,3.5-1.6,5.5-1.6s3.3.4,4.6,1,2.3,1.6,3,2.8v-3.5h8.9v25.5h-8.9v-3.5c-.7,1.2-1.7,2.1-3,2.8-1.3.7-2.8,1-4.5,1s-3.9-.5-5.5-1.6c-1.7-1.1-3-2.6-3.9-4.6s-1.4-4.3-1.4-6.9.5-4.9,1.4-6.9h-.1ZM305,108.8c-.9-.9-2-1.4-3.3-1.4s-2.4.5-3.3,1.4-1.3,2.2-1.3,3.9.4,2.9,1.3,3.9,2,1.4,3.3,1.4,2.4-.5,3.3-1.4,1.3-2.2,1.3-3.9-.4-2.9-1.3-3.9h0Z"></path><g><path class="st3" d="M95.9,105.9c-27.4-2-49.1-24.9-49.1-52.8V0h-12.4v59.2c0,26.6,21.6,48.2,48.2,48.2h2.5c4,0,7.9-.5,11.5-1.4h-.7Z"></path><path class="st2" d="M65.3,116.8h2.5c7.6,0,21.1-4.9,21.1-4.9,0,0-2.6.2-3.9.2h-2.5c-29.2,0-52.9-23.7-52.9-52.9V0h-12.5v68.6c0,26.6,21.6,48.2,48.2,48.2h0Z"></path><path class="st1" d="M67.8,121.6h-2.5c-29.2,0-52.9-23.7-52.9-52.9V0H0v79.9c0,27.8,22.7,50.6,50.6,50.6h6.8c11.4-.9,30-12.5,30-12.5,0,0-12.6,3.8-19.5,3.8h0v-.2Z"></path><path class="st0" d="M51.6,0v53.1c0,26.6,21.6,48.2,48.2,48.2h.6c3.6-7.1,5.6-15.2,5.6-23.7V0h-4.8v77.5c0,7-1.5,13.6-4.2,19.6-19.3-7.2-33.1-25.7-33.1-47.4V0h-12.4,0Z"></path></g></svg> 