<svg xmlns="http://www.w3.org/2000/svg" width="128" height="37"><path d="M43.5 1.3H52v1.8h-3.2v7h-2v-7h-3.2V1.3Zm13.6 8.9c-3 0-5-1.8-5-4.5s2-4.6 5-4.6 5 1.8 5 4.6-2 4.5-5 4.5Zm0-1.8c2.1 0 2.9-.8 2.9-2.7S59.2 3 57.1 3s-2.9.8-2.9 2.7.8 2.7 2.9 2.7Zm14.7 1.7h-2.4L67.7 7h-2.3v3.1h-2V1.3h5.1c2 0 3.2 1 3.2 2.9s-.8 2.5-2.2 2.8l.9 1 1.5 2.2ZM68.2 3h-2.8v2.3h2.8c.9 0 1.3-.4 1.3-1.2s-.4-1.2-1.3-1.2Zm13.2 7.1H79L77.3 7H75v3.1h-2V1.3h5.1c2 0 3.2 1 3.2 2.9s-.8 2.5-2.2 2.8l.9 1 1.5 2.2ZM77.8 3H75v2.3h2.8c.9 0 1.3-.4 1.3-1.2s-.4-1.2-1.3-1.2Zm12.4-1.7v1.8h-5.6v1.8H90v1.7h-5.4v1.8h5.6v1.8h-7.5V1.3h7.5Zm8.5 6.2V1.3h2v8.8h-2.4l-4.1-5.4-.6-1.2v6.6h-2V1.3h2.5l3.9 5 .7 1.2Zm7.5 2.7c-2.3 0-4-.8-4.3-2.8l2-.5c.2 1.3.7 1.7 2.3 1.7s1.9-.3 1.9-1-.5-.7-1.5-.9l-1.8-.3c-1.6-.2-2.6-1.1-2.6-2.7S103.5 1 106 1s3.8.7 4 2.7l-1.9.5c-.1-1.2-.5-1.5-2.2-1.5s-1.8.3-1.8 1 .7.9 1.6 1l1.7.2c1.8.2 2.7 1.2 2.7 2.4s-1.3 2.9-3.9 2.9ZM48.5 23c-2.8 0-4.5-1.3-4.5-3.8v-5.1h2v5.3c0 1.5.6 1.9 2.4 1.9s2.4-.4 2.4-1.9v-5.3h2v5.1c0 2.5-1.7 3.8-4.5 3.8Zm13.2-2.8V14h2v8.8h-2.4l-4.1-5.4-.6-1.2v6.6h-2V14h2.5l3.9 5 .7 1.2Zm5.8 2.6h-2.1V14h2.1v8.8Zm6.7-3.9 2.1-4.9h2.2l-3.8 8.8h-2.5L68.3 14h2.2l2.1 4.9.8 2.2.8-2.2ZM86.9 14v1.8h-5.6v1.8h5.4v1.7h-5.4v1.8h5.6v1.8h-7.5v-8.8h7.5Zm9.9 8.8h-2.4l-1.7-3.1h-2.3v3.1h-2V14h5.1c2 0 3.2 1 3.2 2.9s-.8 2.5-2.2 2.8l.9 1 1.5 2.2Zm-3.6-7.1h-2.8V18h2.8c.9 0 1.3-.4 1.3-1.2s-.4-1.2-1.3-1.2Zm8.4 7.3c-2.3 0-4-.8-4.3-2.8l2-.5c.2 1.3.7 1.7 2.3 1.7s1.9-.3 1.9-1-.5-.7-1.5-.9l-1.8-.3c-1.6-.2-2.6-1.1-2.6-2.7s1.3-2.7 3.8-2.7 3.8.7 4 2.7l-1.9.5c-.1-1.2-.5-1.5-2.2-1.5s-1.8.3-1.8 1 .7.9 1.6 1l1.7.2c1.8.2 2.7 1.2 2.7 2.4s-1.3 2.9-3.9 2.9Zm7.3-.2h-2.1V14h2.1v8.8ZM110 14h8.5v1.8h-3.2v7h-2v-7h-3.2V14Zm13.3 3.8 2.4-3.8h2.3l-3.7 5.7v3.1h-2v-3.1l-3.7-5.7h2.3l2.4 3.8ZM53.5 35.6h-2.1l-.8-1.9h-4.5l-.8 1.9h-2.1l3.8-8.8h2.8l3.8 8.8Zm-5.7-5.8-.9 2.1h3l-.9-2.1-.6-1.6-.6 1.6Zm10.5 5.9c-2.8 0-4.5-1.3-4.5-3.8v-5.1h2v5.3c0 1.5.6 1.9 2.4 1.9s2.4-.4 2.4-1.9v-5.3h2v5.1c0 2.5-1.7 3.8-4.5 3.8Zm9.8 0c-2.3 0-4-.8-4.3-2.8l2-.5c.2 1.3.7 1.7 2.3 1.7s1.9-.3 1.9-1-.5-.7-1.5-.9l-1.8-.3c-1.6-.2-2.6-1.1-2.6-2.7s1.3-2.7 3.8-2.7 3.8.7 4 2.7l-1.9.5c-.1-1.2-.5-1.5-2.2-1.5s-1.8.3-1.8 1 .7.9 1.6 1l1.7.2c1.8.2 2.7 1.2 2.7 2.4s-1.3 2.9-3.9 2.9Zm4.3-9h8.5v1.8h-3.2v7h-2v-7h-3.2v-1.8Zm18 8.9H88l-1.7-3.1H84v3.1h-2v-8.8h5.1c2 0 3.2 1 3.2 2.9s-.8 2.5-2.2 2.8l.9 1 1.5 2.2Zm-3.7-7.1h-2.8v2.3h2.8c.9 0 1.3-.4 1.3-1.2s-.4-1.2-1.3-1.2Zm14.2 7.1h-2.1l-.8-1.9h-4.5l-.8 1.9h-2.1l3.8-8.8h2.8l3.8 8.8Zm-5.8-5.8-.9 2.1h3l-.9-2.1-.6-1.6-.6 1.6Zm8.7-3.1v7h5.5v1.9h-7.5v-8.8h2Zm8.6 8.9h-2.1v-8.8h2.1v8.8Zm11.1 0h-2.1l-.8-1.9h-4.5l-.8 1.9h-2.1l3.8-8.8h2.8l3.8 8.8Zm-5.8-5.8-.9 2.1h3l-.9-2.1-.6-1.6-.6 1.6Z" style="fill:#ea6025"/><path d="M35.3.9H0v35.3h35.3V.9ZM30 5.7H5.3v3.9h6.6v21.7h3.9V9.6h3.6v21.7h3.9V9.6h6.6V5.7Z" style="fill:#ea6025;fill-rule:evenodd"/></svg>
