<?xml version="1.0" encoding="UTF-8"?><svg id="Layer_1" xmlns="http://www.w3.org/2000/svg" viewBox="0 0 131 63"><defs><style>.cls-1{fill:#005a8b;}</style></defs><path class="cls-1" d="M130.999994282896296,40.23527472128626c-.002646950115377-5.785938847429861,0-11.571957905467571-.003502529953039-17.357896752895613,0-.565110481275042-.021924233280515-1.13043485750859-.046455311374302-1.695277970084135-.051682369432456-1.225083376797556-.232169609393168-2.432974946279501-.500260203438302-3.628968608672949-1.76623762267991-7.872644592203869-7.680005444890412-14.195834102516528-15.413457892622318-16.47007225246125-1.767133307825134-.519631065648355-3.571043180132619-.823575802171035-5.414376567043291-.866889531338529-.573866806153092-.013502119276382-1.148602560573636-.00018715808983-1.722442629858051-.00018715808983h-38.848458005681096v.426961074730571c.000681790181261,7.631183920535477,.001390317229379,15.262394577937812,.001925054628373,22.893525024734117,.000173789654582,5.581909793556406-.003168319079123,11.163980008335784,.003930319868232,16.745782854412028,.000882316706338,.703527256520829,.042150675330049,1.408097250963692,.08911398723103,2.110367874598523,.093565676061189,1.400584190530935,.359544057388121,2.77221235100842,.731895075436114,4.124028490925411,1.890564067512969,6.863060386445795,7.126405186090778,12.522239733887545,13.813430021404201,14.938905189552315,2.527596728696153,.913331474277584,5.136914700109628,1.334062858333709,7.819571905536577,1.333715279020907,5.525655419383838-.0008823167027,11.05217978703331,.004117477958061,16.578690786251173-.004812636572751,.88839934313728-.001417054101694,1.778509845946246-.048019418260083,2.666026872379007-.100530630657886,1.103016197470424-.065157751840161,2.189402061891087-.254561737896438,3.259144224826741-.524149596656571,5.54667059908752-1.398712609641734,9.937746946132393-4.46896084893342,13.168857562915946-9.182002582785572,1.781143427626375-2.596738274147356,2.916591448230974-5.466459989520445,3.471167602781861-8.564487836594708,.247957731044153-1.380986064928948,.346068674980415-2.775340564785438,.345199726711144-4.17801023116408h0Zm-21.265918072256682-25.283132768106952c-.033287402970018,.919561164955667-.128791502094828,1.829229688062696-.357458581540413,2.721626193242628-.321537596886628,1.260028465701907-.876982699704968,2.397227751282117-1.782894692598347,3.346600526127077-.728044966177549,.762562265157612-1.597153657714443,1.318983263730843-2.559132866694199,1.735062432428094-1.138068233853119,.491771247259749-2.332217052227861,.773257013102921-3.556137375186154,.950923513295493-1.34220423520128,.195098939339005-2.692295847011337,.238733510943348-4.045903357206043,.225418549756796-.667579534998367-.006737691204762-1.335185806863592-.001203159146826-2.002778710297207-.001203159146826h-.328542656787249V8.607322315154306c0-.667432482214281,.014892436505761-1.334223279551225,.119152860510439-1.995586492306757,.01926391473171-.118872123379333,.042912676120977-.236888666922823,.064823540966245-.355038894816971,.088485670787122-.472333542873457,.353956051587375-.760503526180401,.82705159525176-.901192935363724,.589628190933581-.174859128856042,1.186261441767783-.303757578431032,1.793402282455645-.357819529281187,.709663368150359-.063072275990635,1.424567162794119-.107241584992153,2.135968427484841-.102749790856251,1.406158827898253,.008662745834954,2.788682262842485,.196489256572022,4.118614274779247,.676469544223437,2.596805116318137,.937234235931101,4.282444444821522,2.744887270018808,5.094603603567521,5.371811470231478,.403018207769492,1.304973143927782,.530058444890528,2.64612127276996,.479231655293916,4.008926266194976h0Zm2.536339685140774,21.761165112595336c.344330778441872,1.405289879628981,.438056875720576,2.832049465747332,.353969420022622,4.276321701627239-.068339439350893,1.181876595110225-.257596372624903,2.338433374467058-.649211305406425,3.455713692006611-.922555694378389,2.63449073438278-2.708939548494527,4.463025263828968-5.248795132023588,5.577016946373988-1.074995957862484,.471157120602584-2.197289438498046,.770610062985725-3.355517272219004,.950148144069317-1.000520406880241,.155073845166044-2.006294608683675,.232690978358733-3.017335973852823,.203360632121985-.926044855890723-.026656659245418-1.848587181833864-.094220729370136-2.743109268170883-.37062648994106-1.00403630526489-.309773374150609-1.668995627014738-.954426043246713-2.014181985288815-1.945160755754841-.246206466068543-.705933574807204-.372364386483241-1.435422331956943-.420544225964477-2.175445415827198-.048179839479417-.739167504036232-.070090704326503-1.48116911627767-.070959652597594-2.222074516857901-.006136111631349-5.042680602304245-.003502529949401-10.085494888957328-.003502529949401-15.128148754391077v-.421052226489337c.130542767068619-.006550533114932,.22164865110426-.014972647120885,.311885586866993-.014892436509399,1.186261441767783,.002646950113558,2.373391831804838-.015266752689058,3.559666642007869,.014892436509399,2.145580332196914,.054569951375015,4.264918426630175,.304452737047541,6.326411303129134,.938143289504296,1.048700246359658,.322500124200815,2.050971918211872,.748552145354552,2.985799835856596,1.328020325743637,2.090395432813239,1.295829134436644,3.401932478289382,3.155485380393657,3.985424557589795,5.533783427814342h0Zm16.619009985994126,4.02847091806143c-.048193207914665,5.140403861627419-1.85210308022215,9.638133582528098-5.32063710132752,13.436961525394508-2.729099148367823,2.988834470585061-6.082865155613035,4.958780304697939-10.013973762092064,5.933927422083798-.001764633410858,.000614948005023-.004398215090987,.001042737923854-.006149480068416,.001550738452352-.000868948269272,.000187158088011-.001751264973791,.00037431617784-.002620213243063,.000508000528498-.971617850565963,.241032881747742-1.955481187522309,.420544225960839-2.956001594402551,.480916078095106-.757843207629776,.045746784322546-1.517424311799914,.091466831776415-2.276149836136028,.092536306574402-5.684231794499283,.007432849815814-11.368450220561499,.015240015814925-17.051813066787872,.000160421217515-4.014353850776388-.010614537332003-7.710579055570633-1.114152103764354-11.067419802850054-3.326066610075941-1.787520171086726-1.177866064630507-3.340090098316068-2.614518292597495-4.672749270977874-4.288674135497786-1.093631556152104-1.374087952503032-1.730744427948594-2.945494004547072-2.006829346080849-4.670637058259672-.19124883008044-1.195753030564447-.229442448669943-2.399527122086511-.121946863413541-3.603541845441214,.110142535371779-1.236393072746068,.250390786202843-2.469871826679082,.386374506288121-3.703778370529108,.130101608719997-1.178641433856683,.270095859283174-2.356213392922655,.409140950969231-3.533972510074818,.137908774719108-1.168294265222357,.281325344623838-2.33624095113737,.419661909259958-3.504829321929719,.120904125487868-1.02110779666873,.237169404055749-2.042910751952149,.357619002757929-3.064098759228727,.119433597647003-1.012097471526431,.242249409329816-2.023740416263536,.361923638802182-3.035837887788148,.120997704534602-1.021268217888064,.239361827387256-2.042750330732815,.359744583913198-3.06401854861906,.119406860774689-1.012097471524612,.239776248867202-2.024007784961213,.360078794785295-3.035918098397815,.081908400803513-.690185558461963,.158750164768207-1.38085238057829,.249869417237278-2.069727832416902,.027325080993251-.206408635287517-.027244870383583-.342124986676936-.194417149157744-.472921754009803-.408780003226639-.319692752867923-.797788091194889-.664357742181892-1.200806298968018-.991403134259599-.124406655439088-.100851473094735-.189243564840581-.208173268694736-.188013668826898-.374743967899121,.006055901021682-.945683086802092,.003850109260384-2.837289892240733,.003850109260384-2.837289892240733l-.001737896544-.284373347785731h2.60652396851583v-4.889424864291868l-1.277019746494261-.002112212718202s2.950841378516998-2.305734182633387,4.335182920613079-3.333633144244232c.137013089575703-.106573163246139,.307340318995557-.358487951029019,.304626526703942-.57388017458652-.011122537860501-.852825937794478-.001229896013683-1.653541716239488-.000882316706338-2.506608285861148,0-.083312086471778-.004638846918169-.16804122704707,.007446218254699-.249856048803849,.017178438884002-.117642227367469,.088766407921867-.199243154167561,.188548406225891-.231995819740405,.032592244353509-.011951380825849,.068072070651397-.018555387679953,.106185478631232-.018902966989117,.149017944144362-.001550738452352,.264761853748496,.090450830723057,.290429248811051,.244669096053258,.013328329623619,.081627663668769,.008849903921146,.166356804242241,.008849903921146,.249695627582696,.000521368961927,.871568483564261,.018662335161935,1.641617072284134,.008488956180372,2.512998397758565,0,.21314632649046,.144646465922051,.467307011340381,.289292931840464,.57388017458652,1.374809847990036,1.025091590274315,4.366919585132564,3.333633144244232,4.366919585132564,3.333633144244232h-1.279319117302293l-.008676114270202,.092349148482754v4.799187928527317l2.620641035800872-.002272633937537s-.00175126497561,.306912529074907-.004384846659377,.73986266265274c0,.62072317057391,0,1.725009369361942,.004384846659377,2.378217836811018,.0008823167027,.153576580454683-.049075524621003,.259401111343323-.168215016698014,.356135106481815-.431479605736968,.350974890598081-.852371411008789,.715077584296523-1.285348281455299,1.06388678843723-.123444128126721,.099247260903212-.164966487012862,.20325368464546-.147453837256762,.356562896398827,.105837899325707,.920283060439033,.206849793639776,1.841394963845232,.306992739688212,2.762373182902593,.101372842058481,.930255912897337,.199149575119009,1.861153510670192,.299800521690486,2.791489634175377,.102522527466135,.948811300579109,.207558320695171,1.897301758715912,.310495269639432,2.845979374942544,.101025262751136,.930336123507004,.200285892089596,1.860859405102019,.301137365187969,2.79127573921869,.10276315928968,.948650879356137,.206742846159614,1.897408706192437,.309880321628953,2.846086322419069,.100744525616392,.930416334120309,.200620102965331,1.86091287884301,.301377997015152,2.79127573921869,.10337810729834,.957848362588265,.20938979627681,1.915696725176531,.31276790357515,2.873732245854626,.100757894053459,.930336123505185,.199751154694241,1.860779194492352,.30050904874588,2.791115317997537,.10250915902725,.948838037445967,.206769583030109,1.897488916807561,.310134321895021,2.846166533032374,.100757894048002,.930336123508823,.197999889714993,1.861046563188211,.301391365450399,2.791115317997537,.132294032046048,1.205538724931102,.203267053078889,2.420355143707638,.501129151707573,3.602044580728034,.095517467561876,.376374916962959,.205018318056318,.751172358603071,.339945931784314,1.115034420470693,.530927393163438,1.433497277326751,1.526180636679783,2.404660601103387,2.958621807645613,2.934719045993916,.786759132381121,.291137775862808,1.603289769342155,.45610426287567,2.43210599800841,.549656570499792,1.263357205994907,.142320358243524,2.531968206920283,.21020527080691,3.803199421088721,.157186057880608,1.342217603636527-.055799847386879,2.686173103813417-.103124107032272,4.024874809061657-.217450962536532,1.994904702125496-.170394071590636,3.966160642863542-.479151444687886,5.898875385701103-.978007962459742,.644813090315438-.166437014853727,1.285254702410384-.354210051849805,1.921311467849591-.565003533794879,2.240228851484062-.743204771386445,4.337642712633169-1.766398043901063,6.230038255735053-3.18879952023417,2.040477696789821-1.533092117537308,3.700716998930147-3.387641621353396,4.819507949612671-5.699364862835864,.725424752934487-1.499269977171934,1.160848046971296-3.080060670530656,1.326429481990999-4.737826812208368,.208520848005719-2.092962172320767,.041188148014044-4.14755693639745-.637808030414817-6.145175430812742-.804271782135402-2.363833400830117-2.257741501241981-4.25525304817711-4.238636083562596-5.755004289003409-1.567368784692007-1.186715968555291-3.316080389182389-2.024890101667552-5.168196837841606-2.657858758637303-.524791281533908-.179457870473925-1.059207836211499-.331269817514112-1.590148597810185-.495541145910465-.086721037378084-.02708444916243-.174337759897753-.053179634141998-.330280553331249-.10031673569938,.137547826974696-.072804496618119,.219028437859379-.120797178007706,.304893895401619-.161143114619335,1.24494887110086-.587061451427871,2.422440619555346-1.283316279346764,3.499187842393439-2.144965384191892,2.449605279327443-1.96048098218489,4.037133663890927-4.450940198652461,4.550535038864837-7.563486166060102,.548440042919538-3.326868716170793,.029784873020617-6.47853072417638-1.722429261420984-9.390603641402777-.103391475733588-.173415337885672-.237423404319998-.365573221539307-.387243454559211-.566393851026078-.882263231505931-1.129606014545061-2.399687543307664-2.535002841650567-2.43911105791085-2.617673243245008,.085852089108812,.024437499048872,.173468811624844,.044704046398692,.257569635756226,.07398091889263,5.754322498827605,2.005479134151756,9.836133472248548,5.814440350693985,12.258600828670751,11.399077304977254,.70526515306301,1.623676632611023,1.148589192142026,3.326494399994772,1.369368894978834,5.080753904980156,.103364738863092,.81678463722892,.173455443191415,1.643649074390851,.175206708165206,2.465994980550022,.014036856673556,6.166163873651385,.051695737867703,12.332862484696307-.00525379492683,18.498438147209527h0ZM79.406444733078388,14.822040344462948s2.103189025043321,.007272428598299,3.168452762272864,.007272428598299c0-1.651482977260457-.00463884691635-4.894344448342963-.00463884691635-4.894344448342963l-3.163813915356513-.001390317233017v4.888462336977682h0Z"/><path class="cls-1" d="M6.554944698224972,46.561164655455286c1.469431630410327,0,2.672670984536126-.34429067313431,3.608969430019897-1.033888020458107,.936298445484681-.689303241757443,1.40467493162123-1.612661042228865,1.40467493162123-2.77026055951319,0-.832238548002351-.286405349896086-1.557128563536025-.858601101684144-2.175231520865054-.572436383615241-.617648430541522-1.332993383535722-1.004450726748473-2.282339421510187-1.160754467924562,1.794899547167915-.546100566805762,2.692135425792003-1.619077890996778,2.692135425792003-3.218664603864454,0-1.014797895382799-.396721674922446-1.817492202193534-1.189870919197347-2.409580185152663-.793496823584064-.591660193045755-1.925054629625265-.887664079216847-3.394486260036501-.887664079216847H0v13.656043436994878H6.554944698224972Zm-3.589665409984264-11.197855622443967h3.121342397587796c.68932997862521,0,1.206287357289511,.114059486804763,1.550952346601662,.341242669974235,.344317410004805,.227798131169038,.517010852403473,.601900414194461,.517010852403473,1.122039480373132,0,.988328394223572-.689677557932555,1.482372275420857-2.067963199005135,1.482372275420857H2.965279288240708v-2.945654425768225h0Zm0,5.325717106597949h3.16040496444748c1.586592594119793,0,2.380009207093281,.572463120486645,2.380009207093281,1.716747676578962,0,1.131584542910787-.793416612973488,1.69730997219267-2.380009207093281,1.69730997219267H2.965279288240708v-3.414057648771632h0Zm11.373249488697184,4.711490995401618c.975387749213951,.982205651027471,2.197797439025635,1.472827212879565,3.667844017444622,1.472827212879565,1.521541789758885,0,2.756945598321181-.474499229330831,3.706639215602991-1.424219583483136,.949025195536706-.948998458665301,1.423791793567034-2.204294498400486,1.423791793567034-3.765166223720371,0-1.534535908507678-.477921548673294-2.779832358915883-1.43376464602261-3.735755666873956-.955843097348406-.955843097350225-2.188172165877404-1.433764646024429-3.696666363147415-1.433764646024429-1.495794184089391,0-2.724995038845009,.477921548674203-3.687388669309257,1.433764646024429-.962313419854581,.955923307958074-1.443416656041336,2.201219758366278-1.443416656041336,3.735755666873956,0,1.49579418409121,.48757355869202,2.734593575125473,1.462961307905971,3.716558594323942h0Zm3.667844017444622-.731467285520921c-.702297360506236,0-1.25214108909222-.250497733677548-1.648568658446493-.751359516689263-.397069254230701-.500514203702551-.59508251238276-1.231981489221653-.59508251238276-2.194669225253165,0-.962420367330196,.198013258152059-1.706855034730324,.59508251238276-2.233731792111939,.396427569354273-.526636125552614,.946271297940257-.790101241109369,1.648568658446493-.790101241109369,.70202999180492,0,1.251526141084469,.263465115556755,1.648328026615673,.790101241109369,.396694938051951,.526876757381615,.595055775513174,1.271311424781743,.595055775513174,2.233731792111939,0,.962687736031512-.198360837461223,1.694155021550614-.595055775513174,2.194669225253165-.396801885531204,.500861783011715-.946298034810752,.751359516689263-1.648328026615673,.751359516689263h0Zm7.715405060580451,1.40430061544248c.851676252389552,.507385579256152,1.856207189744964,.76093131610105,3.013833443897965,.76093131610105,1.404674931619411,0,2.509896920853862-.289132510622949,3.316681968755802-.868172901091384,.806223573635179-.578666074292414,1.209415571061982-1.362163308547679,1.209415571061982-2.350598650251413,0-1.599961029047336-1.118536950422822-2.614304397640808-3.355423693176817-3.043270737609419l-1.346067712896911-.253893316154063c-.520406434873621-.090771673158088-.874990802904904-.204831159964669-1.06308468233965-.341242669970597-.188815774922659-.136678878701787-.282983030555442-.341616986146619-.282983030555442-.61460042737599,0-.285790401891063,.119834650694429-.513561796191425,.360680374355979-.682832919252178,.240578354963873-.168923543747951,.582115130502643-.253545736841261,1.024476642268382-.253545736841261,.975361012345275,0,1.631751167306902,.45530215677536,1.970266676553365,1.365665838498899l2.282366158378863-1.033968231067774c-.260390375527095-.611204844904933-.7444346673974-1.13781423358887-1.453309297887245-1.580095534744032-.708847893620259-.441987195588808-1.596538709705783-.663288267385724-2.663018974518309-.663288267385724-1.287433757302097,0-2.30846134336025,.27956071121298-3.062815389474963,.838708870511255-.754407519853885,.559469001731486-1.131317174213109,1.306978409165822-1.131317174213109,2.243383802129756,0,.897556721061846,.256593740006792,1.567342047823331,.770529852377877,2.009623348978494,.51358853306283,.442361511766649,1.336522650357438,.773952171719429,2.46775961396088,.994905664207181l1.385130279754776,.273090388709534c.441906984979141,.091119252470889,.754086677416126,.217878752455363,.936298445484681,.380305236831191,.182345452417394,.162720589942182,.273437968016879,.38057260552705,.273437968016879,.653689731107079,0,.286031033718245-.133604138670307,.520406434874531-.40019746800408,.702270623634831-.266513118722287,.18223850493996-.627648019867593,.273090388707715-1.082602597335608,.273090388707715-.819431587343388,0-1.372430266573247-.181971136238644-1.658140457853733-.546073829937086-.299479679256365-.377257233665659-.487921138000274-.741466874842445-.565645218671307-1.092602186661679l-2.516795033277049,.799619566780166c.19493851811967,.845526772325684,.718499903638076,1.521835895331606,1.570523735336792,2.028900632145451h0Zm10.60282658379947-.214456433111991c.441906984978232,.468296275525063,1.046935612947891,.702270623634831,1.814337251552388,.702270623634831h3.257807381332896v-2.204535130227669h-2.106597975946897c-.299452942385869,0-.516984115533887-.068259228744864-.65374320484716-.204590528141125-.136678878702696-.136678878703606-.204857896835165-.354210051849805-.204857896835165-.653662994236583v-4.584357179233848h2.536286211400693v-2.106972292125647h-2.536286211400693v-3.062895600081902h-2.770260559511371v3.062895600081902h-2.048445284010086v2.106972292125647h2.048445284010086v5.091368442312159c0,.767802691652832,.220953492489571,1.385130279755685,.66331500425531,1.853506765892234h0Zm7.179130293445269-.458376896809568c.975467959824527,.982205651027471,2.19782417589613,1.472827212879565,3.667590017180373,1.472827212879565,1.521795790024044,0,2.757212967021587-.474499229330831,3.70657237343039-1.424219583483136,.949359406407893-.948998458665301,1.424206215049708-2.204294498400486,1.424206215049708-3.765166223720371,0-1.534535908507678-.477921548675113-2.779832358915883-1.433778014458767-3.735755666873956-.956177308221413-.955843097350225-2.188533113620906-1.433764646024429-3.697000574021331-1.433764646024429-1.495794184089391,0-2.724727670145512,.477921548674203-3.687041090000093,1.433764646024429-.962767946641179,.955923307958074-1.443737498479095,2.201219758366278-1.443737498479095,3.735755666873956,0,1.49579418409121,.487814190520112,2.734593575125473,1.463188571298815,3.716558594323942h0Zm3.667590017180373-.731467285520921c-.702390939549332,0-1.251873720393633-.250497733677548-1.648595395315169-.751359516689263-.396788517096866-.500514203702551-.594788406815496-1.231981489221653-.594788406815496-2.194669225253165,0-.962420367330196,.197999889718631-1.706855034730324,.594788406815496-2.233731792111939,.396721674921537-.526636125552614,.946204455765837-.790101241109369,1.648595395315169-.790101241109369,.702283992070988,0,1.25151277265104,.263465115556755,1.648568658446493,.790101241109369,.396347358743697,.526876757381615,.594788406813677,1.271311424781743,.594788406813677,2.233731792111939,0,.962687736031512-.198441048069981,1.694155021550614-.594788406813677,2.194669225253165-.397055885795453,.500861783011715-.946284666375504,.751359516689263-1.648568658446493,.751359516689263h0Zm9.734667051144243,1.892114805965321v-4.623312798614279c0-1.222463163552675,.214483169984305-2.094031647115116,.643770352390675-2.614438081991466,.286044402153493-.351108574948739,.721842012369052-.526529178070632,1.306978409166732-.526529178070632,1.040478658876964,0,1.560885093752404,.611525687343601,1.560885093752404,1.833534324106949v5.930745734569427h2.769926348637455v-6.535426783229923c0-1.118189371112749-.269935438064749-1.982913215993904-.809525577062232-2.594545850815848-.539603507431821-.611151371169399-1.342992972862703-.916753793620956-2.409232605846228-.916753793620956-1.365598996325389,0-2.412547977708527,.59821072615523-3.14095389162776,1.794525230990985v-1.50191692728913h-2.692122057357665v9.754118123964872h2.770273927946619Z"/><path class="cls-1" d="M1.68511795953782,27.214927101984358c1.111986417307889,1.014343368593472,2.597700801461542,1.521809158459291,4.457704626727718,1.521809158459291,1.820566942229561,0,3.296816474454317-.507465789865819,4.428401017365104-1.521809158459291,1.131691490390949-1.014450316071816,1.697283235323084-2.38626563463913,1.697283235323084-4.116435219884806V14.768593341617816h-2.965199077630132v7.861976581132694c0,2.380035943962866-1.053512882932409,3.569906863162032-3.160485175058056,3.569906863162032-1.04081286975088,0-1.827438317781343-.302180103111823-2.360544765838313-.907208731081482-.533454027366133-.60470778553281-.799860198609167-1.492371864747838-.799860198609167-2.66269813208055v-7.861976581132694H.017111596707764v8.329898540481736c0,1.730169585245676,.55599320865349,3.101984903812991,1.668006362830056,4.116435219884806h0Zm16.474724467817396,1.209656202892802v-11.119730488726418l3.765219697458633,11.119730488726418h2.63392926011602l3.803907948138658-11.139275140589234v11.139275140589234h2.965493183199214V14.768593341617816h-4.682321070386934l-2.282366158378863,6.652240167632044c-.429287182407279,1.287808073480846-.773978908590834,2.256698763319946-1.033968231068684,2.906966175083653-.260417112395771-.650267411763707-.604707785530991-1.619158101602807-1.03399496793827-2.906966175083653l-2.243303591520089-6.652240167632044h-4.857795147249817v13.655989963259344h2.965199077630132Zm16.075222158428005-.468296275528701c.585163133666356,.520058855569005,1.320052738527011,.78044923109519,2.20464207770965,.78044923109519,1.469404893539831,0,2.581471521457388-.578692811162909,3.335905778181768-1.736292328443596,.1038192656506,.94937277484496,.68895566244737,1.424139372877107,1.755462664129482,1.424139372877107h2.126516943990282v-2.106972292127466h-.858280259244566c-.260256691178256,0-.422709912421851-.032137717566002-.487787453651435-.097589574972517-.06510427809917-.064836909401492-.097589574973426-.227557499343675-.097589574973426-.487573558693839v-3.570254442469377c0-1.24845140105208-.373861651195512-2.191246905909793-1.121691901066697-2.828546935796112-.747963934218205-.637193082406156-1.824096209049458-.95619067665757-3.228664193188706-.95619067665757-1.326603271641943,0-2.409232605847137,.29263504057235-3.248289055664827,.878145753547869-.838628659901588,.585163133666356-1.29697881984066,1.287460494171683-1.37515742730011,2.106972292125647l2.497196907673242,.546073829937086c.246701098159974-1.027070118645497,.962046051155085-1.541327073453431,2.14579422715633-1.541327073453431,1.066480264811617,0,1.599880818437668,.448831834271914,1.599880818437668,1.346040976024597v.370786911164032c-.949720354152305,.091092515598575-1.772333629010063,.218226331762708-2.468133930139629,.38057260552705-.695800301129566,.162693853073506-1.326523061030457,.387176612384792-1.892141542832178,.672860066795693-.56561848180263,.286405349896086-.998327983550553,.6633150042544-1.297433346628168,1.131584542910787-.299078626208029,.46837648613473-.455302156777179,1.021375165366408-.468002169957799,1.6582206684634,0,.832479179834991,.292608303702764,1.508841776580084,.87777143736912,2.028900632145451h0Zm4.662402102344458-1.83396211402578c-.390224615547595,.390224615548505-.877664489891686,.58551071297552-1.462827623558042,.58551071297552-.845901088500796,0-1.268370369094555-.351135311817416-1.268370369094555-1.053539619802905,0-.572088804308805,.273437968017788-.988328394223572,.819511797954874-1.248371190442413,.546100566805762-.260016059348345,1.378312377942166-.461531847451624,2.497223644541918-.605028627969659v.624573279834294c0,.741012348056756-.195312834297511,1.306978409165822-.585537449844196,1.696855445405163h0Zm6.779119983531018,1.814417462161146c.851662883954305,.507385579257971,1.85647455844537,.760931316099231,3.014167654771882,.760931316099231,1.404674931619411,0,2.509896920852952-.28913251062113,3.316361126317133-.868172901089565,.806103257721588-.578666074292414,1.209388834191486-1.362163308549498,1.209388834191486-2.350946229560577,0-1.599613449739991-1.118630529465918-2.614063765811807-3.355437061611156-3.043270737609419l-1.346054344461663-.253545736844899c-.520045487131938-.090771673159907-.874723434205407-.204831159966488-1.063071313904402-.341242669970597-.188802406489231-.136678878701787-.283076609600357-.341590249279761-.283076609600357-.614600427377809,0-.286057770586922,.120302545916275-.513561796193244,.361134901144396-.682832919250359,.240484775918958-.168816596269608,.581727445888646-.25354573684308,1.024075589220956-.25354573684308,.975387749213041,0,1.632112115048585,.455382367385027,1.97030678185638,1.365665838498899l2.282713737688027-1.033968231067774c-.260390375526185-.611204844904933-.744795615141811-1.138161812894396-1.453656877196408-1.580416377182701-.708847893620259-.442013932457485-1.596538709704873-.663341741124896-2.662684763644393-.663341741124896-1.287527336347011,0-2.308835659539,.279935027392639-3.062882231649382,.839083186689095-.754420888289133,.559469001735124-1.131597911346944,1.306978409165822-1.131597911346944,2.243383802129756,0,.897556721063665,.256620476877288,1.567342047823331,.770556589248372,2.009275769671149,.513829164890012,.442334774896153,1.336429071311613,.773925434850753,2.468093824832977,.994985874818667l1.385143648190024,.273357757405392c.441893616543894,.091119252470889,.753979729937782,.217878752459001,.93629844548559,.38030523683301,.181877557193729,.162720589940363,.2729968096628,.3802517630902,.2729968096628,.653689731107079,0,.286057770586922-.13352392806064,.520058855567186-.399769678085249,.701949781196163-.26686069803236,.182666294855153-.627648019867593,.27343796801506-1.082976913513448,.27343796801506-.819150850210463,0-1.372082687265902-.182238504936322-1.65822066846431-.546448146113107-.298998415598362-.376909654358315-.487479979648015-.741386664236416-.565605113366473-1.092602186663498l-2.516741559536968,.79996714608933c.195299465861353,.845553509192541,.718433061463656,1.521835895327968,1.57053710377113,2.028900632145451h0Zm10.046739796101974,0c.851676252389552,.507385579257971,1.856487926880618,.760931316099231,3.014194391641468,.760931316099231,1.404661563184163,0,2.509883552418614-.28913251062113,3.316347757883705-.868172901089565,.806196836763775-.578666074292414,1.209375465755329-1.362163308549498,1.209375465755329-2.350946229560577,0-1.599613449739991-1.118536950421003-2.614063765811807-3.355423693176817-3.043270737609419l-1.346054344460754-.253545736844899c-.520072224002433-.090771673159907-.87464322359574-.204831159966488-1.063084682340559-.341242669970597-.188802406487412-.136678878701787-.282983030555442-.341590249279761-.282983030555442-.614600427377809,0-.286057770586922,.120195598437931-.513561796193244,.361134901144396-.682832919250359,.240498144354206-.168816596269608,.581647235279888-.25354573684308,1.024008747045627-.25354573684308,.975374380778703,0,1.632112115050404,.455382367385027,1.970280044987703,1.365665838498899l2.282727106122366-1.033968231067774c-.260390375526185-.611204844904933-.744795615139992-1.138161812894396-1.453643508761161-1.580416377182701-.708887998923274-.442013932457485-1.59655207814194-.663341741124896-2.662684763644393-.663341741124896-1.287460494172592,0-2.308835659539,.279935027392639-3.062815389474054,.839083186689095-.754420888290042,.559469001735124-1.131678121956611,1.306978409165822-1.131678121956611,2.243383802129756,0,.897556721063665,.256620476877288,1.567342047823331,.770529852377877,2.009275769671149,.513949480805422,.442334774896153,1.336536018791776,.773925434850753,2.468107193268224,.994985874818667l1.385143648190933,.273357757405392c.441906984979141,.091119252470889,.754073308980878,.217878752459001,.936298445484681,.38030523683301,.181971136238644,.162720589940363,.273090388707715,.3802517630902,.273090388707715,.653689731107079,0,.286057770586922-.133617507104645,.520058855567186-.399863257130164,.701949781196163-.266874066466698,.182666294855153-.627648019868502,.27343796801506-1.082963545078201,.27343796801506-.819177587081867,0-1.372082687265902-.182238504936322-1.658127089419395-.546448146113107-.299118731512863-.376909654358315-.487560190258591-.741386664236416-.565725429281883-1.092602186663498l-2.516714822667382,.79996714608933c.195286097428834,.845553509192541,.718406324594071,1.521835895327968,1.570523735336792,2.028900632145451h0Z"/></svg>