<?xml version="1.0" encoding="UTF-8"?>
<svg id="Layer_1" xmlns="http://www.w3.org/2000/svg" viewBox="0 0 1058.16 440">
  <defs>
    <style>
      .cls-1 {
        fill: #001641;
      }
    </style>
  </defs>
  <g>
    <path class="cls-1" d="M0,324.99c17.2,50.91,65.41,87.66,122.05,87.66,47.05,0,90.36-25.72,113.03-67.12l.99-1.8c-6.41-3.34-17.98-10.95-24.61-17.13l-1.6,3.06c-17.21,32.87-50.86,53.29-87.81,53.29-43.62,0-80.74-28.34-93.93-67.57l-28.12,9.61Z"/>
    <path class="cls-1" d="M302.36,93.2c-47.09,0-90.41,25.72-113.06,67.11l-1.03,1.88c7.96,4.1,18.89,11.67,24.59,17.12l1.65-3.15c8.35-15.96,20.97-29.38,36.49-38.8,15.56-9.45,33.32-14.45,51.36-14.45,54.63,0,99.07,44.44,99.07,99.07s-44.44,99.07-99.07,99.07c-14.28,0-28.11-3.02-41.09-8.96-5.37-2.46-10.54-5.41-15.37-8.78-5.45-3.79-10.55-8.17-15.16-13-7.46-7.82-14.39-16.7-18.95-26.4-1.68-3.57-3.47-7.46-5.22-11.03-9.5-19.32-20.43-31.94-32.74-40.83l-.17,6.44c0,.36-.02.73-.04,1.09-.03.8-.06,1.59-.06,2.4,0,29.78,10.45,58.84,29.41,81.83,4.58,5.56,9.78,10.85,15.44,15.72,5,4.31,10.34,8.24,15.87,11.7,5.35,3.34,10.97,6.31,16.73,8.82,16.28,7.1,33.55,10.7,51.34,10.7,71.01,0,128.78-57.77,128.78-128.78s-57.77-128.78-128.78-128.78Z"/>
    <path class="cls-1" d="M26.89,204.26l22.83,11.49,3.01-3.01c18.24-18.27,42.21-27.93,69.32-27.93,14.26,0,28.07,3.01,41.05,8.94,5.39,2.47,10.58,5.43,15.42,8.8,5.45,3.8,10.55,8.17,15.16,13,7.46,7.81,14.39,16.69,18.94,26.39,1.38,2.93,3.08,6.1,4.53,9.01,10.19,20.44,21.96,35.58,33.38,43.52l.21-7.11.03-1c.03-.83.06-1.66.06-2.49,0-29.79-10.45-58.85-29.42-81.85-4.58-5.55-9.77-10.83-15.42-15.7-5-4.31-10.34-8.24-15.86-11.7-5.37-3.36-11.02-6.33-16.79-8.85-16.26-7.09-33.51-10.68-51.28-10.68-21.79,0-41.88,4.76-59.89,14.19l16.18-108.26h139.77v-29.71H52.57l-25.68,172.96Z"/>
    <g>
      <path class="cls-1" d="M271.15,407.6v4.33h-25.05v-3.39l14.19-13.69c3.69-3.58,4.38-5.78,4.38-7.97,0-3.58-2.54-5.78-7.42-5.78-3.73,0-6.77,1.2-8.91,3.79l-3.39-2.94c2.69-3.34,7.32-5.28,12.75-5.28,7.27,0,11.95,3.74,11.95,9.71,0,3.39-.99,6.42-5.73,10.96l-10.66,10.26h17.88Z"/>
      <path class="cls-1" d="M274.07,394.5c0-11.35,6.08-17.83,14.24-17.83s14.19,6.47,14.19,17.83-6.08,17.83-14.19,17.83-14.24-6.47-14.24-17.83ZM297.52,394.5c0-8.91-3.79-13.4-9.21-13.4s-9.26,4.48-9.26,13.4,3.78,13.4,9.26,13.4,9.21-4.48,9.21-13.4Z"/>
      <path class="cls-1" d="M330.6,407.6v4.33h-25.05v-3.39l14.19-13.69c3.69-3.58,4.38-5.78,4.38-7.97,0-3.58-2.54-5.78-7.42-5.78-3.74,0-6.77,1.2-8.91,3.79l-3.39-2.94c2.69-3.34,7.32-5.28,12.75-5.28,7.27,0,11.95,3.74,11.95,9.71,0,3.39-1,6.42-5.73,10.96l-10.66,10.26h17.88Z"/>
      <path class="cls-1" d="M359.57,401.48c0,6.02-4.28,10.85-13.2,10.85-4.93,0-9.81-1.59-12.8-4.23l2.29-3.93c2.34,2.19,6.22,3.73,10.46,3.73,5.28,0,8.27-2.44,8.27-6.22s-2.49-6.37-10.56-6.37h-7.92l1.84-18.22h19.67v4.33h-15.49l-.95,9.56h3.88c10.41,0,14.49,4.33,14.49,10.51Z"/>
    </g>
    <g>
      <path class="cls-1" d="M263.61,31.32v34.86h-4.93v-30.52h-7.87v-4.33h12.8Z"/>
      <path class="cls-1" d="M296.66,48.3c0,11.9-6.72,18.27-16.48,18.27-3.29,0-6.42-.65-8.66-2.04l1.89-3.88c1.84,1.19,4.18,1.64,6.72,1.64,7.07,0,11.55-4.43,11.55-13.14v-1.24c-2.04,3.04-5.73,4.58-10.06,4.58-6.92,0-11.9-4.13-11.9-10.56s5.38-11,12.3-11c9.36,0,14.64,6.28,14.64,17.38ZM290.53,41.68c0-3.59-2.89-6.72-8.32-6.72-4.53,0-7.67,2.64-7.67,6.77s3.04,6.72,7.92,6.72,8.07-2.94,8.07-6.77Z"/>
      <path class="cls-1" d="M326.31,31.32v3.38l-14.09,31.47h-5.28l13.79-30.52h-15.93v6.22h-4.78v-10.56h26.29Z"/>
      <path class="cls-1" d="M353.42,55.72c0,6.02-4.28,10.85-13.2,10.85-4.93,0-9.81-1.59-12.8-4.23l2.29-3.93c2.34,2.19,6.22,3.73,10.46,3.73,5.28,0,8.27-2.44,8.27-6.22s-2.49-6.37-10.56-6.37h-7.92l1.84-18.22h19.67v4.33h-15.49l-.95,9.56h3.88c10.41,0,14.49,4.33,14.49,10.51Z"/>
    </g>
  </g>
  <g>
    <g>
      <path class="cls-1" d="M587.57,298.12v-22.28c0-1.71-1.1-2.21-5.73-2.37v-1.76h16.27v1.76c-4.91.17-5.29.55-5.29,2.37v21.39c0,6.45,4.36,9.26,10.26,9.26,2.98,0,5.29-1.05,7-2.76,1.99-1.99,2.81-3.69,2.81-7.83v-15.55c0-5.02-1.16-6.29-6.4-7.06v-1.6h14v1.6c-4.91.88-5.4,2.04-5.4,7.06v17.2c0,5.79-4.96,11.3-13.73,11.3s-13.78-4.36-13.78-10.75Z"/>
      <path class="cls-1" d="M632.51,277.44h-.06v21.83c0,5.07.66,6.34,5.96,7.11v1.6h-13.95v-1.6c4.91-.83,5.79-2.04,5.79-7.11v-22.05c0-2.04-1.32-3.64-5.79-3.75v-1.76h10.31l20.51,28.18h.06v-19.52c0-5.02-1.16-6.29-6.4-7.06v-1.6h14.01v1.6c-4.91.88-5.4,2.04-5.4,7.06v28.5h-2.15l-22.88-31.43Z"/>
      <path class="cls-1" d="M667.24,306.22c4.63-.16,5.73-.66,5.73-2.37v-28.01c0-1.71-1.1-2.21-5.73-2.37v-1.76h16.71v1.76c-4.63.17-5.73.66-5.73,2.37v28.01c0,1.71,1.1,2.21,5.73,2.37v1.76h-16.71v-1.76Z"/>
      <path class="cls-1" d="M693.82,277.22c-.88-2.37-1.82-3.09-5.9-3.91v-1.6h16.16v1.6c-4.8.27-5.62,1.27-4.85,3.47l8.88,25.31h.22l8.16-21.72c2.04-5.46,1.27-6.29-3.91-7.06v-1.6h13.07v1.6c-3.75.77-4.74,2.26-6.56,7l-11.14,28.56h-2.48l-11.63-31.65Z"/>
      <path class="cls-1" d="M728.44,306.22c4.63-.16,5.73-.66,5.73-2.37v-28.01c0-1.71-1.1-2.21-5.73-2.37v-1.76h29.44l.17,10.15-1.71.05c-1.93-6.17-2.92-8.16-9.1-8.16h-7.83v14.39h3.25c4.08,0,5.62-.39,7-6.12h1.49v14.34h-1.49c-1.38-5.73-2.92-6.12-7-6.12h-3.25v15.66h7.83c7.28,0,9.04-2.87,10.97-9.26l1.71.05-.28,11.3h-31.21v-1.76Z"/>
      <path class="cls-1" d="M774.65,303.85c0,1.82.77,2.21,5.68,2.37v1.76h-16.65v-1.76c4.63-.16,5.73-.66,5.73-2.37v-28.01c0-1.71-1.1-2.21-5.73-2.37v-1.76h15.22c11.03,0,14.28,4.25,14.28,8.82s-2.48,7.61-9.21,9.1v.16c6.67.66,7.5,3.25,8.16,7.28l.83,5.24c.5,3.2,1.82,3.97,5.62,4.25v1.76c-.39,0-1.43.05-1.82.05-7.77,0-9.04-1.6-9.43-6.62l-.33-4.25c-.44-5.4-2.7-6.67-8.38-6.67h-3.97v13.01ZM778.89,288.86c6.95,0,8.66-3.03,8.66-8.16,0-4.8-2.43-7-9.04-7h-3.86v15.16h4.25Z"/>
      <path class="cls-1" d="M801.89,297.29h1.71c2.87,6.4,6.51,9.59,11.08,9.59,5.51,0,7.78-3.75,7.78-7,0-4.08-2.92-5.57-9.59-7.94-5.02-1.76-10.31-3.25-10.31-10.04s5.4-11.08,12.24-11.08c3.09,0,5.29.61,7.06,1.27l1.76-1.54h1.21v10.59h-1.71c-1.76-5.13-4.91-8.33-9.21-8.33-3.75,0-6.67,2.43-6.67,6.73,0,3.97,3.2,5.24,9.1,7.22,5.02,1.71,10.2,3.42,10.2,10.26,0,5.46-3.2,11.85-12.35,11.85-2.98,0-6.12-.66-8.22-1.54l-2.76,1.76h-1.32v-11.8Z"/>
      <path class="cls-1" d="M831.77,306.22c4.63-.16,5.73-.66,5.73-2.37v-28.01c0-1.71-1.1-2.21-5.73-2.37v-1.76h16.71v1.76c-4.63.17-5.73.66-5.73,2.37v28.01c0,1.71,1.1,2.21,5.73,2.37v1.76h-16.71v-1.76Z"/>
      <path class="cls-1" d="M860.22,306.22c4.91-.16,6.12-.66,6.12-2.37v-30.16h-2.76c-5.29,0-6.29,2.87-8.49,9.43l-1.71-.11.33-11.3h30.55l.39,11.3-1.71.11c-1.82-6.18-3.03-9.43-8.49-9.43h-2.87v30.16c0,1.71,1.21,2.21,6.12,2.37v1.76h-17.48v-1.76Z"/>
      <path class="cls-1" d="M913.43,279.37c2.48-4.25,2.37-5.4-2.48-6.06v-1.6h12.52v1.6c-3.14.66-4.47,1.38-6.95,5.51l-8.16,13.51v11.52c0,1.71,1.1,2.21,5.73,2.37v1.76h-16.71v-1.76c4.63-.16,5.73-.66,5.73-2.37v-10.92l-9.37-16.27c-1.21-2.1-2.04-2.76-5.35-3.36v-1.6h15.6v1.6c-4.85.27-5.4,1.49-4.25,3.58l7.39,13.18,6.29-10.7Z"/>
      <path class="cls-1" d="M583.21,341.4c0-11.63,7.72-19.13,17.31-19.13s17.31,7.28,17.31,18.91-7.72,19.13-17.31,19.13-17.31-7.22-17.31-18.91ZM611.89,341.29c0-11.8-4.91-17.04-11.58-17.04s-11.14,5.24-11.14,17.04,4.91,17.04,11.58,17.04,11.14-5.18,11.14-17.04Z"/>
      <path class="cls-1" d="M620.71,357.66c4.63-.16,5.73-.66,5.73-2.37v-28.01c0-1.71-1.1-2.21-5.73-2.37v-1.76h29.33l.39,10.42-1.71.05c-1.87-6.23-3.69-8.44-9.87-8.44h-7.17v14.83h3.64c4.08,0,5.02-.55,6.51-6.01h1.49v14.23h-1.49c-1.38-5.73-2.43-6.12-6.51-6.12h-3.64v13.18c0,1.82,1.16,2.21,6.07,2.37v1.76h-17.04v-1.76Z"/>
      <path class="cls-1" d="M691.39,329.32c-.94-2.87-1.99-4.03-5.51-4.58v-1.6h15v1.6c-4.52.27-5.07,1.49-4.47,3.47l7.44,23.93h.22l6.67-20.34c1.82-5.46,1.27-6.29-3.92-7.06v-1.6h13.34v1.6c-3.75.77-5.35,2.43-6.89,7l-9.48,28.56h-2.48l-7.88-24.59-9.37,24.59h-2.48l-9.65-31.65c-.77-2.48-1.71-3.09-5.79-3.91v-1.6h15.16v1.6c-4.25.27-4.58,1.38-3.97,3.47l6.95,23.98h.16l7.77-20.24-.83-2.65Z"/>
      <path class="cls-1" d="M720.84,341.4c0-11.63,7.72-19.13,17.31-19.13s17.31,7.28,17.31,18.91-7.72,19.13-17.31,19.13-17.31-7.22-17.31-18.91ZM749.51,341.29c0-11.8-4.91-17.04-11.58-17.04s-11.14,5.24-11.14,17.04,4.91,17.04,11.58,17.04,11.14-5.18,11.14-17.04Z"/>
      <path class="cls-1" d="M758.88,357.66c4.63-.16,5.73-.66,5.73-2.37v-28.01c0-1.71-1.1-2.21-5.73-2.37v-1.76h16.71v1.76c-4.63.17-5.73.66-5.73,2.37v30.05h6.01c7.28,0,8.99-2.59,11.08-10.09l1.71.11-.39,12.07h-29.39v-1.76Z"/>
      <path class="cls-1" d="M793.34,357.66c4.63-.16,5.73-.66,5.73-2.37v-28.01c0-1.71-1.1-2.21-5.73-2.37v-1.76h16.71v1.76c-4.63.17-5.73.66-5.73,2.37v30.05h6.01c7.28,0,8.99-2.59,11.08-10.09l1.71.11-.39,12.07h-29.39v-1.76Z"/>
      <path class="cls-1" d="M827.25,341.4c0-11.63,7.72-19.13,17.31-19.13s17.31,7.28,17.31,18.91-7.72,19.13-17.31,19.13-17.31-7.22-17.31-18.91ZM855.92,341.29c0-11.8-4.91-17.04-11.58-17.04s-11.14,5.24-11.14,17.04,4.91,17.04,11.58,17.04,11.14-5.18,11.14-17.04Z"/>
      <path class="cls-1" d="M872.51,328.88h-.05v21.83c0,5.07.66,6.34,5.96,7.11v1.6h-13.95v-1.6c4.91-.83,5.79-2.04,5.79-7.11v-22.05c0-2.04-1.32-3.64-5.79-3.75v-1.76h10.31l20.51,28.18h.06v-19.52c0-5.02-1.16-6.29-6.4-7.06v-1.6h14v1.6c-4.91.88-5.4,2.04-5.4,7.06v28.5h-2.15l-22.88-31.43Z"/>
      <path class="cls-1" d="M904.71,341.4c0-11.36,8.66-19.13,18.8-19.13,3.36,0,7,.94,8.82,1.76l1.49-1.76h1.71v10.64h-1.65c-2.21-5.85-5.9-8.66-10.92-8.66-6.07,0-12.3,5.51-12.3,17.04s6.73,17.04,12.74,17.04c3.36,0,5.84-.66,7.39-1.87v-10.26c0-1.71-1.1-2.21-5.73-2.37v-1.76h14.61v1.76c-3.36.16-3.64.55-3.64,2.37v11.3c-3.14,1.71-8.6,2.81-12.19,2.81-10.2,0-19.13-6.4-19.13-18.91Z"/>
      <path class="cls-1" d="M944.52,341.4c0-11.63,7.72-19.13,17.31-19.13s17.31,7.28,17.31,18.91-7.72,19.13-17.31,19.13-17.31-7.22-17.31-18.91ZM973.19,341.29c0-11.8-4.91-17.04-11.58-17.04s-11.14,5.24-11.14,17.04,4.91,17.04,11.58,17.04,11.14-5.18,11.14-17.04Z"/>
      <path class="cls-1" d="M990.07,328.88h-.06v21.83c0,5.07.66,6.34,5.96,7.11v1.6h-13.95v-1.6c4.91-.83,5.79-2.04,5.79-7.11v-22.05c0-2.04-1.32-3.64-5.79-3.75v-1.76h10.31l20.51,28.18h.06v-19.52c0-5.02-1.16-6.29-6.4-7.06v-1.6h14.01v1.6c-4.91.88-5.4,2.04-5.4,7.06v28.5h-2.15l-22.88-31.43Z"/>
      <path class="cls-1" d="M1023.2,341.4c0-11.36,8.66-19.13,18.8-19.13,3.36,0,7,.94,8.82,1.76l1.49-1.76h1.71v10.64h-1.65c-2.21-5.85-5.9-8.66-10.92-8.66-6.06,0-12.3,5.51-12.3,17.04s6.73,17.04,12.74,17.04c3.36,0,5.85-.66,7.39-1.87v-10.26c0-1.71-1.1-2.21-5.73-2.37v-1.76h14.61v1.76c-3.36.16-3.64.55-3.64,2.37v11.3c-3.14,1.71-8.6,2.81-12.19,2.81-10.2,0-19.13-6.4-19.13-18.91Z"/>
      <path class="cls-1" d="M603.34,397.24h-12.35l-2.1,5.4c-2.04,5.18-1.76,5.84,3.03,6.62v1.6h-11.96v-1.6c3.75-.77,4.96-2.92,6.84-7.66l11.08-27.57h2.48l11.14,30.71c.99,2.76,2.1,3.97,6.18,4.52v1.6h-16.27v-1.6c4.8-.27,5.68-1.32,4.63-4.25l-2.7-7.77ZM602.62,395.26l-5.02-14.61h-.22l-5.62,14.61h10.86Z"/>
      <path class="cls-1" d="M620.21,400.99v-22.28c0-1.71-1.1-2.21-5.73-2.37v-1.76h16.27v1.76c-4.91.17-5.29.55-5.29,2.37v21.39c0,6.45,4.36,9.26,10.26,9.26,2.98,0,5.29-1.05,7-2.76,1.99-1.99,2.81-3.69,2.81-7.83v-15.55c0-5.02-1.16-6.29-6.4-7.06v-1.6h14.01v1.6c-4.91.88-5.4,2.04-5.4,7.06v17.2c0,5.79-4.96,11.3-13.73,11.3s-13.78-4.36-13.78-10.75Z"/>
      <path class="cls-1" d="M655.5,400.17h1.71c2.87,6.4,6.51,9.59,11.08,9.59,5.51,0,7.77-3.75,7.77-7,0-4.08-2.92-5.57-9.59-7.94-5.02-1.76-10.31-3.25-10.31-10.04s5.4-11.08,12.24-11.08c3.09,0,5.29.61,7.06,1.27l1.76-1.54h1.21v10.59h-1.71c-1.76-5.13-4.91-8.33-9.21-8.33-3.75,0-6.67,2.43-6.67,6.73,0,3.97,3.2,5.24,9.1,7.22,5.02,1.71,10.2,3.42,10.2,10.26,0,5.46-3.2,11.85-12.35,11.85-2.98,0-6.12-.66-8.22-1.54l-2.76,1.76h-1.32v-11.8Z"/>
      <path class="cls-1" d="M691.5,409.1c4.91-.16,6.12-.66,6.12-2.37v-30.16h-2.76c-5.29,0-6.29,2.87-8.49,9.43l-1.71-.11.33-11.3h30.55l.39,11.3-1.71.11c-1.82-6.18-3.03-9.43-8.49-9.43h-2.87v30.16c0,1.71,1.21,2.21,6.12,2.37v1.76h-17.48v-1.76Z"/>
      <path class="cls-1" d="M731.26,406.73c0,1.82.77,2.21,5.68,2.37v1.76h-16.65v-1.76c4.63-.16,5.73-.66,5.73-2.37v-28.01c0-1.71-1.1-2.21-5.73-2.37v-1.76h15.22c11.03,0,14.28,4.25,14.28,8.82s-2.48,7.61-9.21,9.1v.16c6.67.66,7.5,3.25,8.16,7.28l.83,5.24c.5,3.2,1.82,3.97,5.62,4.25v1.76c-.39,0-1.43.05-1.82.05-7.77,0-9.04-1.6-9.43-6.62l-.33-4.25c-.44-5.4-2.7-6.67-8.38-6.67h-3.97v13.01ZM735.5,391.73c6.95,0,8.66-3.03,8.66-8.16,0-4.8-2.43-7-9.04-7h-3.86v15.16h4.25Z"/>
      <path class="cls-1" d="M780.49,397.24h-12.35l-2.1,5.4c-2.04,5.18-1.76,5.84,3.03,6.62v1.6h-11.96v-1.6c3.75-.77,4.96-2.92,6.84-7.66l11.08-27.57h2.48l11.14,30.71c.99,2.76,2.1,3.97,6.17,4.52v1.6h-16.27v-1.6c4.8-.27,5.68-1.32,4.63-4.25l-2.7-7.77ZM779.78,395.26l-5.02-14.61h-.22l-5.62,14.61h10.86Z"/>
      <path class="cls-1" d="M797.42,409.1c4.63-.16,5.73-.66,5.73-2.37v-28.01c0-1.71-1.1-2.21-5.73-2.37v-1.76h16.71v1.76c-4.63.17-5.73.66-5.73,2.37v30.05h6.01c7.28,0,8.99-2.59,11.08-10.09l1.71.11-.39,12.07h-29.39v-1.76Z"/>
      <path class="cls-1" d="M830.5,409.1c4.63-.16,5.73-.66,5.73-2.37v-28.01c0-1.71-1.1-2.21-5.73-2.37v-1.76h16.71v1.76c-4.63.17-5.73.66-5.73,2.37v28.01c0,1.71,1.1,2.21,5.73,2.37v1.76h-16.71v-1.76Z"/>
      <path class="cls-1" d="M874.61,397.24h-12.35l-2.1,5.4c-2.04,5.18-1.76,5.84,3.03,6.62v1.6h-11.96v-1.6c3.75-.77,4.96-2.92,6.84-7.66l11.08-27.57h2.48l11.14,30.71c.99,2.76,2.1,3.97,6.18,4.52v1.6h-16.27v-1.6c4.8-.27,5.68-1.32,4.63-4.25l-2.7-7.77ZM873.89,395.26l-5.02-14.61h-.22l-5.62,14.61h10.86Z"/>
    </g>
    <g>
      <path class="cls-1" d="M600.41,61.25c1.36.69,1.23,1.95,4.33,3.61,1.79.96,4.73.61,5.97.1,1.52-.63,1.89.19.6.96-2.44,1.46-3.63,4.14-3.61,7.11,0,1.18-1.02,2.21-.2,3.03.39.39.99-.09,1.95-.21,1.49-.18,4.68.71,7.56-1.48,1.83-1.4,1.91-3.87,2.27-4.7.46-1.05.82-.93,1.03-.36.2.57,1.99,3.15,6.25,3.35,2.57.12,3.01,0,4.24.56,1.21.55,2.42-.24,1.44-1.43-1.08-1.3-.04-1.9-1.12-5.92-.37-1.36-2.15-4.14-4.71-4.89-.93-.27-.83-.76,0-1.16,3.06-1.47,6.27-6.55,4.24-11.95-.6-1.6.07-2.62-.61-3.06-.48-.31-1.28-.12-1.73.42-1.11,1.32-5.75,1.09-7.23,5.42-.5,1.46-.21,2.98-1.08,3.18-.6.14-.63-.91-.61-1.57.07-2.11-1.44-4.9-3.07-5.85-1.44-.83-3.02-1.16-3.99-1.99-.75-.64-1.83-.74-1.76,1.04.08,1.87-2.7,5.66.52,9.86.19.32.79.71.68,1.16-.03.09-.42.59-.8.44-.9-.36-2.18-1.68-4.86-1.09-2.67.59-4.38,3.14-5.71,3.5-.82.22-1.13,1.33,0,1.9ZM623.34,65.57c-1.23,1.18-2.33,1.29-3.89,1.26-1.12-.02-2.03-.35-2.07-.43-.07-.14.38-.24.91-.38,1.48-.41,4.46-1.54,5.7-4.53.3-.72.39-1.2.5-1.22.1-.02.32.86.33,1.25.03,1.02.03,2.61-1.47,4.05ZM624.18,49.42c1.42-1.94,3.13-2.27,3.66-2.64.43-.31.28,1.37-.85,2.63-1.13,1.26-1.36,1.7-1.84,2.79-.57,1.31-2.82,1.86-2.9,1.68,0,0,.51-2.52,1.93-4.46ZM616.94,58.73c1.78-1.45,3.97-1.71,4.91-.57.94,1.14.25,3.24-1.52,4.7-1.77,1.46-3.97,1.71-4.9.57-.94-1.14-.26-3.25,1.52-4.7ZM613.71,68.53c-1.32,1.51-2.12,1.74-3.05,3.36-.71,1.24-1.79,1.36-1.77,1.17.07-.64.04-2.35,1.59-4.37,1.55-2.02,4.03-2.58,4.03-2.58,0,0-.32,1.87-.8,2.42ZM611.38,47.2c.09-.33.29-.31.32.07.13,1.7,1.41,3.18,2.08,4.51.86,1.7.37,3.54.37,3.54-.08.14-1.45-1-2.27-2.17-1.68-2.39-.73-5.08-.5-5.96ZM603.79,58.3c1.44-1.35,3.81-1.21,4.58-.95.77.26,1.63.72,1.73.99-1.34,0-2.87.9-4.54,1.36-1.75.57-3.47.67-3.46.2,0,0,.66-.64,1.68-1.6Z"/>
      <path class="cls-1" d="M630.64,60.78c3.09,2.08,3.81,6.4,3.65,9.26-.02.3,1.24.25,1.93.08.97-.25,8.11,3.24,12.13,7.19.4.35,1.35-.29.32-1.87-3.24-4.99-7.24-6.8-9.33-8.52-2.09-1.72-2.04-2.35-2.88-4.23-1.3-2.9-2.92-4.53-4.17-4.55-.16,0-.41.75-1.52,1.57-.46.34-.84.67-.12,1.08Z"/>
      <path class="cls-1" d="M701.85,59.83c.83.4.93.89,0,1.16-2.55.74-4.34,3.53-4.71,4.89-1.08,4.02-.04,4.61-1.12,5.92-.99,1.19.23,1.98,1.44,1.43,1.22-.56,1.67-.44,4.24-.56,4.26-.19,6.04-2.78,6.25-3.35.21-.57.57-.69,1.03.36.36.82.44,3.3,2.27,4.7,2.88,2.2,6.07,1.3,7.56,1.48.96.12,1.56.6,1.95.21.82-.82-.21-1.85-.2-3.03.02-2.97-1.17-5.65-3.61-7.11-1.29-.77-.91-1.59.6-.96,1.25.52,4.18.87,5.97-.1,3.09-1.66,2.97-2.93,4.33-3.61,1.13-.57.82-1.68,0-1.9-1.34-.36-3.04-2.9-5.71-3.5-2.67-.59-3.96.73-4.86,1.09-.39.15-.78-.35-.8-.44-.12-.45.48-.85.68-1.16,3.22-4.2.45-7.99.53-9.86.07-1.78-1.01-1.68-1.76-1.04-.97.83-2.55,1.16-3.99,1.99-1.64.95-3.15,3.74-3.07,5.85.02.66,0,1.7-.61,1.57-.87-.2-.58-1.72-1.08-3.18-1.48-4.33-6.11-4.1-7.23-5.42-.45-.54-1.25-.73-1.73-.42-.68.44,0,1.46-.61,3.06-2.02,5.41,1.19,10.49,4.24,11.95ZM719.89,57.35c.77-.26,3.14-.4,4.58.95,1.03.96,1.68,1.6,1.68,1.6.01.47-1.71.37-3.46-.2-1.67-.46-3.2-1.35-4.54-1.36.11-.27.96-.74,1.73-.99ZM708.81,66.83c-1.56.03-2.66-.07-3.89-1.26-1.5-1.44-1.49-3.04-1.47-4.05,0-.39.23-1.27.33-1.25.1.02.2.5.5,1.22,1.24,2.99,4.21,4.12,5.7,4.53.53.14.98.24.91.38-.04.08-.95.41-2.07.43ZM714.48,51.79c.68-1.33,1.95-2.81,2.08-4.51.03-.38.23-.4.32-.07.23.88,1.18,3.57-.5,5.96-.82,1.17-2.19,2.31-2.27,2.17,0,0-.49-1.84.37-3.54ZM717.79,68.69c1.55,2.02,1.52,3.73,1.59,4.37.02.19-1.06.06-1.77-1.17-.93-1.62-1.72-1.85-3.05-3.36-.48-.55-.8-2.42-.8-2.42,0,0,2.49.55,4.03,2.58ZM706.42,58.17c.93-1.14,3.13-.89,4.91.57,1.77,1.45,2.45,3.56,1.52,4.7-.93,1.14-3.13.89-4.9-.57-1.77-1.46-2.46-3.56-1.52-4.7ZM700.42,46.78c.53.37,2.24.7,3.66,2.64,1.42,1.93,1.93,4.46,1.93,4.46-.08.18-2.33-.36-2.9-1.68-.47-1.09-.7-1.53-1.84-2.79-1.13-1.26-1.29-2.93-.85-2.63Z"/>
      <path class="cls-1" d="M679.59,75.43c-1.03,1.58-.08,2.22.32,1.87,4.02-3.95,11.16-7.43,12.13-7.19.69.18,1.95.22,1.93-.08-.15-2.85.57-7.18,3.65-9.26.72-.41.34-.74-.12-1.08-1.11-.83-1.36-1.58-1.52-1.57-1.25.03-2.87,1.65-4.17,4.55-.85,1.88-.8,2.5-2.88,4.23-2.09,1.72-6.09,3.53-9.33,8.52Z"/>
      <path class="cls-1" d="M664.3,48.88s-.09.06-.16.07h0s0,0-.01,0c0,0,0,0-.01,0h0s0,.01,0,.01c-.06,0-.11-.03-.16-.07-.24-.19-.16-.81-.36-1.88-.9-5.09-3.72-7.8-9.12-8.07-2.69-.13-2.88-1.18-3.86-.8-.87.34-.15,1.16-.31,2.8-.3,3.22,0,6,3.22,9.01,1.24,1.06,1.06,2.23.49,2.05-.41-.13-1.21-.53-2.03-.83-3.63-1.31-6.38,1.12-7.9,2.19-.63.44-1.06,1.07-2.1,1.33-1.47.37-1.41,1.7-.05,2.18,1.59.56,1.55,1.82,3.47,4.07,2.86,3.35,7.14,2.98,9.74,2.45,1.39-.36,1.62.13,1.68.3.32.89-2.35,3.92,1.41,8.18,1.9,2.15,3.94,3.02,4.62,4.31.39.74.42,1.14,1.11,1.22h0s.08.01.12.01c0,0,0,0,0,0,0,0,0,0,.01,0,0,0,0,0,0,0,0,0,0,0,0,0,0,0,0,0,0,0,0,0,0,0,0,0,0,0,0,0,0,0h0s.08,0,.12,0h0c.7-.09.72-.49,1.11-1.23.67-1.29,2.72-2.16,4.61-4.31,3.76-4.26,1.09-7.29,1.41-8.18.06-.17.29-.66,1.68-.3,2.6.52,6.88.9,9.74-2.45,1.92-2.25,1.88-3.51,3.47-4.07,1.36-.48,1.42-1.81-.05-2.18-1.04-.26-1.48-.89-2.1-1.33-1.52-1.07-4.27-3.5-7.9-2.19-.82.3-1.62.7-2.02.83-.57.18-.75-.99.49-2.05,3.23-3.01,3.53-5.79,3.22-9.01-.15-1.63.56-2.46-.31-2.8-.98-.39-1.17.66-3.86.8-5.4.27-8.21,2.98-9.12,8.07-.19,1.08-.11,1.69-.36,1.88ZM652.93,54.3c-.77.06-1.96,1.06-3.28,1.55-3.23,1.18-4.86.37-6.17.04-.19-.05-.27-.24-.11-.29.61-.19,1.12-.19,2.11-.63.84-.38,2.08-1.17,2.92-1.55,2.12-.97,3.94,0,4.73.44.28.16.1.43-.2.46ZM675.13,53.84c.79-.45,2.61-1.41,4.73-.44.84.38,2.08,1.17,2.92,1.55.99.44,1.5.44,2.11.63.16.05-.04.21-.23.25-.87.18-1.95,1.43-6.19-.04-1.33-.46-2.48-1.49-3.25-1.55-.31-.02-.37-.26-.09-.42ZM664.12,52.91h0s0,0,0,0h.02c2.1.04,3.79,1.39,3.79,3.04s-1.69,3-3.79,3.04h0s0,0-.01,0c0,0,0,0-.01,0h0s0,0,0,0c-2.1-.04-3.79-1.38-3.79-3.04s1.69-3,3.79-3.04ZM654.27,41.54c-.34-.21-.49-.19-.04-.25.44-.06,1.42-.1,2.85.41,1.36.48,2.58,1.81,3.1,2.72.66,1.15,1.08,3.43.94,4.12-.05.26-1.89-.47-2.64-1.54-1.08-1.54-2.19-4.22-4.21-5.46ZM664.47,64.77s-.08,0-.12,0c0,0-.01,0-.02,0-.01,0-.02,0-.03,0h0s0,0-.01,0c0,0,0,0-.01,0h0s0,0,0,0h0s-.02,0-.03,0c0,0-.01,0-.02,0-.04,0-.08,0-.12,0-4.64-.03-6.3-4.26-5.42-4.64,0,0,1.13,2.03,5.26,2.23.02,0,.04,0,.06,0,.05,0,.11,0,.16,0,0,0,0,0,0,0h0s0,0,0,0h.02s0,0,.01,0c.05,0,.11,0,.16,0,.02,0,.04,0,.06,0,4.13-.2,5.45-2.23,5.45-2.23.88.38-.77,4.61-5.42,4.64ZM668.03,44.42c.52-.91,1.74-2.24,3.1-2.72,1.43-.51,2.52-.42,2.91-.41.45.01.34.11-.04.25-2.51,1.7-3.43,4.53-4.46,5.97-.76,1.07-2.33,1.29-2.39,1.03-.14-.7.23-2.98.88-4.12Z"/>
      <path class="cls-1" d="M663.97,23.51c-3.23-.1-44.28-1.03-76.12,12.92l-1.31.57v107.35c0,14,2.29,29.37,18.92,46.92,13.21,13.93,42.37,29.74,57.65,36.44l.88.39.88-.39c15.28-6.72,44.44-22.55,57.6-36.44,16.63-17.54,18.93-32.92,18.93-46.92V37l-1.31-.57c-31.84-13.96-72.9-13.02-76.12-12.92ZM737.03,144.35c0,13.1-2.15,27.48-17.73,43.91-12.48,13.16-40.13,28.27-55.32,35.06-27.76-12.3-48.65-27.99-55.35-35.06-15.58-16.43-17.73-30.82-17.73-43.91V39.87c30.09-12.68,69.24-12.08,72.8-12,.08,0,.17,0,.26,0,.09,0,.18,0,.26,0,3.57-.09,42.72-.68,72.8,12v104.48Z"/>
      <path class="cls-1" d="M745.19,33.14l-3.07-1.34c-27.59-12.09-61.21-13.4-74.39-13.4-1.94,0-3.24-.02-3.77,0-.53-.02-1.83,0-3.78,0-13.17,0-46.78,1.31-74.37,13.39l-3.08,1.34-1.26.55v110.66c0,15.05,2.46,31.57,20.31,50.4,13.72,14.47,43.65,30.74,59.28,37.59l2.07.91.85.38.85-.38,2.06-.91c15.64-6.87,45.56-23.16,59.23-37.58,17.86-18.83,20.32-35.35,20.32-50.4V33.69l-1.26-.55ZM744.35,144.35c0,14.61-2.39,30.65-19.74,48.95-13.46,14.2-43.06,30.3-58.56,37.11l-2.06.91-2.07-.91c-15.48-6.78-45.09-22.86-58.6-37.11-17.34-18.3-19.74-34.34-19.74-48.95V35.07l3.08-1.35c27.22-11.93,60.49-13.22,73.53-13.22,1.92,0,3.23.03,3.78.05.55-.02,1.85-.05,3.77-.05,13.04,0,46.32,1.29,73.54,13.22l3.07,1.34v109.28Z"/>
      <path class="cls-1" d="M674.23,141.34c.11,0,.24-.01.38-.05.96-.15,1.93-.23,2.94-.23,2.57,0,5.46.47,8.6,1.39,2.58.76,5.22,1.02,6.56,1.1v-.1c-1.91-.45-3.94-1.09-6-1.9-2.86-1.12-5.56-1.83-8.02-2.09-.45-.02-.84-.03-1.19-.03-.97,0-1.92.07-2.93.23-.55.09-1.25.28-1.7.45,0,.01.27,1.22,1.38,1.22Z"/>
      <path class="cls-1" d="M674.23,135.32c.11,0,.24-.01.38-.05.97-.15,1.93-.23,2.94-.23,2.57,0,5.46.47,8.6,1.39,1.88.55,4.09.93,6.56,1.1v-.1c-1.92-.45-3.94-1.09-6-1.9-2.86-1.12-5.56-1.83-8.02-2.09-.42-.02-.82-.03-1.19-.03-.98,0-1.93.07-2.93.23-.55.09-1.25.28-1.71.45,0,.01.27,1.23,1.38,1.23Z"/>
      <path class="cls-1" d="M674.23,129.31c.12,0,.24-.01.38-.04.97-.16,1.93-.23,2.95-.23,2.57,0,5.46.47,8.6,1.39,2.57.76,5.44,1.02,6.56,1.1v-.1c-1.92-.45-3.94-1.09-6-1.9-2.86-1.12-5.56-1.83-8.02-2.09-.44-.02-.83-.03-1.19-.03-.98,0-1.92.07-2.93.23-.55.09-1.25.28-1.71.45,0,.01.27,1.23,1.38,1.23Z"/>
      <path class="cls-1" d="M674.23,147.36c.11,0,.24-.01.38-.05.96-.15,1.92-.23,2.94-.23,2.57,0,5.46.47,8.6,1.39,1.87.55,4.08.92,6.56,1.1v-.1c-1.92-.45-3.94-1.09-6-1.9-2.86-1.12-5.56-1.82-8.02-2.09-.45-.02-.84-.03-1.19-.03-.98,0-1.92.07-2.93.23-.55.09-1.25.28-1.7.45,0,.01.27,1.23,1.38,1.23Z"/>
      <path class="cls-1" d="M630.19,107.67c.9.17,1.07.2,2.33.25h.17c.15.01.3.02.46.02.07,0,.13,0,.2,0,4.8-.22,6.23-1.85,6.22-1.87-.01-.02-.03-.03-.07-.03h0c-1.02.24-2.07.34-2.47.37-1.33.17-2.59.26-3.74.26-2.53,0-4.02-.41-4.68-.66l-.19-.06h-.06s-.03.05-.02.07c0,.01.21,1.33,1.88,1.65Z"/>
      <path class="cls-1" d="M686.15,154.49c2.61.77,5.46,1.03,6.56,1.1v-.1c-1.92-.45-3.94-1.09-6-1.9-2.87-1.12-5.56-1.83-8.02-2.09-.44-.02-.83-.03-1.19-.03-.98,0-1.93.07-2.93.23-.55.09-1.25.28-1.7.45,0,.01.27,1.23,1.38,1.23.11,0,.24-.01.39-.05.96-.15,1.92-.23,2.94-.23,2.57,0,5.46.47,8.6,1.39Z"/>
      <path class="cls-1" d="M630.19,113.76c.9.17,1.07.2,2.33.25h.17c.15.01.3.02.46.02.07,0,.13,0,.2,0,4.8-.22,6.23-1.85,6.22-1.87-.01-.02-.03-.03-.07-.03h0c-1.02.24-2.07.34-2.47.37-1.33.17-2.59.26-3.74.26-2.53,0-4.02-.41-4.68-.66l-.19-.06h-.06s-.03.05-.02.07c0,.01.21,1.33,1.88,1.65Z"/>
      <path class="cls-1" d="M606.81,134.3c.2.27.33.59.33.95,0,.88-.74,1.6-1.65,1.6s-1.61-.67-1.65-1.52c-.15.29-.23.62-.23.96,0,1.21,1.01,2.19,2.26,2.19s2.26-.98,2.26-2.19c0-.88-.54-1.64-1.33-1.99Z"/>
      <path class="cls-1" d="M606.81,155.03c.2.27.33.59.33.95,0,.88-.74,1.6-1.65,1.6s-1.61-.67-1.65-1.52c-.15.29-.23.62-.23.96,0,1.21,1.01,2.19,2.26,2.19s2.26-.98,2.26-2.19c0-.88-.54-1.65-1.33-1.99Z"/>
      <path class="cls-1" d="M674.23,123.29c.12,0,.24-.01.37-.04.97-.16,1.94-.23,2.95-.23,2.57,0,5.46.47,8.6,1.39,1.89.56,4.1.93,6.56,1.1v-.1c-1.92-.45-3.94-1.09-6-1.9-2.86-1.12-5.56-1.83-8.02-2.09-.45-.02-.84-.03-1.19-.03-.98,0-1.93.07-2.93.23-.55.09-1.25.28-1.71.45,0,.01.27,1.23,1.38,1.23Z"/>
      <path class="cls-1" d="M606.81,113.58c.2.26.33.59.33.95,0,.88-.74,1.6-1.65,1.6s-1.61-.67-1.65-1.52c-.15.29-.23.62-.23.96,0,1.21,1.01,2.19,2.26,2.19s2.26-.98,2.26-2.19c0-.88-.54-1.64-1.33-1.99Z"/>
      <path class="cls-1" d="M674.23,105.23c.11,0,.24-.01.36-.04.97-.16,1.94-.23,2.96-.23,2.57,0,5.46.47,8.6,1.39,2.46.73,4.93,1,6.56,1.1v-.1c-1.92-.46-3.94-1.1-6-1.9-2.86-1.12-5.56-1.83-8.02-2.09-.44-.02-.83-.03-1.19-.03-.87,0-1.74.06-2.7.19h-.11s-.12.04-.12.04c-.55.09-1.25.28-1.71.45,0,.01.27,1.23,1.38,1.23Z"/>
      <path class="cls-1" d="M674.23,117.27c.12,0,.24-.01.37-.04.97-.16,1.94-.23,2.95-.23,2.57,0,5.46.47,8.6,1.39,2.5.74,4.72.97,6.56,1.1v-.1c-1.92-.45-3.94-1.1-6-1.9-2.86-1.12-5.56-1.82-8.02-2.09-.45-.02-.84-.03-1.19-.03-.87,0-1.75.06-2.68.18h-.1s-.08.02-.15.04c-.55.09-1.25.28-1.71.45,0,.01.27,1.23,1.38,1.23Z"/>
      <path class="cls-1" d="M674.23,111.25c.12,0,.24-.01.37-.04.97-.16,1.94-.23,2.96-.23,2.57,0,5.46.47,8.6,1.39,1.86.55,4.07.92,6.56,1.1v-.1c-1.92-.46-3.95-1.1-6-1.9-2.86-1.12-5.56-1.83-8.02-2.09-.45-.02-.84-.03-1.19-.03-.87,0-1.75.06-2.69.18h-.1s-.14.04-.14.04c-.55.09-1.25.28-1.71.45,0,.01.27,1.23,1.38,1.23Z"/>
      <path class="cls-1" d="M632.68,156.68c.15,0,.3.01.46.01.07,0,.13,0,.2,0,4.8-.22,6.23-1.85,6.22-1.87-.01-.02-.03-.03-.07-.03h0c-1.02.24-2.07.34-2.47.37-1.33.17-2.59.26-3.74.26-2.53,0-4.02-.41-4.68-.66l-.19-.06h-.06s-.03.05-.02.07c0,.01.21,1.33,1.88,1.65.9.17,1.07.2,2.33.25h.17Z"/>
      <path class="cls-1" d="M630.19,138.15c.9.17,1.07.2,2.33.25h.17c.15.01.3.02.46.02.07,0,.13,0,.2,0,4.8-.22,6.23-1.85,6.22-1.87-.01-.02-.03-.03-.07-.03h0c-1.02.24-2.07.34-2.47.37-1.33.17-2.59.26-3.74.26-2.53,0-4.02-.41-4.68-.66l-.19-.06h-.06s-.03.05-.02.07c0,.01.21,1.33,1.88,1.65Z"/>
      <path class="cls-1" d="M630.19,150.34c.9.17,1.07.2,2.33.25h.17c.15.01.3.02.46.02.07,0,.13,0,.2,0,4.8-.22,6.23-1.85,6.22-1.87-.01-.02-.03-.03-.07-.03h0c-1.02.24-2.07.34-2.47.37-1.33.17-2.59.26-3.74.26-2.53,0-4.02-.41-4.68-.66l-.19-.06h-.06s-.03.05-.02.07c0,.01.21,1.33,1.88,1.65Z"/>
      <path class="cls-1" d="M630.19,119.86c.9.17,1.07.2,2.33.25h.17c.15.01.3.02.46.02.07,0,.13,0,.2,0,4.8-.22,6.23-1.85,6.22-1.87-.01-.02-.03-.03-.07-.03h0c-1.02.24-2.07.34-2.47.37-1.33.17-2.59.26-3.74.26-2.53,0-4.02-.41-4.68-.66l-.19-.06h-.06s-.03.05-.02.07c0,.01.21,1.33,1.88,1.65Z"/>
      <path class="cls-1" d="M630.19,144.24c.9.17,1.07.2,2.33.25h.17c.15.02.3.02.46.02.07,0,.13,0,.2,0,4.8-.22,6.23-1.85,6.22-1.87-.01-.02-.03-.03-.07-.03h0c-1.02.24-2.07.34-2.47.37-1.33.17-2.59.26-3.74.26-2.53,0-4.02-.41-4.68-.66l-.19-.06h-.06s-.03.05-.02.07c0,.01.21,1.33,1.88,1.65Z"/>
      <path class="cls-1" d="M630.19,132.05c.9.17,1.07.2,2.33.24h.17c.15.01.3.02.46.02.07,0,.13,0,.2,0,4.8-.22,6.23-1.85,6.22-1.87-.01-.02-.03-.03-.07-.03h0c-1.02.24-2.07.34-2.47.37-1.33.17-2.59.26-3.74.26-2.53,0-4.02-.41-4.68-.66l-.19-.06h-.06s-.03.05-.02.07c0,.01.21,1.33,1.88,1.65Z"/>
      <path class="cls-1" d="M630.19,125.95c.9.17,1.07.2,2.33.25h.17c.15.01.3.02.46.02.07,0,.13,0,.2,0,4.8-.22,6.23-1.85,6.22-1.87-.01-.02-.03-.03-.07-.03h0c-1.02.24-2.07.34-2.47.37-1.33.17-2.59.26-3.74.26-2.53,0-4.02-.41-4.68-.66l-.19-.06h-.06s-.03.05-.02.07c0,.01.21,1.33,1.88,1.65Z"/>
      <path class="cls-1" d="M723.18,81.21c-6.04.05-10.79,1.47-15.4,2.83-4.17,1.24-8.47,2.51-13.68,2.68-3.99.14-7.59-.9-11.77-2.1l-.05-.02c-4.95-1.42-10.57-3.03-18.09-3.03h-.41c-5.65,0-10.4,1.25-15.44,2.57-4.51,1.18-9.16,2.4-14.44,2.58-4.27.14-8.56-.99-13.1-2.19h-.04c-5.12-1.36-10.42-2.76-16.7-2.78h-.17c-3.91,0-7.24.44-10.02.98v61.61c0,12.48,2.05,26.2,16.92,41.88,6.4,6.75,26.41,21.8,53.2,33.85,14.87-6.79,41.41-21.43,53.18-33.85,14.87-15.68,16.92-29.39,16.92-41.88v-61.83c-3.13-.74-6.7-1.31-10.77-1.31h-.13ZM612.02,159.38h-3.18c.02.67.04,1.76-.01,2.32-.16,1.54-1.79,2.57-3.21,2.57-.82,0-1.54-.32-2.04-.9-1-1.17-.08-3.18.28-3.77-.59.19-1.15.28-1.65.28-.95,0-2.55-.38-2.68-2.94.12-2.47,1.52-2.98,2.67-2.98.5,0,1.05.1,1.65.28-.36-.59-1.28-2.6-.27-3.77.49-.58,1.22-.9,2.04-.9,1.43,0,3.06,1.03,3.21,2.57.06.54.04,1.77.01,2.4h3.18v4.85ZM612.02,138.66h-3.18c.02.67.04,1.76-.01,2.32-.16,1.54-1.79,2.57-3.21,2.57-.82,0-1.54-.32-2.04-.9-1-1.18-.08-3.18.28-3.77-.59.19-1.15.28-1.65.28-.94,0-2.55-.38-2.67-2.94.13-2.6,1.73-2.98,2.68-2.98.5,0,1.05.1,1.65.28-.36-.59-1.28-2.6-.27-3.77.5-.58,1.22-.9,2.04-.9,1.43,0,3.06,1.03,3.21,2.57.05.48.04,1.74.02,2.4h3.17v4.85ZM612.02,117.93h-3.18c.02.67.04,1.76-.01,2.32-.16,1.54-1.79,2.57-3.21,2.57-.82,0-1.54-.32-2.04-.9-1-1.18-.08-3.18.28-3.77-.59.19-1.15.28-1.65.28-.94,0-2.55-.38-2.67-2.94.13-2.6,1.73-2.98,2.68-2.98.5,0,1.05.1,1.65.28-.36-.59-1.28-2.6-.27-3.77.5-.58,1.22-.9,2.04-.9,1.43,0,3.06,1.03,3.21,2.57.05.53.04,1.76.02,2.4h3.17v4.85ZM705.69,101.49l1.73,2.16v59.27l-1.73-2.16v-59.27ZM666.41,102.31c1.36-1.31,5.27-4.33,12.06-3.71,8.41.76,17.97,5.62,25.13,2.03v59.09c-1.27,1.07-8.47,2.51-17.32-.32-12.26-3.92-17.41,0-19.86,1.77v-58.86ZM625.49,100.63c7.16,3.59,16.72-1.27,25.13-2.03,6.65-.6,10.17,2.28,11.44,3.63v3.78c-.87-.65-2.07-1.24-3.69-1.82-.46-.13-1.87-.53-3.19-.53-.36,0-.69.03-1,.06-.05,0-.07.03,0,.04.33.05.97.17,1.76.43l.08.03c3.26,1.19,5.14,3.02,6.05,4.14v3.63c-.73-.52-1.85-1.11-3.71-1.74-.45-.12-1.81-.48-3.1-.48-.39,0-.75.03-1.06.07-.05,0-.08.04,0,.05.02,0,.03,0,.05,0,.32.05.91.14,1.67.39l.08.02c3.22,1.09,5.14,2.95,6.06,4.06v3.63c-.84-.6-2.05-1.14-3.73-1.69-.47-.12-1.73-.44-3-.44-.4,0-.77.03-1.09.07-.08.01-.1.05-.01.06.35.04.94.14,1.66.37l.28.09c3.26,1.22,5.05,2.9,5.9,3.9v3.62c-.83-.57-2.03-1.08-3.72-1.61-.41-.1-1.66-.41-2.9-.41-.46,0-.87.04-1.23.1-.06,0-.08.04.04.06.31.04.89.1,1.67.34l.38.12c3.11,1.09,4.9,2.77,5.77,3.78v3.61c-.83-.55-2.02-1.04-3.72-1.55-.4-.09-1.6-.37-2.79-.37-.51,0-.97.05-1.36.12-.05,0-.07.04-.02.05.05,0,.11.01.18.02.35.04.87.09,1.57.29l.08.02c.96.36,3.97,1.62,6.06,3.89v3.52c-.82-.54-2.02-1.02-3.71-1.5-.42-.09-1.53-.33-2.69-.33-.55,0-1.04.05-1.47.13-.05,0-.06.03,0,.04.33.02.95.09,1.74.3l.08.02c2.47.72,4.6,2.04,6.06,3.73v3.61c-.82-.53-2.02-1-3.72-1.46-.62-.13-1.57-.3-2.58-.3-.58,0-1.1.06-1.55.15-.06.01-.08.04-.01.04.34.02.96.08,1.72.27l.08.02c.87.24,3.68,1.19,6.07,3.79v3.47c-.82-.53-2.02-.98-3.71-1.42-.59-.11-1.5-.26-2.46-.26-.64,0-1.2.07-1.67.17-.06.01-.12.04-.04.05.27.01.91.04,1.75.24l.08.02c1.06.18,4.4,1.75,6.06,3.46v3.72c-.83-.54-2.03-.99-3.76-1.41-.36-.06-1.31-.23-2.33-.23-.68,0-1.27.07-1.77.19-.06.01-.06.05.05.06.31.01.89.03,1.64.21l.08.02c2.79.59,4.96,2.35,6.08,3.57v4.43c-2.68-1.89-7.92-4.95-19.25-1.33-8.86,2.83-16.05,1.39-17.32.32v-59.09ZM621.72,103.65l1.73-2.16v59.27l-1.73,2.16v-59.27ZM715.39,172.9h-39.23s0,0,0,0c-1.05.07-2.09-.02-3.61,1.15-1.27,1.17-3.77,2.83-7.9,3.02-4.83.23-7.89-1.89-9.28-3.17-1.18-.83-2.07-.9-2.92-.94h-38.47v-67.01h6.04l-.24.28v59.1l-1.73,2.16v-59.18l-1.78,2.14.1,59.71h36.54c.1,0,.22,0,.36,0h.62c1.86.08,2.67.97,3.38,1.55,1.16,1,3.31,2.1,6.9,2.1,2.95,0,4.9-.86,6.14-1.75.06-.02.13-.04.21-.09.78-.47,1.46-1.58,3.33-1.81h39.17l-.02-59.35-1.88-2.44v59.12l-1.73-2.16v-59.2l-.14-.18h6.17v66.95ZM726.01,163.65h-5.16v-3.21h.03l2.82-2.44h-6.47v-2.89h3.62v-3.33h5.16v11.87ZM726.01,142.79h-5.16v-3.21h.03l2.82-2.44h-6.47v-2.89h3.62v-3.32h5.16v11.87ZM726.01,121.93h-5.16v-3.21h.03l2.82-2.44h-6.47v-2.89h3.62v-3.33h5.16v11.87Z"/>
    </g>
  </g>
  <rect class="cls-1" x="504.98" width="2.54" height="440"/>
</svg>